<?xml version="1.0" encoding="UTF-8"?>
<!DOCTYPE svg PUBLIC "-//W3C//DTD SVG 20010904//EN" "http://www.w3.org/TR/2001/REC-SVG-20010904/DTD/svg10.dtd">
<svg version="1.0" xmlns="http://www.w3.org/2000/svg" width="3677px" height="1458px" viewBox="0 0 3677 1458" preserveAspectRatio="xMidYMid meet">
 <g fill="#000000">
  <path d="M2839 1449.7 c-0.9 -0.7 -2.6 -2.6 -3.8 -4.4 -2 -2.9 -2.2 -4.2 -1.9 -12.5 l0.3 -9.3 0.2 9.3 c0.2 8.4 0.5 9.7 2.9 12.8 1.8 2.5 3.2 3.4 4.5 3.1 1.6 -0.5 1.7 -0.3 0.7 0.9 -0.6 0.8 -1.2 1.4 -1.3 1.4 0 0 -0.8 -0.6 -1.6 -1.3z"/>
  <path d="M2845 1444 c1.1 -1.6 2.6 -3.3 3.2 -3.6 0.7 -0.4 -0.1 0.9 -1.6 2.9 -3.4 4.4 -4.6 5 -1.6 0.7z"/>
  <path d="M2841 1440.1 c0 -1.3 0.8 -3 1.8 -3.7 3.7 -2.8 3.6 -0.8 -0.2 4.1 -1.5 2 -1.5 2 -1.6 -0.4z"/>
  <path d="M660 1406.8 l0 -32.2 -4 3.9 c-2.2 2.1 -4.2 4.6 -4.5 5.6 -0.4 1.3 -2.4 1.7 -9.3 2.2 -18.6 1.4 -37.5 7.5 -67.3 21.7 -35.1 16.9 -54.2 23.3 -73.7 24.8 l-9.4 0.8 -2.4 -3.5 c-1.3 -2 -2.4 -4 -2.4 -4.5 0 -0.4 -2.4 -4.9 -5.4 -10 -9 -15.1 -13.8 -32.7 -16.6 -61.6 -0.6 -6.3 -1.5 -31.1 -2 -55 -0.9 -42.9 -2.2 -70.9 -4.1 -92.5 -1.7 -18.7 -2.3 -58.2 -1 -71.2 1.1 -11 4.7 -31.2 7.1 -39.4 0.6 -2 3.3 -6.5 6 -9.9 2.8 -3.5 5 -6.8 5 -7.5 0 -0.9 4.3 -1.4 15.8 -1.8 18.7 -0.7 36.1 -3.2 58.3 -8.4 27.1 -6.3 43.2 -5.2 61.4 3.9 7.7 3.9 16.2 9.7 22.6 15.4 2.7 2.4 5.4 4.4 5.9 4.4 0.6 0 1 -37.9 1 -104.3 0 -99.9 -0.1 -104.5 -1.8 -106 -1.6 -1.4 -4.4 -1.7 -18.3 -1.7 -18.2 0 -26.9 1.6 -26.9 4.8 0 0.9 1.1 29.1 2.6 62.5 1.4 33.5 2.4 61.1 2.2 61.3 -0.3 0.2 -19.3 0.8 -42.4 1.4 -23 0.5 -48.6 1.2 -56.8 1.5 l-14.9 0.5 0.6 -41.3 c0.3 -22.6 1.1 -45.5 1.7 -50.7 3.4 -31.6 14.3 -62.9 31.1 -89.8 5.7 -9.2 6.8 -10.4 10.3 -11.3 2.1 -0.6 6.9 -3.4 10.5 -6.3 39.2 -31.3 100.3 -54.5 195.1 -74.1 49.5 -10.2 53 -11 53 -13 0 -2.4 4.6 -4.7 11.1 -5.4 l6.2 -0.8 -0.6 49.1 c-0.3 27 -1.1 61 -1.7 75.5 -1.8 41 0.1 72.1 8 128.6 8 57.7 9.5 79.4 9.4 139.5 0 43.3 -0.3 54.4 -2.7 88 -1.4 21.2 -3.1 47.7 -3.6 59 -0.6 11.3 -1.3 26.8 -1.7 34.5 -0.4 7.7 -1 34 -1.3 58.5 l-0.6 44.4 -7 2.8 c-12.2 4.7 -27.1 7.6 -60 11.8 -45 5.7 -42 4.8 -59 17 -10.5 7.6 -17.1 11 -21.1 11 l-2.4 0 0 -32.2z m-55.5 -93.9 c3.3 -3.3 7.4 -6.6 9.1 -7.3 1.7 -0.8 5.7 -4.4 9 -8.2 9.3 -10.8 16.3 -17.3 19.7 -18.2 l3.2 -0.8 0.3 -35.2 c0.2 -28.8 0 -35.6 -1.2 -37.5 -0.7 -1.2 -2.4 -5.2 -3.6 -9 -1.6 -5 -3 -7.4 -5.4 -9.2 -8.1 -6.1 -20.7 -9.4 -39.8 -10.2 l-12.8 -0.6 0 40.4 c0 41.1 0.8 57.1 3.6 70.8 2.6 13.2 9.1 31.1 11.2 31.1 0.4 0 3.4 -2.7 6.7 -6.1z"/>
  <path d="M1830 1406.8 l0 -32.2 -4 3.9 c-2.2 2.1 -4.2 4.6 -4.5 5.6 -0.4 1.3 -2.4 1.7 -9.3 2.2 -18.6 1.4 -37.5 7.5 -67.3 21.7 -35.1 16.9 -54.2 23.3 -73.7 24.8 l-9.4 0.8 -2.4 -3.5 c-1.3 -2 -2.4 -4 -2.4 -4.5 0 -0.4 -2.4 -4.9 -5.4 -10 -9 -15.1 -13.8 -32.7 -16.6 -61.6 -0.6 -6.3 -1.5 -31.1 -2 -55 -0.9 -42.9 -2.2 -70.9 -4.1 -92.5 -1.7 -18.7 -2.3 -58.2 -1 -71.2 1.1 -11 4.7 -31.2 7.1 -39.4 0.6 -2 3.3 -6.5 6 -9.9 2.8 -3.5 5 -6.8 5 -7.5 0 -0.9 4.3 -1.4 15.8 -1.8 18.7 -0.7 36.1 -3.2 58.3 -8.4 27.1 -6.3 43.2 -5.2 61.4 3.9 7.7 3.9 16.2 9.7 22.6 15.4 2.7 2.4 5.4 4.4 5.9 4.4 0.6 0 1 -37.9 1 -104.3 0 -99.9 -0.1 -104.5 -1.8 -106 -1.6 -1.4 -4.4 -1.7 -18.3 -1.7 -18.2 0 -26.9 1.6 -26.9 4.8 0 0.9 1.1 29.1 2.6 62.5 1.4 33.5 2.4 61.1 2.2 61.3 -0.3 0.2 -19.3 0.8 -42.4 1.4 -23 0.5 -48.6 1.2 -56.8 1.5 l-14.9 0.5 0.6 -41.3 c0.3 -22.6 1.1 -45.5 1.7 -50.7 3.4 -31.6 14.3 -62.9 31.1 -89.8 5.7 -9.2 6.8 -10.4 10.3 -11.3 2.1 -0.6 6.9 -3.4 10.5 -6.3 35 -28 92 -51.2 167 -68.2 10.6 -2.4 19.5 -4.5 19.7 -4.7 0.2 -0.1 -0.3 -3.2 -1 -6.7 -1.6 -8.5 -1.8 -12 -0.6 -12 0.6 0 1.3 -0.6 1.6 -1.4 0.3 -0.7 2.6 -3.5 5.1 -6.2 5.8 -6.2 12.3 -16.1 12.3 -18.8 0 -1.5 0.3 -1.7 0.9 -0.8 0.6 1.1 1 1.1 1.8 0 2.4 -3 2.6 -9.7 0.2 -8.2 -0.5 0.3 -0.9 -0.6 -0.9 -1.9 0 -1.5 1 -3.1 2.5 -4.1 2.4 -1.6 2.5 -1.6 2.5 0.4 0 1.8 0.6 2 5.5 2 5.8 0 5.8 0 5.5 5.7 -0.1 2.4 0.5 3.6 2.8 5.3 2.6 1.9 3 2.8 2.5 5.4 -0.6 3.7 1.4 5.9 4.9 5.4 3.1 -0.4 3.5 -3.5 0.7 -6.4 -2 -2.2 -2.1 -2.4 -0.4 -3 1.2 -0.5 2.3 -0.1 3.2 1.1 1.2 1.8 1.4 1.8 3 0.2 1.6 -1.5 1.6 -1.8 0 -3.5 -0.9 -1 -1.7 -2.4 -1.7 -3 0 -2.2 2.3 -6.2 3.9 -6.7 0.9 -0.3 2.9 -1.7 4.5 -3.1 2.6 -2.3 2.7 -2.8 1.6 -4.8 -0.6 -1.3 -2.9 -3.3 -5 -4.5 l-3.8 -2.1 1.3 -4.5 c1.8 -5.9 2.7 -7.4 6.7 -11.1 5.6 -5.4 6.8 -5.2 13.1 1.6 5.1 5.5 11.7 14.1 11.7 15.3 0 0.3 -1.6 0.1 -3.5 -0.3 -2 -0.4 -3.5 -0.4 -3.5 0.1 0 0.5 0.4 0.9 0.8 0.9 0.5 0 2.3 2 4.1 4.6 1.8 2.5 5.1 5.7 7.3 7.2 6.5 4.3 2.6 3.7 -8.3 -1.2 -5.5 -2.5 -10.7 -4.6 -11.6 -4.6 -1.7 0 -7.4 3 -8.6 4.5 -0.4 0.6 -0.5 1.9 -0.3 2.9 0.3 1.1 -0.6 3.4 -2.3 5.5 -3 3.9 -9.1 14.6 -9.1 15.9 0 0.5 1.5 2.9 3.4 5.3 5.6 7.2 5.3 7.9 -4.3 12.3 -4.5 2.1 -5.1 2 -5.1 -0.7 0 -3.2 -2.4 -6.2 -4.3 -5.4 -0.9 0.3 -2.3 1.7 -3.2 3.1 -1.5 2.2 -1.5 2.7 -0.1 5.4 1.5 2.9 1.5 3 -1 3.5 -2.5 0.4 -5.1 -2.2 -3.6 -3.8 0.4 -0.4 -0.2 -0.5 -1.3 -0.2 -1.1 0.3 -3.8 0.9 -6 1.3 -4.4 0.7 -15.5 5.9 -15.5 7.3 0 0.4 0.8 1.6 1.9 2.5 1.7 1.6 2.4 1.6 8.5 0.2 3.7 -0.9 7.9 -2.2 9.4 -3 4.3 -2.1 7.6 -3 6.8 -1.7 -1.3 2 2.2 1.2 3.7 -0.9 1.6 -2.3 11.3 -7 14.5 -7 1.2 0 2.2 -0.4 2.2 -1 0 -0.5 0.9 -1 2.1 -1 1.1 0 1.8 -0.4 1.4 -0.9 -0.3 -0.5 -0.1 -1.2 0.5 -1.6 0.5 -0.3 1 -0.2 1 0.4 0 0.6 0.7 0.8 1.5 0.5 0.8 -0.4 1.3 -1 1 -1.4 -0.3 -0.5 -0.1 -1.1 0.5 -1.5 0.5 -0.3 1 -0.2 1 0.4 0 0.6 0.7 0.8 1.5 0.5 0.8 -0.4 1.2 -1 0.9 -1.6 -0.3 -0.5 0 -0.9 0.7 -0.7 2.8 0.3 4 -0.1 3.3 -1.3 -0.5 -0.8 -0.2 -0.9 0.9 -0.5 1 0.4 2 0 2.5 -0.9 0.5 -0.9 1.2 -1.5 1.5 -1.5 2 0.3 2.8 0 2.3 -0.8 -0.3 -0.5 0.1 -1.2 1 -1.5 1 -0.4 1.3 -0.2 0.9 0.7 -0.4 0.6 0 0.4 0.9 -0.7 0.8 -1 2 -1.5 2.5 -1.1 0.6 0.3 1.4 -0.1 1.7 -1 0.4 -0.9 1.3 -1.4 2.1 -1.1 0.7 0.3 1.6 -0.1 1.9 -0.9 0.4 -0.8 1.1 -1.2 1.7 -0.8 0.5 0.3 1.5 -0.1 2.1 -0.9 1.1 -1.5 1.7 -1.8 3.7 -1.8 0.5 0 0.7 -0.5 0.3 -1.1 -0.4 -0.7 0 -0.9 1.4 -0.5 1.3 0.4 2.2 0.1 2.5 -0.9 0.4 -0.8 1.3 -1.2 2.2 -0.9 0.8 0.3 1.5 0.1 1.5 -0.5 0 -0.6 0.6 -1.1 1.4 -1.1 0.8 0 1.7 -0.7 2 -1.6 0.3 -0.8 1 -1.3 1.5 -1 0.5 0.3 1.4 -0.1 2.1 -0.9 0.7 -0.8 1.6 -1.3 2 -1 0.4 0.3 1.3 -0.2 2 -0.9 0.6 -0.8 2 -1.3 3.1 -1.1 1.1 0.2 1.8 0.1 1.5 -0.3 -0.2 -0.4 0.7 -1.2 2 -1.9 1.8 -0.8 2.2 -0.8 1.8 0 -0.4 0.7 0.3 0.2 1.5 -1.1 1.2 -1.2 2.6 -2 3.2 -1.7 0.5 0.4 0.9 0.1 0.9 -0.5 0 -0.6 0.5 -0.8 1 -0.5 0.6 0.3 1 0.1 1 -0.5 0 -0.6 0.5 -0.8 1 -0.5 0.6 0.3 1 0.1 1 -0.5 0 -0.6 0.5 -0.8 1 -0.5 0.6 0.3 1 0.1 1 -0.6 0 -0.7 0.3 -0.9 0.7 -0.6 0.3 0.4 1.2 -0.1 2 -1.1 0.8 -0.9 1.2 -1.1 0.8 -0.5 -0.4 0.8 -0.1 1.1 0.9 0.7 0.8 -0.3 1.7 -1.2 2 -2 0.3 -0.8 1.2 -1.1 2.2 -0.7 1.2 0.4 1.5 0.3 1 -0.5 -0.6 -1.1 0.5 -1.7 2.7 -1.3 0.4 0 0.7 -0.4 0.7 -1 0 -0.5 0.5 -0.7 1 -0.4 0.6 0.3 1 0.1 1 -0.5 0 -0.6 0.5 -0.8 1 -0.5 0.6 0.3 1 0.2 1 -0.3 0 -1 5.5 -3.6 6.5 -3.1 0.4 0.2 1.1 -0.4 1.6 -1.3 0.5 -0.9 1.6 -1.5 2.3 -1.2 0.7 0.3 1.6 -0.2 2 -1.1 0.3 -0.9 1 -1.3 1.6 -1 0.5 0.3 1 0.1 1 -0.4 0 -0.6 0.9 -1.1 2 -1.1 1.1 0 2 -0.4 2 -1 0 -0.5 1.2 -1 2.6 -1 1.4 0 2.3 -0.4 1.9 -1 -0.3 -0.5 0.3 -1 1.4 -1 1 0 2.1 -0.5 2.3 -1 0.2 -0.6 1.3 -1.2 2.5 -1.3 1.2 0 1.9 -0.5 1.7 -0.9 -0.5 -0.8 1 -1.2 3.5 -0.9 0.7 0.2 1 -0.2 0.6 -0.8 -0.6 -1.1 0.7 -1.5 3.4 -1.2 0.7 0.2 1 -0.2 0.7 -0.7 -0.3 -0.6 0.1 -1.3 1 -1.6 1 -0.4 1.3 -0.2 0.8 0.7 -0.4 0.6 0.3 0.2 1.5 -1 2.4 -2.5 3.6 -3 2.5 -1 -0.4 0.6 0.3 0.2 1.5 -1.1 1.2 -1.2 2.6 -2 3.2 -1.7 0.5 0.4 0.9 0.2 0.9 -0.3 0 -0.6 0.8 -0.9 1.8 -0.8 0.9 0 1.6 -0.5 1.4 -1.2 -0.1 -0.7 0.3 -1.2 1 -1.1 2.4 0.3 3.9 -0.1 3.4 -0.9 -0.3 -0.5 0.5 -0.8 1.7 -0.8 1.3 0.1 2.1 -0.4 1.9 -1.2 -0.1 -0.8 0.2 -1.1 0.7 -0.8 1.3 0.8 4.2 -0.4 3.5 -1.5 -0.3 -0.5 0.1 -0.7 0.8 -0.4 3.6 1.3 4.2 -1 5 -19.1 0.5 -12.2 1.2 -18.2 2 -19 0.8 -0.8 16.9 -2.7 43 -5.2 28.6 -2.8 42.6 -4.5 44.6 -5.6 1.6 -0.8 3.2 -1.2 3.6 -0.9 0.3 0.4 0.6 0.2 0.6 -0.4 0 -0.6 0.7 -1.4 1.6 -1.7 0.9 -0.3 1.2 -0.2 0.8 0.5 -0.3 0.6 1.2 0.1 3.5 -1 2.3 -1.2 4.1 -2.6 4.1 -3.1 0 -0.5 0.6 -0.7 1.4 -0.4 0.8 0.3 1.7 0 2.2 -0.7 0.5 -0.8 0.3 -1 -0.6 -0.4 -0.9 0.6 -1.1 0.4 -0.6 -0.4 0.5 -0.7 1.4 -1 2.1 -0.7 0.7 0.2 1.6 -0.2 1.9 -1 0.3 -0.8 1.5 -1.4 2.6 -1.4 1.1 0 2 -0.5 2 -1.1 0 -0.6 0.7 -0.8 1.6 -0.5 0.8 0.3 1.3 0.2 1 -0.3 -0.7 -1.1 2.2 -2.3 3.6 -1.4 0.6 0.3 0.8 0.2 0.5 -0.4 -0.4 -0.6 0.5 -1.5 1.9 -2.2 1.8 -0.8 2.3 -0.8 1.8 0 -0.4 0.8 0 0.8 1.5 0 1.1 -0.7 2.1 -1.6 2.1 -2.1 0 -0.5 0.7 -0.7 1.5 -0.4 0.8 0.4 1.7 -0.1 2.1 -0.9 0.3 -0.9 1.2 -1.3 2.1 -1 1.2 0.5 1.4 0.3 0.8 -0.7 -0.5 -0.8 -0.4 -1.1 0.3 -0.7 0.5 0.4 1.8 0.4 2.7 0.1 1.3 -0.5 1.4 -0.9 0.3 -1.5 -0.9 -0.7 -0.7 -0.8 0.7 -0.7 2.2 0.3 32.3 -14.6 34.1 -16.8 0.6 -0.7 1.3 -1.1 1.6 -0.8 0.8 0.7 5.8 -1.7 5.8 -2.8 0 -0.5 0.4 -0.7 0.9 -0.3 0.6 0.3 2 -0.5 3.2 -1.7 1.2 -1.3 1.9 -1.7 1.5 -1.1 -0.5 0.9 -0.2 1.1 0.8 0.7 0.9 -0.3 1.4 -1 1.1 -1.4 -0.3 -0.5 1.6 -2 4.1 -3.4 5.4 -3 6.1 -3.2 4.3 -0.9 -1.3 1.5 -1.2 1.5 0.9 0.2 1.2 -0.8 2.2 -2.1 2.3 -2.9 0 -1 0.2 -1.1 0.6 -0.2 0.5 1.4 18.3 -7.3 18.3 -9 0 -0.5 0.5 -0.6 1.2 -0.2 0.6 0.4 1.7 -0.1 2.5 -1.2 0.8 -1 1.6 -1.8 1.8 -1.6 1.2 0.6 2.6 0.1 2 -0.8 -0.3 -0.5 0 -0.7 0.8 -0.4 2.2 0.8 2.8 -2.2 0.9 -4.8 -6 -8 -7.8 -17.4 -4.9 -24 0.9 -1.8 2.1 -5.1 2.7 -7.3 1 -3.6 2.8 -7.9 5.1 -12.7 1.8 -3.6 0.4 -12.2 -4.6 -28.8 -0.9 -3 -2.1 -7.5 -2.7 -10 -0.6 -2.5 -1.4 -4.9 -1.8 -5.5 -0.4 -0.5 -1 -2.6 -1.4 -4.6 -1.4 -7.6 -10.3 -22.2 -19.8 -32.4 -4.9 -5.2 -6.3 -9.3 -5 -14.2 0.7 -2.4 1.9 -5.1 2.7 -6 5.1 -5.7 8.8 -10.2 10.7 -13.1 1.3 -1.7 3 -3.4 3.8 -3.7 1.9 -0.7 10 -11.4 10 -13.2 0 -0.7 0.4 -1.3 1 -1.3 1 0 5 -8 5 -10.1 0 -0.7 -1.1 -3.5 -2.4 -6.3 -1.3 -2.8 -3.2 -7.3 -4.1 -10.1 -4.9 -13.7 -14.6 -32.9 -23.9 -47 -4 -6 -8.9 -13.5 -10.9 -16.5 -7 -10.8 -9 -16.3 -8.5 -24.3 0.3 -6.9 3.9 -16.7 6 -16.7 0.4 0 0.8 -0.6 0.8 -1.4 0 -0.8 1.4 -2.3 3 -3.3 1.7 -0.9 3.2 -2.4 3.5 -3.3 0.5 -1.4 9.2 -7.7 12.7 -9.2 5 -2.1 20.8 -18.3 20.8 -21.4 0 -0.6 0.7 -1.4 1.5 -1.8 0.8 -0.3 1.5 -1.2 1.5 -2 0 -0.8 1 -3 2.3 -4.9 l2.3 -3.4 2.2 5.6 c1.1 3.1 2.4 7 2.7 8.6 0.7 3.4 7.5 17.3 10.5 21.6 1.1 1.5 2 3 2 3.5 0 0.4 1.1 2.2 2.5 4 1.4 1.9 3.9 6.4 5.6 10.1 2.8 6.3 3 7.4 2.6 14.8 -0.7 10.9 -1.1 13 -4.1 20.9 -7.5 19.9 -8.6 34.3 -5.1 68.4 0.3 2.8 4 11.2 10.9 25 5.8 11.4 11.6 23.2 13 26.2 2.6 6 7.9 22.3 9.1 28 1.8 8.6 9.4 21.9 23.5 41 3 4.1 6 8.3 6.5 9.3 1.7 2.9 10.8 16 13.3 19.2 2.5 3 4.8 4 5.8 2.4 0.3 -0.5 1.4 -0.9 2.5 -0.9 1 0 1.9 -0.5 1.9 -1.1 0 -0.5 0.4 -0.8 0.9 -0.5 0.5 0.3 1.4 -0.1 2.1 -0.9 0.7 -0.8 1.6 -1.2 2.1 -0.9 2.8 1.7 -0.2 -8.3 -10.3 -34.1 -2 -5 -9.1 -24.5 -13.4 -36.5 -1.3 -3.6 -2.4 -7.7 -2.4 -9.2 0 -3.4 -2.3 -14.6 -6 -29.8 -1.5 -6.3 -3.1 -13.5 -3.5 -16 -0.4 -2.5 -1.5 -7.6 -2.5 -11.5 -5.6 -22.3 -7.6 -35 -10.6 -67.1 l-1.7 -18.1 5.1 -6.9 c10.3 -13.9 16.2 -20.1 27 -28.3 10.5 -8 23.5 -14.1 31.1 -14.8 5.6 -0.5 5.7 -0.5 9 3.3 3.6 4 7.2 11.4 9.1 18.3 1.2 4.6 0.6 7.8 -3.3 16.1 -1.8 4.1 -7 12.9 -8.9 15.5 -2.8 3.6 -10.9 14.5 -14 18.9 -2 2.8 -4 5.6 -4.5 6.1 -6.6 8.1 -13.7 31 -12 39 2 9.3 7.8 26.3 14.1 41 1.7 3.8 6.7 18.6 10 29.2 2.3 7.5 6.2 15.3 7.7 15.3 0.7 0 1.5 -10.4 2.5 -32.1 0.7 -13.7 -0.4 -23.8 -4.1 -38.9 -0.8 -3 -2 -9.1 -2.8 -13.5 -1.5 -9 -1.2 -10.9 3.6 -19 2.8 -4.7 17 -19.5 18.8 -19.5 0.4 0 1.4 -0.6 2.1 -1.2 0.8 -0.7 2.1 -1.7 2.9 -2.3 6.3 -4.1 12.1 -8.7 16.2 -12.9 2.6 -2.7 5 -4.6 5.3 -4.3 0.4 0.4 1.3 7.1 2 14.9 0.8 7.9 1.6 15.7 2 17.3 1.3 6.5 4.5 16.5 5.4 16.5 0.4 0 2.9 -2.9 5.5 -6.5 2.5 -3.6 5.2 -6.5 5.9 -6.5 1.1 0 1.5 -4.5 2.1 -21.3 0.9 -25.5 -0.2 -42.3 -3.3 -52.4 -2.8 -9 -1.1 -13.4 7.7 -20.5 2.5 -2.1 8.6 -7 13.5 -10.9 4.9 -4 11.6 -9.9 14.8 -13.3 4 -4.2 5.8 -5.5 5.8 -4.3 0.1 14.6 1.1 36.1 1.9 39.2 0.6 2.2 1.2 8.5 1.5 14 0.2 5.5 0.2 8.4 0 6.5 -0.9 -7.5 -3.8 -20 -4.6 -20 -0.4 0 -0.8 0.7 -0.8 1.5 0 0.8 -0.8 1.5 -1.8 1.5 -2.5 0 -5.2 3.1 -5.2 5.8 0 1.3 -0.6 2.2 -1.6 2.2 -1.3 0 -1.5 1.4 -1.4 9.8 0.2 9.2 -1.1 17.9 -3.8 24.2 -0.5 1.4 -1.5 5 -2.1 8.1 -0.7 3.1 -2.7 8.9 -4.6 12.8 -1.9 4 -3.5 8.4 -3.5 9.9 0 1.4 -0.8 3.4 -1.7 4.4 -1.5 1.6 -1.5 2.4 -0.4 6.8 0.7 2.7 1 5.8 0.6 6.9 -0.3 1.1 -0.1 7.5 0.5 14.3 1.1 11.5 1 12.6 -0.9 16.8 -1.3 2.9 -1.7 5 -1.1 6 0.5 0.9 0.5 3.5 -0.1 6 -0.6 2.5 -0.8 5.3 -0.5 6.3 0.2 1 -0.2 4 -1 6.7 -1.2 4 -1.2 5.3 -0.2 7 1.1 1.6 1 2.4 -0.2 4.3 -3.4 5.3 -5 9.2 -4 9.5 2.3 0.8 3 5.1 1.5 9.5 -0.8 2.3 -1.7 7.8 -2 12.2 -0.6 6.9 -0.4 8.5 1.4 12 1.2 2.1 2.1 4.6 2.1 5.5 0 0.8 0.7 2.4 1.5 3.4 2.1 2.7 1.9 6 -0.6 10.7 -1.9 3.7 -1.9 4.2 -0.5 5.8 2.6 2.9 1.9 6.6 -2.4 12 -4.6 5.7 -5 8.3 -1.7 10.6 2.1 1.5 2.3 1.4 3.7 -0.6 0.8 -1.3 2.5 -4.5 3.8 -7.3 2.1 -4.9 2.2 -6 1.8 -26.6 -0.2 -11.8 -0.1 -19.2 0.1 -16.3 0.2 2.8 1 5.7 1.8 6.3 1.2 1 1.5 1 1.5 0.1 0 -0.7 0.5 -0.9 1 -0.6 0.6 0.3 1 0.1 1 -0.5 0 -0.6 0.5 -0.8 1 -0.5 0.6 0.3 1 0.1 1 -0.5 0 -0.6 0.5 -0.8 1 -0.5 0.6 0.3 1 0.1 1 -0.5 0 -0.6 1.1 -1.5 2.5 -2 2.3 -0.9 4.7 -4.3 7.1 -10.5 2.3 -5.7 6.2 -17 7.2 -21 2.9 -10.7 5.4 -19.4 6.7 -23.5 0.8 -2.5 1.5 -5.5 1.5 -6.7 0 -1.2 0.4 -2.4 0.9 -2.7 0.5 -0.3 1.2 -2.3 1.6 -4.3 0.4 -2.1 2 -7.8 3.6 -12.8 1.6 -4.9 4.2 -13.9 5.6 -20 2.6 -10.5 2.7 -12.3 2.8 -40 0.1 -17 0.7 -30.7 1.3 -33 0.6 -2.2 1.4 -6.7 1.8 -10 0.4 -3.3 1.1 -7.1 1.6 -8.5 0.5 -1.4 2 -7.1 3.3 -12.8 2.2 -9.5 2.7 -10.7 7.9 -17.2 3.1 -3.8 6.5 -7.4 7.6 -8 1.1 -0.6 2 -1.4 2 -1.8 0 -0.4 3.4 -4.2 7.5 -8.5 4.1 -4.2 7.5 -8.4 7.5 -9.3 0 -0.8 0.7 -1.7 1.4 -2 1.3 -0.5 9.6 -10.7 9.6 -11.8 0 -0.8 5.7 -7.1 16.5 -18.1 6.1 -6.1 12.9 -13.3 15.2 -16 2.3 -2.7 4.5 -4.6 4.9 -4.2 0.4 0.3 0.1 1.4 -0.7 2.4 -0.9 1.1 -1 1.4 -0.1 0.9 0.6 -0.4 1.2 -0.3 1.2 0.3 0 0.5 -0.4 1.2 -0.9 1.5 -0.5 0.3 -1.2 2.2 -1.6 4.2 -0.3 2 -1 4.4 -1.6 5.3 -2.7 4.8 -10.4 30.4 -11.3 37.6 -0.4 2.8 -0.9 6.8 -1.2 8.9 -0.2 2.2 -0.6 14.3 -0.9 26.9 -0.2 12.6 -0.7 23.2 -1 23.5 -0.3 0.3 -0.5 -3.6 -0.5 -8.6 0 -5.1 -0.2 -9.2 -0.5 -9.2 -0.3 0 -3.3 2.7 -6.6 6 -4.9 4.7 -5.8 6.1 -4.5 6.6 0.9 0.3 1.6 1.2 1.6 1.8 0 1.4 -9.3 13.3 -11.9 15.3 -1.4 1.1 -1.4 1.4 -0.2 2.2 2.1 1.3 0.3 3.2 -5.9 6.1 -4.8 2.3 -6.3 4.4 -3.7 5.3 0.6 0.2 -0.5 0.8 -2.5 1.2 -2.1 0.4 -3.8 1 -3.8 1.4 0 0.3 -1.7 1.5 -3.7 2.6 -8.8 4.4 -12.9 9.4 -9 10.8 1.2 0.5 1.2 0.6 -2.6 6 -2.6 3.6 -4 14.7 -2.7 21.5 0.8 4.4 0.7 5.9 -0.6 8.4 -1.1 2.1 -1.4 4.5 -1.1 7.2 0.5 3.8 -0.8 10.1 -3.5 16.6 -0.6 1.4 -2.1 6.1 -3.3 10.5 -1.3 4.4 -3.5 11.8 -5 16.5 -1.5 4.7 -3.4 11.9 -4.2 16 -1.4 7.2 -3.8 16.6 -6.8 26 -0.7 2.5 -2.1 8.9 -2.9 14.2 -3 18.3 -13.3 52.3 -17.3 57.2 -2.1 2.5 -2.4 3.6 -1.8 7.4 0.9 6.2 1.2 6.6 4.5 7.9 2.2 0.8 3.2 0.8 3.8 -0.1 2.2 -2.6 5.5 -11.5 6.2 -16.6 1 -6.4 2.2 -11.3 5.4 -22.5 1.3 -4.4 2.9 -10.5 3.6 -13.5 0.7 -3 2.8 -8.2 4.7 -11.6 1.8 -3.3 3.3 -7 3.3 -8.2 0 -3.4 3.2 -14.2 4.2 -14.2 2 0 1.8 3 -0.6 8.3 -2 4.7 -2.3 6.1 -1.4 8.5 0.9 2.4 0.4 4.8 -3.5 16.3 -4.2 12.5 -7.1 25.9 -5.7 25.9 0.4 0 1.3 -1.8 2 -4 2 -6 2.4 -4.1 0.5 2.6 -2.7 9.8 -7.6 25.6 -9.7 31.3 -1 3 -1.5 5.8 -1.1 6.2 2.2 2.1 23.8 15.9 24.9 15.9 0.7 0 6.9 -6 13.9 -13.2 13.7 -14.3 12 -11.7 25.8 -41.5 3.2 -6.7 5.7 -12.7 5.7 -13.4 0 -0.6 2.1 -5.8 4.6 -11.5 l4.6 -10.4 -2.2 -4.6 c-1.2 -2.6 -2.2 -5.5 -2.3 -6.4 -0.1 -1.5 -0.6 -1.6 -2.5 -0.9 -3 1.2 -3 1.2 -3.5 -0.8 -0.4 -1.4 -0.5 -1.5 -0.6 -0.2 0 0.8 -1.7 2.3 -3.7 3.3 -3.9 1.8 -6 1.3 -3.1 -0.8 0.9 -0.7 1.7 -1.7 1.7 -2.1 0 -0.4 -0.6 -0.3 -1.2 0.2 -0.7 0.6 -10.9 5.9 -22.6 11.8 l-21.2 10.7 -0.6 3.9 c-0.4 2.2 -1.1 4.2 -1.7 4.6 -0.6 0.4 -0.7 -0.4 -0.2 -2.3 1.3 -4.8 3.5 -14.6 4.6 -20.7 0.9 -4.4 1.5 -5.7 2.8 -5.5 0.9 0.1 9.8 -3.9 19.9 -9 13 -6.6 18.6 -10 19.4 -11.7 0.6 -1.4 3 -3.2 6 -4.4 2.7 -1.1 7 -3.4 9.5 -5.1 5.6 -3.8 14.8 -7.4 16.9 -6.6 0.8 0.3 6.1 -1.8 11.7 -4.8 5.6 -2.9 19.9 -10.3 31.7 -16.4 26.7 -13.7 33.2 -17.1 34.7 -18.3 1.2 -1.1 2.7 -5.9 1.9 -6.6 -0.3 -0.3 -3.8 1.3 -7.8 3.5 -6.6 3.6 -17.6 9.2 -61 31.5 -8 4.2 -14.9 7.3 -15.2 7 -1 -1 -5.3 0.7 -8 3.2 -1.5 1.4 -3.4 2.5 -4.3 2.5 -2.4 0 -11.2 4.6 -16.8 8.8 -2.7 2 -12.4 7.5 -21.5 12.2 -13.3 6.9 -16.6 9 -17.1 11 -0.5 1.6 -0.7 -0.1 -0.8 -4.2 -0.1 -6.2 0.8 -8.4 2.4 -5.8 0.4 0.6 1.5 0.5 3 -0.2 1.3 -0.6 2.2 -1.5 1.9 -1.9 -0.3 -0.5 0.3 -0.6 1.2 -0.2 1.3 0.5 1.5 0.3 0.9 -0.7 -0.5 -0.8 -0.4 -1.1 0.3 -0.7 1.5 1 4.3 -0.3 3.5 -1.6 -0.3 -0.5 -0.1 -0.7 0.4 -0.4 1.2 0.8 20.2 -8.6 21.5 -10.5 1.1 -1.9 1 -6 -0.2 -5.3 -0.6 0.4 -1 1.2 -0.9 1.8 0.3 2.9 -0.4 3.8 -5.3 6.3 -2.9 1.4 -4.7 2 -4 1.3 0.6 -0.7 1.2 -2.4 1.2 -3.6 0 -2 0.5 -2.3 2.7 -2.1 2.1 0.2 3 -0.3 3.7 -1.8 1 -2.2 5.5 -5.4 7.6 -5.4 0.6 0 0.8 0.5 0.5 1 -0.3 0.6 -1.6 1 -2.8 1 l-2.1 0 2.2 1.6 c2.5 1.7 4.2 1.1 4.2 -1.6 0 -1.4 1.9 -2.8 6.6 -5 6.1 -2.8 6.7 -2.9 7.9 -1.4 1.5 2.1 3.7 0.9 3.3 -1.8 -0.4 -3 2.5 -4.6 4.7 -2.5 1.9 1.9 4 2.3 2.9 0.5 -0.4 -0.7 -0.3 -0.8 0.4 -0.4 1.5 0.9 13.5 -5.2 12.7 -6.4 -0.3 -0.5 0 -0.7 0.8 -0.4 1.8 0.7 8 -3 6.9 -4.1 -0.4 -0.5 -0.1 -0.5 0.5 -0.1 1.4 0.8 41 -18.8 43.1 -21.4 0.8 -0.8 1.1 -0.9 0.7 -0.2 -0.6 1.1 -0.3 1.2 1.4 0.3 1.1 -0.7 2.1 -1.4 2.1 -1.7 0 -0.3 -0.5 -0.2 -1.2 0.2 -0.7 0.5 -0.8 0.3 -0.4 -0.5 0.5 -0.7 1.4 -1 2.2 -0.7 0.8 0.3 1.4 0.1 1.4 -0.4 0 -0.6 0.4 -0.9 0.8 -0.7 1.6 0.4 11.1 -4.6 10.5 -5.6 -0.4 -0.6 0 -0.8 0.9 -0.5 2.3 0.9 7.1 -2.5 9 -6.3 0.9 -1.9 4 -8.3 6.8 -14.4 2.9 -6 5.5 -11.2 5.9 -11.5 0.4 -0.3 3.4 -4.9 6.7 -10.3 3.2 -5.4 6.9 -11.4 8.2 -13.5 1.2 -2 3.2 -5.5 4.3 -7.7 1.2 -2.2 3.2 -5.3 4.4 -7 5.3 -7 17.3 -30.8 22 -43.5 3.2 -8.4 6.2 -11.8 17.5 -19.6 14.7 -10.1 24.6 -12.3 44.5 -9.9 7.9 1 25.7 0.7 26.8 -0.4 0.6 -0.6 2.1 -1.1 3.3 -1.1 1.2 0 3.5 -0.7 5 -1.5 1.6 -0.8 3.7 -1.5 4.6 -1.5 0.9 0 2 -0.5 2.3 -1 1.2 -2 2.3 -1 2.1 2 -0.1 1.6 -0.9 3.9 -1.8 4.9 -0.9 1.1 -2.4 3.4 -3.3 5.1 -0.8 1.6 -2 3 -2.5 3 -0.6 0 -1 0.4 -1 0.9 0 0.5 -2.2 4.7 -4.8 9.3 -6.6 11.4 -10.3 19.5 -12.5 27.4 -0.9 2.8 -2.2 6.4 -3 8 -2.7 5.3 -5.9 15.5 -5.3 17 0.3 0.8 0 1.4 -0.6 1.4 -0.6 0 -0.9 0.2 -0.7 0.5 0.3 0.2 5.8 -2.2 12.2 -5.4 6.4 -3.2 11.5 -6 11.2 -6.3 -0.3 -0.2 0.2 -0.5 1 -0.5 1.4 0 14.5 -6.2 15.5 -7.3 0.3 -0.3 4.1 -2.3 8.5 -4.4 16.7 -7.9 21 -10.1 21.3 -10.8 0.2 -0.5 1.1 -0.8 2 -0.8 1 0 2.8 -0.9 4.2 -2 1.4 -1.1 3.2 -2 4 -2 0.8 0 3.5 -1.1 5.9 -2.5 4.7 -2.7 5.5 -3 4.7 -1.6 -0.4 0.5 -2.7 2 -5.4 3.4 -2.6 1.3 -8.7 4.5 -13.7 7.1 -4.9 2.6 -15.5 8.2 -23.5 12.3 -8 4.2 -17.4 9.3 -21 11.3 -3.6 2 -11.2 6.2 -17 9.2 -5.8 3 -14.8 7.8 -20 10.5 -5.2 2.8 -18.5 9.6 -29.5 15.3 -22.6 11.6 -28.2 14.7 -30.8 16.8 -1.9 1.7 -5 7.3 -4.3 8 0.3 0.2 4.6 -1.8 9.8 -4.6 5.1 -2.7 19.7 -10.2 32.3 -16.7 24.4 -12.5 41.7 -21.4 55.5 -28.7 4.7 -2.5 23.4 -12.1 41.5 -21.3 18.2 -9.3 35.7 -18.4 39 -20.2 3.3 -1.8 16.8 -8.8 30 -15.4 13.2 -6.7 24.5 -12.5 25 -12.9 0.6 -0.4 8.2 -4.4 17 -8.9 8.8 -4.5 18.4 -9.5 21.3 -11.1 2.9 -1.6 16.9 -8.8 31 -16.1 34.9 -17.9 53.7 -27.6 66.2 -34.1 5.8 -3 23.1 -11.9 38.5 -19.8 15.4 -7.9 28.8 -15 29.8 -15.8 2.3 -2 2.2 -3.9 -0.3 -5.4 -2.1 -1.4 -2.5 -3.4 -1.1 -5.7 0.8 -1.3 1.2 -1.3 2.6 -0.1 1 0.8 2.1 2.4 2.6 3.7 0.5 1.3 1.4 2.3 2.2 2.3 1.6 0 10.7 -5.7 10.7 -6.7 0 -0.5 -0.9 -2.3 -2 -4.1 -1.1 -1.8 -2 -3.7 -2 -4.2 0 -2 3.1 -1 3.9 1.3 0.5 1.2 1.8 3 2.9 4 1.9 1.7 2.1 1.7 7.3 -0.3 5.8 -2.3 10.5 -4.8 13 -6.8 1.3 -1 2.2 -1 4.2 -0.1 2.1 0.9 3 0.9 4.2 -0.1 2.2 -1.9 1.8 -3 -1.5 -4.1 -1.6 -0.6 -3 -1.7 -3 -2.4 0 -0.8 -1 -2.1 -2.2 -2.9 l-2.1 -1.5 1.9 -4.3 c1.6 -3.6 7.5 -10.8 8.9 -10.8 0.6 0 -1.6 6.3 -2.7 7.7 -0.6 0.8 -0.4 2 0.6 3.5 0.9 1.2 1.6 3.9 1.6 5.8 0 4.2 1.4 6 4.7 6 3.2 0 6.3 -6.2 4.5 -9 -1.5 -2.4 -1.5 -3 -0.1 -3 0.6 0 3.1 -1.3 5.6 -3 2.4 -1.6 5.5 -3 6.8 -3 1.3 0 2.7 -0.5 3 -1.1 1.2 -1.8 -1.5 -6.4 -4.8 -8.5 l-3.2 -1.9 3.4 -0.3 c8.4 -0.8 18.4 6.6 21.4 15.9 3.9 12 0.8 23.8 -8.9 33.3 -6.3 6.3 -18 9.1 -28.2 6.7 -4.9 -1.2 -5.1 -1.2 -14.2 3.4 l-9.1 4.6 0.2 3.7 c0.2 2 0.6 4.2 1 4.7 0.4 0.6 0.7 1.2 0.7 1.5 -0.1 4.3 1.8 10.3 3.7 11.6 2.4 1.6 4.5 5.4 4.5 8.4 0 2.6 -4.4 7.5 -5.8 6.6 -0.7 -0.4 -1.2 -1.6 -1.2 -2.6 0 -1 -0.4 -2.1 -1 -2.5 -0.5 -0.3 -0.7 -1.3 -0.4 -2.3 0.3 -0.9 -0.5 0 -1.8 2 -1.3 2.1 -2.8 3.8 -3.3 3.8 -1.7 0 -3.5 -2.2 -3.5 -4.4 0 -1.5 -0.3 -1.7 -1.2 -0.8 -0.9 0.9 -0.8 1.6 0.5 3 0.9 1 1.7 2.2 1.7 2.7 0 0.4 -0.9 -0.2 -2 -1.5 -1.4 -1.6 -1.8 -3.1 -1.3 -4.9 0.9 -3.8 1.4 -4.5 2.4 -3 0.7 1.2 0.9 1.1 1 -0.1 0.1 -0.8 0.1 -1.8 0 -2.2 0 -0.5 0.4 -0.7 1 -0.5 1.7 0.3 2 -3.5 0.8 -9 -0.5 -2.6 -1 -5.6 -1 -6.5 0 -2.3 0 -2.3 -5.9 0.7 -5.4 2.7 -8 3.1 -9.7 1.4 -0.7 -0.7 -2 -0.8 -3.4 -0.3 -1.3 0.4 -2.6 0.8 -2.9 0.9 -0.3 0 -1.2 0.5 -2 1 -1.8 1.1 -7.4 4 -45 23.2 -15.7 8 -37.5 19.2 -48.5 24.8 -28.6 14.8 -62.8 32.1 -120 61 -27.5 13.9 -51.6 26.2 -53.5 27.4 -1.9 1.2 -4.6 2.4 -6 2.8 -1.4 0.3 -2.7 0.9 -3 1.2 -0.3 0.4 -9 5 -19.5 10.2 -107.3 54 -153 77.4 -157.3 80.6 -3.1 2.3 -3 2 3.9 -11.4 12.1 -23.3 14.8 -28 19 -33 2.5 -2.9 2.8 -3 3.4 -1.3 0.6 1.8 0.8 1.7 5.5 -0.7 2.7 -1.4 4.7 -3 4.4 -3.5 -0.3 -0.5 0 -0.9 0.7 -0.7 2.8 0.3 4 -0.1 3.3 -1.3 -0.5 -0.7 -0.2 -0.9 0.8 -0.6 1.8 0.7 8 -2.1 7.2 -3.3 -0.3 -0.5 0.2 -0.6 1 -0.3 0.9 0.4 1.8 -0.1 2.2 -1 0.3 -0.9 1 -1.3 1.5 -1 1.1 0.6 8 -2.6 7.5 -3.5 -1.1 -1.7 1.4 -2.9 8.8 -4.6 11.7 -2.6 16.6 -7.6 21.4 -22 4.2 -12.6 6.6 -18.4 11.9 -29.5 6.6 -13.8 7.3 -15.6 6.6 -16.4 -0.6 -0.5 -5.1 6.2 -9.3 13.7 -1.8 3.2 -2.5 3.8 -4.3 3.2 -4.5 -1.3 -5.2 -0.9 -9.2 5.7 -2.2 3.7 -4.3 6.7 -4.7 6.8 -0.3 0 -1.7 -1.7 -2.9 -3.7 -1.6 -2.5 -1.9 -3.8 -1.1 -4.1 0.7 -0.2 1.2 -1.2 1.2 -2.1 0 -1 2 -4.9 4.5 -8.7 2.4 -3.8 4.5 -7.2 4.5 -7.6 0 -0.8 -11.4 -4.6 -16.5 -5.4 -3.4 -0.5 -4.6 -0.1 -8.2 2.5 -5.4 3.9 -7.2 6.7 -7.7 11.9 -0.2 2.3 -1.8 6.7 -3.6 9.9 -1.8 3.1 -3.3 7.2 -3.5 9.1 -0.3 3.9 -2.3 5.8 -15 13.7 -5.5 3.5 -8.1 5.8 -8.3 7.3 -0.2 1.4 -2.5 3.7 -6 6.1 -8.4 5.8 -15.9 13.9 -19.2 20.9 -1.6 3.4 -3.6 6.5 -4.5 6.8 -1.9 0.8 -4.5 5.5 -4.5 8.2 0 1.1 -0.7 2.5 -1.5 3.2 -2.3 1.9 -9 14.2 -15.5 28.5 -2.3 5 -5.3 11.3 -6.7 14 -1.4 2.8 -3.4 7.3 -4.4 10.2 -1.7 5.2 -10.8 21.1 -14 24.8 -0.9 1.1 -4.2 6.4 -7.2 11.7 -5.1 9 -13.1 20.2 -29.2 40.8 -3.6 4.7 -8.4 10.8 -10.5 13.6 -2.1 2.8 -5 5.8 -6.4 6.8 -4.5 2.9 -5.9 10.6 -2 10.6 0.8 0 1.4 0.9 1.4 2 0 1.2 0.7 3.4 1.5 5 1.6 3.1 3.5 4 3.5 1.7 0 -0.7 2.2 -3.4 4.9 -6 3.6 -3.4 5.2 -5.7 5.7 -8.4 0.4 -2.1 1.9 -5.4 3.4 -7.3 1.5 -1.9 3.5 -5.1 4.5 -7 0.9 -1.9 3.9 -6 6.5 -9 2.6 -3 5.5 -7.1 6.5 -8.9 3.5 -6.9 9.1 -13.3 16.8 -19.2 4.4 -3.3 8.2 -5.8 8.5 -5.5 1.3 1.4 0.1 7.1 -2.3 10.5 -1.4 2 -6.8 8.6 -12 14.6 -5.1 6.1 -10 12.4 -10.8 14 -5.1 10.8 -7.6 16.3 -8.2 18.5 -1.2 3.9 -4.2 7.7 -9.1 11.1 -3.3 2.4 -4.7 4.3 -5.5 7.3 -0.6 2.2 -2.5 5.4 -4.3 7 -1.7 1.7 -7.4 7.2 -12.6 12.1 -11 10.5 -16 17.3 -16 21.9 0 3.4 -3.6 11.8 -7.3 16.9 -4.8 6.7 -23 24.7 -25 24.7 -1.6 0 -7.6 -3 -14.8 -7.5 -3.1 -1.9 -17.5 -12.9 -27.4 -21 -5.5 -4.4 -12.5 -9.8 -15.5 -12 -3 -2.1 -6.7 -4.9 -8.1 -6.2 -2.9 -2.7 -2.9 -4 0.4 -13.3 0.9 -2.4 1.5 -4.6 1.3 -4.8 -0.3 -0.3 -8 13.4 -13.4 23.9 -1.2 2.5 -2.7 7.5 -3.2 11.1 -1.1 7.3 -3.9 14.7 -7.6 19.5 -1.6 2.1 -2 3.3 -1.2 3.3 2.5 0 3.8 -1.7 6.3 -7.9 1.4 -3.5 3.6 -7.9 4.9 -9.9 1.3 -2.1 2.7 -4.8 3.1 -6.2 1.1 -3.7 2.3 -4.9 4.5 -4.3 1.2 0.3 2 1.4 2 2.7 0 3.4 2 5.2 8.8 8 3.4 1.5 8.3 4.2 10.9 6.2 2.5 1.9 6.2 4.3 8.2 5.4 5.3 2.7 8.5 6.4 7.8 9.2 -0.8 3.1 -5.6 5.8 -10.5 5.8 -6.6 0 -6.9 1.9 -1.6 8.4 5.4 6.5 5.3 8.6 -0.4 8.6 -6.1 0 -13 2.8 -13.4 5.3 -0.2 1.6 -1.5 2.6 -5 3.8 -2.6 0.8 -5.8 2.7 -7.1 4.1 -1.3 1.4 -3.8 2.9 -5.5 3.3 -3.5 0.7 -4.6 1.9 -4.7 5 0 1.3 -1.2 2.4 -4 3.5 -4.4 1.7 -10.5 6.7 -10.5 8.7 0 2.1 -9.1 5.5 -13.1 4.9 -4.7 -0.7 -13 1.5 -19.9 5.3 -3.9 2.2 -6.9 3.1 -10.2 3.1 -3.4 0 -5.4 0.6 -7.5 2.4 -1.5 1.3 -4.3 2.7 -6.2 3.1 -1.8 0.4 -4.9 1.8 -6.8 3.1 -1.9 1.3 -4.3 2.6 -5.4 2.9 -1.9 0.6 -2 2.2 -0.5 7.5 0.1 0.6 -0.9 1 -2.7 1 -1.3 0 -9.7 -7.8 -9.6 -8.9 0 -0.7 10.6 -8.7 14.7 -11.2 l2.7 -1.6 -0.3 -18.3 c-0.3 -19.4 -1 -23.4 -3.2 -18.1 -0.7 1.7 -1 4 -0.7 5.2 0.3 1.1 -0.5 5.5 -1.9 9.7 -2.8 8.7 -2.6 11.4 1.1 13 1.8 0.8 2.5 1.9 2.5 3.9 0 3.6 -0.3 3.8 -7.7 9.8 -11 8.8 -14 11 -14.8 11 -0.5 0 -1.4 -2.2 -2 -5 -0.6 -3.3 -1.5 -5 -2.5 -5 -2.2 0 -6 7.6 -6.7 13.4 -0.5 4.1 -1.3 5.6 -4.9 9.2 -2.4 2.4 -4.4 4.9 -4.4 5.6 0 0.7 -1.6 2.1 -3.6 3.1 -2.7 1.2 -4.4 3.2 -6.5 7.4 -2.9 5.7 -7.1 9.8 -12.1 11.7 -1.9 0.7 -2.8 1.8 -3 3.8 -0.2 2.2 -1 3 -3.6 3.8 -3.1 0.9 -3.3 1.2 -2.8 4.3 0.4 2.8 -0.3 4.4 -4.1 10 -2.5 3.7 -5.4 7.3 -6.4 8 -1.3 0.9 -1.6 2 -1.2 4.7 0.4 2.6 0.1 4.1 -1.1 5.4 -1.4 1.6 -1.7 3.5 -1.4 10.8 0.2 7 0 8.8 -1.1 8.8 -0.8 0 -1.9 -2 -2.6 -4.8 -1.1 -4.4 -8.8 -16.8 -13.8 -22.4 -2.2 -2.5 -3.7 -2.2 -3.7 0.8 0 1.1 -1.1 4.1 -2.4 6.7 -2.3 4.3 -2.4 5.6 -2.1 16.7 0.2 6.6 0.4 12.6 0.4 13.3 0.1 0.6 1.3 1.2 2.9 1.3 1.5 0 4.3 0.5 6.2 1.2 3.1 1.1 3.6 1 5.7 -1 2.6 -2.7 6.5 -3 8.4 -0.7 1.1 1.3 0.9 1.9 -1.3 3.7 -1.5 1.2 -2.9 3.7 -3.3 5.5 -0.4 1.8 -2.1 5.2 -3.8 7.5 -3.8 5.2 -7.2 11.9 -12.7 24.9 -3.5 8.5 -4 10.8 -4 17.3 0 4.1 0.7 10.8 1.7 15 1.6 7.5 1.6 7.6 -0.5 10.5 -1.2 1.6 -2.2 3.3 -2.2 3.8 0 1.5 4.9 3.2 9 3.2 5.4 0 8.6 1.4 9.3 4.2 0.8 2.9 -1 4.7 -6.5 6.8 -2.4 0.9 -4.3 2.2 -4.3 3 0 3.1 10.2 1.2 24.5 -4.5 12.1 -4.9 19.9 -7.1 36.5 -10.5 2.8 -0.6 11.3 -1.2 18.9 -1.3 l13.9 -0.3 6.6 3.2 c3.6 1.8 8 4.7 9.6 6.4 4 4.2 7.6 6 12.3 6 2.1 0 4.2 0.4 4.8 0.9 2.5 2.5 10.9 4.2 24.4 5 18.1 1.1 27.3 0.4 27.8 -2.3 0.4 -1.7 -0.1 -1.8 -6.5 -1.1 -7.6 0.7 -14.4 -1 -19.8 -5 -1.6 -1.3 -4.2 -2.7 -5.8 -3 -1.5 -0.4 -3 -1.1 -3.3 -1.6 -0.3 -0.5 -1.3 -0.9 -2.2 -0.9 -0.9 0 -3.2 -1 -5.1 -2.3 -1.9 -1.2 -5.1 -3.1 -7 -4.2 -2 -1.1 -3.7 -2.9 -3.9 -3.9 -0.4 -1.8 0.1 -1.9 8.6 -1.3 7.7 0.5 9.3 0.3 12.1 -1.4 1.7 -1 3.7 -1.9 4.4 -1.9 2.6 0 5.7 -4.5 5.7 -8.3 0 -2.7 0.5 -3.9 2.3 -4.8 1.2 -0.7 2.4 -1.5 2.7 -2 0.3 -0.4 2.5 -1.8 5 -3.1 3.7 -1.9 4.6 -2.9 5.1 -5.8 0.3 -1.9 1.3 -4.9 2.2 -6.7 0.9 -1.8 1.7 -4.1 1.7 -5.1 0 -1.1 0.7 -3.6 1.5 -5.5 0.8 -2 1.5 -5.4 1.5 -7.5 0 -2.5 0.9 -5 2.5 -7.2 2.8 -3.8 3.4 -9.5 1 -10.4 -2.7 -1 -1.6 -3.4 2.8 -6.4 2.3 -1.7 4.8 -4 5.5 -5.3 0.7 -1.3 4 -4.1 7.4 -6.2 5.4 -3.4 6 -4 5.5 -6.5 -0.3 -1.6 0 -3.5 0.9 -4.6 0.8 -1.1 1.4 -2.8 1.4 -3.7 0 -0.9 1.1 -4.1 2.5 -7.1 1.4 -2.9 2.5 -7 2.5 -9 0 -5.4 2.8 -9.5 7.5 -11.1 3.2 -1.1 4.1 -1.9 4.3 -4 0.2 -1.8 1.3 -3.2 3.3 -4.3 3.8 -1.9 5.9 -1.2 8.1 2.7 1.3 2.2 2.4 3 4 2.7 2.4 -0.3 2.5 -0.6 1.5 -7.9 -0.6 -4.5 -0.5 -4.6 2.8 -6.2 2.8 -1.3 3.5 -2.3 3.5 -4.5 0 -2.4 0.7 -3.1 5 -5 4 -1.8 5.5 -2 7.1 -1.1 3.6 1.9 5.2 0.4 4.5 -4.2 -0.4 -2.2 -1.3 -5.1 -2.2 -6.4 -1.7 -2.6 -1.9 -2.3 5.4 -6.2 5.6 -3 8.7 -2.9 13.3 0.3 4.8 3.3 7.5 2.9 7.2 -1.1 -0.1 -1.7 -1.1 -3.7 -2.3 -4.7 -4.4 -3.6 -2.1 -4.8 9.8 -4.8 4.8 -0.1 10.7 -0.2 13 -0.3 2.4 -0.1 4.6 0.1 4.9 0.6 0.2 0.4 2.1 0.4 4.2 0.1 3.2 -0.5 4.7 0 11.4 4.1 4.2 2.5 8.4 5.6 9.2 6.8 1.3 1.9 1.3 2.3 -0.7 4.4 -2.2 2.4 -2.4 3.7 -1.8 14.8 0.4 6.3 -2.2 16.6 -4.5 18.5 -1 0.8 -1.5 0.3 -2 -2.2 -1.2 -5.8 -1.5 -6.6 -3.5 -7.1 -1.3 -0.3 -2.1 -1.7 -2.5 -4.3 -1.1 -6.6 -2.3 -8.7 -4.6 -8.1 -1.9 0.5 -2.1 0.2 -1.6 -2.2 0.8 -3.7 -0.2 -4.5 -2.5 -2.4 -2.2 2 -2.5 7.3 -0.3 7.3 2 0 1.9 1.2 -1 10.2 -1.3 4.2 -2.5 9.8 -2.6 12.5 -0.3 7.9 2 22.5 4.1 26.1 1.2 2 2.4 6.7 3 12.3 1.7 14.8 5 18.1 12.5 12.4 3.6 -2.8 7.7 -2.7 9.4 0.3 1.2 2.2 3.1 0.6 3.1 -2.7 0 -4.2 2.7 -12.5 5.1 -15.5 1.5 -1.9 2.9 -2.6 4.7 -2.4 2.1 0.3 2.8 1.2 4.4 6.4 l1.9 6.2 6.4 -6.5 c3.5 -3.6 6.9 -6.3 7.6 -6.1 0.7 0.2 1.7 1.9 2.1 3.6 1 3.7 1.5 3.8 8.6 1.7 3.8 -1.2 5.7 -1.3 7.1 -0.5 2.8 1.4 11.6 1.2 18.6 -0.5 6.7 -1.6 12.4 -1.9 14.3 -0.7 1.9 1.3 -0.6 3.1 -14.8 10.7 -13.9 7.4 -15.3 8.4 -18.6 13.7 -1.4 2.2 -4 4.4 -6.6 5.6 -7.2 3.2 -19.8 17.5 -19.8 22.4 0 2.4 3.5 2.4 8 -0.1 1.9 -1.1 8 -4.2 13.5 -6.9 5.5 -2.7 13.6 -7.6 18 -10.9 9.8 -7.4 11.3 -8 12.5 -5 2.1 4.8 4.2 16.8 5 28.7 2.9 39.7 7.7 62.7 15.7 74.9 2.1 3.3 5.9 10.5 8.3 16.2 4.3 9.8 5 10.8 16.4 22.3 11.7 11.8 12.1 12.4 18.5 25.6 6.5 13.5 6.5 13.5 6.6 22.5 0 7.3 0.5 9.9 2.3 13.3 1.2 2.3 2.2 5.2 2.2 6.3 0 1.1 0.7 2.2 1.6 2.6 1 0.4 1.4 1.3 1 2.8 -0.8 3 2.4 7.1 4.8 6.2 1.2 -0.5 1.5 -1.3 1 -3.2 -0.5 -2.1 -0.3 -2.5 1.5 -2.5 1.2 0 2.1 -0.5 2.1 -1.1 0 -0.5 1.4 -1.5 3 -2.1 2 -0.7 3.2 -1.9 3.6 -3.6 1.9 -9.5 3.8 -16.2 5.8 -21.1 1.3 -3.1 3.1 -9.2 4.1 -13.5 0.9 -4.4 2.8 -9.6 4.1 -11.6 1.4 -2.1 2.4 -5.1 2.4 -7.1 0 -1.9 0.3 -7.5 0.6 -12.4 1 -15.3 -2.9 -32.5 -7.8 -34.4 -1.3 -0.5 -3 -1.6 -3.7 -2.5 -0.7 -0.9 -2.2 -1.6 -3.2 -1.6 -1 0 -4.2 -0.9 -7.1 -1.9 -2.9 -1.1 -8.3 -2.2 -12 -2.6 -8.3 -0.8 -8.2 -0.7 -13.9 -15.3 -2.8 -7.2 -4.9 -20.9 -4.9 -31.9 0.1 -11.3 2.2 -34.2 3.4 -36.2 0.6 -0.9 3.1 -20.7 4.2 -32.6 0.4 -4 0 -7.7 -1 -11 -0.8 -2.7 -1.4 -5.1 -1.1 -5.3 0.5 -0.6 4.7 1.8 7.3 4.1 1.2 1.1 2.2 1.7 2.2 1.3 0 -1.2 -3.1 -7 -5.7 -10.3 -1.3 -1.8 -2 -3.3 -1.6 -3.3 0.9 0 7 9.4 9.7 14.8 3 5.9 5.6 15.5 7.6 28.2 2.1 12.5 5.2 28.5 7 35 0.5 1.9 2.1 8.2 3.6 14 3.7 15.3 3.9 16 6.3 21.9 1.2 2.9 2 5.5 1.8 5.7 -0.2 0.2 -1.6 -2.6 -3 -6.3 -1.5 -3.8 -3.6 -9 -4.6 -11.8 -1.6 -3.9 -2 -4.4 -2 -2.4 -0.1 3.6 3 12.8 8.8 25.5 4.9 11 10.1 25.4 10.1 28.1 0 0.8 0.4 1.2 0.9 0.9 0.4 -0.3 2.3 8.3 4.1 19.2 3 18.1 3.3 21.6 3.4 43.4 0 13 -0.2 23.4 -0.6 23.2 -2 -1.2 -4.7 12.3 -3.3 16.5 1.1 3.6 3.5 2.5 3.5 -1.6 0 -2.1 0.5 -4.5 1.1 -5.3 0.8 -1.2 0.9 -0.9 0.5 1.2 -0.3 1.5 -0.2 3 0.4 3.3 0.5 0.3 1 1.7 1 3 0 2.4 3.3 13.9 5.1 18 2.6 6 5.9 15.8 5.9 17.8 -0.1 1.2 -1.4 6 -3 10.7 -2.5 7.4 -2.8 7.9 -2.3 3.8 0.3 -2.6 0.2 -5.5 -0.1 -6.5 -0.7 -1.6 -0.9 -1.5 -2.1 0.7 -0.7 1.4 -2.4 7.9 -3.8 14.5 -2.8 13.6 -4.1 23.3 -2.7 19.8 1.3 -3.3 2 -2.8 1.4 1 -0.4 1.7 -1.5 3.9 -2.5 4.9 -3.2 2.7 -2.2 7.4 5.9 26.8 l7.7 18.5 5.7 3.7 c3.6 2.4 6 4.8 6.4 6.3 0.3 1.4 0.9 2.5 1.3 2.5 0.3 -0.1 2.9 -2.1 5.6 -4.6 l5 -4.4 -3.1 -2.8 c-1.7 -1.5 -7.2 -5.3 -12.2 -8.5 -5.1 -3.2 -9.2 -6.4 -9.2 -7.2 0 -0.9 0.9 -0.6 2.7 1.1 1.5 1.3 4.5 3.3 6.7 4.3 2.3 1 4.7 2.5 5.5 3.4 0.7 1 1.9 1.7 2.5 1.7 0.6 0 3.6 1.7 6.6 3.8 l5.5 3.9 -0.1 5.4 c-0.3 18.2 -3.9 45.2 -6.7 50.8 -0.9 1.9 -1.7 4 -1.7 4.8 0 1.2 -0.9 3.4 -3.2 7.3 -0.9 1.7 -1.5 3.1 -2.4 5.7 -0.4 1.5 -0.6 1.5 -1.5 0.3 -0.8 -1.1 -0.8 -0.8 -0.3 1 0.4 1.4 0.8 5.7 1 9.5 0.3 9.6 1.5 18.4 2.5 19.1 0.5 0.3 0.9 2.4 0.9 4.7 0 2.3 0.7 5.3 1.5 6.7 2.1 3.7 2.3 4.2 3 8.3 0.3 2.1 1.4 4.6 2.3 5.5 1 1 2.5 3.4 3.5 5.4 2 4.3 4.6 5.5 13.7 6.3 2.5 0.3 6.1 0.7 8 0.9 15.3 2.2 18.6 2.9 19.4 3.7 0.6 0.5 2.3 0.9 3.8 0.9 1.6 0 3.6 0.4 4.6 0.9 0.9 0.4 5.1 1.9 9.2 3.1 10.4 3.2 12.9 4.6 17.5 9.3 2.3 2.3 7.4 7 11.5 10.4 4.1 3.4 10.4 9.4 14 13.4 12 13.2 18.5 19.5 28.5 27.9 5.5 4.7 10.2 8.7 10.5 9.1 0.3 0.3 1.5 1.1 2.8 1.8 1.2 0.6 2.2 1.7 2.2 2.4 0 0.7 -5.6 6.9 -12.4 14 -12.8 13.3 -15.1 14.6 -17.9 10.5 -0.8 -1.3 -3.3 -4.2 -5.6 -6.6 -2.2 -2.4 -4.1 -5.1 -4.1 -6.1 0 -3.4 -5.9 -14.6 -9.5 -17.9 -2.4 -2.3 -3.7 -4.6 -4.1 -7.3 -0.7 -4.2 -3.8 -8.3 -7.2 -9.4 -1.2 -0.3 -2.2 -1.1 -2.2 -1.6 0 -0.5 -0.7 -0.9 -1.5 -0.9 -0.9 0 -1.5 0.9 -1.5 2.4 0 1.4 -0.4 2.7 -0.9 3 -1.5 1 -2.1 8.1 -1.1 14.4 1.2 7.4 5.4 21.5 7.6 25.4 0.9 1.7 1.4 4.9 1.3 8 -0.2 6.3 0.9 10.5 4.5 18.2 1.7 3.6 2.5 6.5 2.1 7.7 -0.4 1.2 -3.1 4.4 -6.1 7.3 l-5.5 5.2 -6.7 -1.3 c-3.7 -0.7 -7.6 -1.8 -8.7 -2.3 -1.1 -0.5 -4 -1.2 -6.5 -1.5 -9 -1.3 -10.4 -2.2 -13.7 -9.4 -1.7 -3.6 -4.8 -10.2 -6.8 -14.6 -2 -4.4 -5.1 -10.9 -6.7 -14.5 -3.1 -6.6 -7.3 -12 -9.3 -12 -1.4 0 -12.5 -9.8 -12.5 -11 0 -0.5 -1.3 -3.7 -2.9 -7.2 -1.6 -3.5 -3.6 -8.8 -4.5 -11.8 -2.4 -7.9 -5.7 -11 -11.8 -11 -2.6 0 -6.6 0.7 -8.8 1.6 -2.6 1 -5.2 1.4 -7.5 1 -2.1 -0.4 -4.7 -0.1 -7.1 0.9 -2 0.8 -6.2 1.5 -9.3 1.5 -3.1 0 -8 0.3 -10.8 0.6 l-5.2 0.7 2.5 3.1 c1.4 1.7 3.6 4.4 4.9 6 2.4 2.9 2.4 3 0.7 6 -0.9 1.7 -2 3.3 -2.4 3.4 -1.1 0.5 -1 6 0.1 6.6 0.4 0.3 1.1 1.9 1.4 3.6 0.4 1.7 1.7 5.4 3.1 8.3 6.8 14.6 7 16 2.7 20.1 -2.5 2.4 -3.5 2.7 -6.3 2.2 -1.8 -0.4 -5.3 -0.9 -7.7 -1.2 -2.4 -0.2 -5.1 -0.9 -6 -1.3 -0.9 -0.5 -4 -1.2 -6.8 -1.6 -2.9 -0.4 -5.5 -1.1 -5.9 -1.6 -0.3 -0.5 -1.8 -0.9 -3.5 -0.9 -1.6 0 -5.6 -0.9 -8.9 -2.1 -6.3 -2.2 -11 -1.9 -7.9 0.4 1.5 1.2 14.2 25.8 13.5 26.4 -0.3 0.4 -10.8 -18.3 -13.8 -24.7 -4.7 -10.1 -7.8 -19.3 -8.8 -26.5 -1.7 -11.4 -1.5 -11.1 -5.4 -8.1 -1.9 1.4 -3.8 2.6 -4.1 2.6 -1.1 0 0.6 -6 3.6 -12.8 l2.9 -6.5 -3.1 -6 c-1.7 -3.2 -4 -7.5 -5.2 -9.6 -1.1 -2 -4 -7.4 -6.4 -12 l-4.4 -8.4 2.8 -3.1 c7 -7.6 6.8 -7 4.4 -11.9 -1.1 -2.4 -2.1 -5.7 -2.1 -7.3 0 -3.3 -4.2 -12.8 -9.4 -20.8 -2 -3.1 -3.4 -5.6 -3.1 -5.6 0.7 0 4.5 3.9 4.5 4.5 0 0.3 3 4.6 6.8 9.5 3.7 4.9 7.5 10 8.5 11.4 1 1.4 2.2 2.6 2.8 2.6 0.5 0 2.5 -3.3 4.5 -7.2 1.9 -4 5.3 -10.4 7.4 -14.3 2.2 -3.8 4.3 -7.7 4.7 -8.5 0.4 -0.8 3.3 -5.9 6.5 -11.3 8.2 -13.8 8.2 -13.7 -2.4 -16.4 -8.3 -2.1 -23.5 -8.3 -26.8 -10.8 -0.8 -0.7 -3.1 -1.8 -5 -2.5 -1.9 -0.8 -5 -2.5 -6.9 -3.7 -1.9 -1.3 -4 -2.3 -4.7 -2.3 -0.7 0 -1.9 -1 -2.5 -2.2 -0.6 -1.3 -1.3 -2.5 -1.6 -2.7 -0.6 -0.8 -19.3 18.2 -19.3 19.6 0 0.8 2 3.9 4.5 7.1 7.4 9.4 8.7 11.2 8.1 11.2 -0.6 0 -11.4 -13.4 -14.6 -18.2 -1.4 -2.1 -3.1 -3.8 -3.7 -3.8 -0.7 0 -3 -2.2 -5 -4.9 -2.1 -2.6 -5.7 -6 -8.1 -7.5 l-4.4 -2.6 0.7 -6.4 c0.5 -4.2 0.3 -6.6 -0.4 -7 -2.7 -1.7 0.5 -21 4.9 -29.7 2.3 -4.4 6.7 -5.9 10.7 -3.8 2.3 1.3 2.7 1.1 5.5 -2.1 7.9 -9.2 9.9 -11 12.2 -11 1.6 0 3.2 -1.1 4.7 -3.2 2.4 -3.5 9.9 -10.7 11.1 -10.8 0.4 0 3.3 -2.2 6.3 -5 3 -2.7 7.3 -6.1 9.5 -7.6 2.2 -1.5 7.2 -6.5 11.1 -11.1 4.7 -5.6 8.9 -9.4 12.5 -11.4 7.4 -4.2 20.7 -17.9 19 -19.6 -1.1 -1.2 -5 1.7 -14.1 10.3 -4.9 4.7 -12.1 10.6 -16 13.1 -3.8 2.5 -11.1 8.6 -16.1 13.4 -12.5 12.2 -14.1 12 -9.3 -1.1 1.6 -4.6 3.9 -12.2 5 -16.9 2.8 -11.9 8.2 -22.6 18.9 -37.1 11.5 -15.6 15 -22.3 15 -28.8 0 -5.4 1.9 -8.9 4.3 -7.9 1.1 0.4 2.2 -0.2 3.2 -1.6 2.1 -3 1.9 -4 -0.7 -3.1 -1.2 0.3 -5.6 0.7 -9.7 0.8 -5 0.2 -10.4 1.2 -15.9 2.9 -4.6 1.5 -9.4 2.7 -10.8 2.7 -4.1 0 -8 2.7 -10.8 7.4 -1.4 2.5 -5.7 8.3 -9.5 12.9 -11.7 14.3 -17.8 23 -23.9 34.3 -15.5 28.6 -21.8 40.3 -23.8 44.4 -3.8 7.8 -6.3 17.6 -8.5 32.8 -1.2 8.6 -3.5 19.3 -5.5 25.6 -1.9 6 -3.4 11.9 -3.4 13.1 0 2.4 5.1 7 13 12 2.5 1.5 6.3 4.4 8.5 6.4 2.2 2 5.1 4.4 6.5 5.4 1.4 1 1.8 1.6 0.8 1.3 -3.9 -1.2 -2.7 1.9 2.8 7.3 8.4 8 17.1 18.2 24.2 28.3 3.4 4.8 6.2 8.9 6.2 9.1 0 0.3 -0.8 0.3 -1.7 0.1 -1 -0.2 -3.1 0.7 -4.8 2.1 -2.8 2.3 -2.9 2.6 -1.6 5.7 0.7 1.8 1.9 7.1 2.7 11.8 1.9 10.9 2.7 13.6 7.7 24.4 l4.1 8.8 -2.3 6.2 c-1.3 3.3 -2.8 8.3 -3.3 11.1 -1.2 6.2 -3.4 10.5 -5.3 10.5 -0.8 0 -1.5 0.5 -1.5 1.1 0 0.6 -1 0.9 -2.2 0.8 -5.3 -0.7 -5.5 1.7 -0.6 8.5 2.4 3.3 2.7 4.7 2.4 8.8 -0.2 2.7 0.3 7.7 1.1 11.1 0.8 3.4 1.4 8.3 1.4 10.8 -0.2 6.3 1.9 8.1 8.3 7.3 5.9 -0.8 9.3 -3.5 12 -9.3 2.4 -5.1 6.6 -11.4 7.2 -10.8 1.1 1 4.4 21.4 4.3 25.6 -0.2 5.1 1.8 20.5 3.1 23.6 0.5 1.1 1.2 3.8 1.5 6 0.8 4.8 2.3 7.8 7 13.9 l3.6 4.8 -3.1 4.9 c-1.8 2.7 -4.1 8.4 -5.2 12.6 -2.2 8.6 -3.2 10.9 -7.9 17.3 l-3.3 4.5 -0.9 -3.5 c-0.4 -1.9 -1.2 -9.2 -1.6 -16.1 -0.6 -8.2 -1.4 -13.5 -2.4 -15.5 -1.4 -2.5 -1.6 -2.6 -1.8 -0.9 -0.1 1.1 -0.5 -1.8 -1 -6.5 -0.4 -4.7 -1.4 -16.2 -2.3 -25.6 -1.4 -16.4 -2.3 -22.4 -3.3 -22.4 -0.2 0 -1.7 0.7 -3.4 1.5 -2.8 1.5 -3.2 1.4 -5.7 -0.4 -6.8 -5 -18.2 -17.9 -22.1 -25.3 -2.3 -4.2 -4.1 -8.1 -4.1 -8.6 0 -0.5 -2.4 -6.1 -5.4 -12.3 -2.9 -6.3 -6.6 -14.1 -8.1 -17.4 -1.5 -3.3 -3.4 -7.4 -4.2 -9.1 -1.3 -2.9 -1.2 -3.4 0.8 -7 1.2 -2.2 2.9 -4.7 3.7 -5.6 1.4 -1.6 1 -2.3 -3.9 -7.6 -3 -3.2 -7.9 -8.7 -10.9 -12.2 -13.8 -16 -12.9 -15.3 -18.4 -14.6 -2.7 0.3 -5.2 1 -5.5 1.5 -0.4 0.5 -2 1.3 -3.6 1.7 -1.7 0.4 -3.4 1 -4 1.4 -0.5 0.4 -2.3 1 -4 1.4 -2.7 0.6 -6.2 2 -11.7 4.7 -1 0.5 -2.4 0.9 -3.1 0.9 -0.8 0 -1.9 1.2 -2.6 2.6 -0.6 1.5 -1.4 2.4 -1.7 2.1 -0.3 -0.3 0 -1.6 0.8 -3 0.7 -1.3 2.3 -4.3 3.6 -6.5 2.6 -4.9 2.4 -6.7 -3.3 -23 -2 -5.7 -3.5 -10.5 -3.3 -10.7 0.9 -0.9 16.2 -6.5 17 -6.3 0.4 0.2 -1.2 3.7 -3.8 7.8 -5.3 8.5 -6.8 13.3 -5.1 16.1 0.7 1.1 1.5 1.9 1.9 1.9 2 0 21.8 -38.2 21.8 -42.2 0 -1.9 -15.3 1.7 -17 4 -0.5 0.8 -12.1 4.3 -20.5 6.2 -2.7 0.7 -5.5 1.4 -6.2 1.5 -0.9 0.3 -0.9 1.3 -0.2 3.7 1.1 3.7 -0.6 10.4 -4.7 19.3 -1.3 2.8 -2.4 6.8 -2.4 8.9 0 2.1 -0.7 5.3 -1.6 7.2 -1.4 2.8 -2.2 3.4 -6.2 4 -5.6 0.8 -7.2 1.9 -7.2 4.8 0 2.4 3.8 6.6 5.8 6.6 1.6 0 1.5 0.4 -0.8 10.4 -1.1 4.6 -1.9 9.7 -1.8 11.3 0.1 1.6 -0.1 3.4 -0.5 4 -0.8 1.3 4 7.2 8.4 10.4 l2.8 2 3.1 -5.8 c4.2 -7.9 7.4 -13.2 9 -14.6 0.7 -0.7 -0.7 2.4 -3 6.8 -4.4 8.1 -5.8 10.9 -7 13.4 -0.3 0.8 -1.2 1.7 -1.8 1.9 -1.7 0.5 -20.5 -18.1 -27.3 -27 -3.2 -4.3 -5.4 -7.8 -4.9 -7.8 0.6 0 1 -1.1 1 -2.5 0 -1.4 -0.4 -2.5 -1 -2.5 -0.5 0 -1 1 -1 2.3 0 2.1 -0.1 2 -2.5 -0.8 -2.4 -3 -3.4 -8.8 -1.6 -10 0.5 -0.3 1.3 -2 1.7 -3.7 0.3 -1.8 1 -3.9 1.4 -4.8 1.8 -3.8 4 -9 6.5 -15.5 1.5 -3.8 3.3 -8.2 3.8 -9.6 0.6 -1.4 2.4 -3.5 4.1 -4.6 1.7 -1.1 5.3 -3.4 7.9 -5.2 2.6 -1.7 5.2 -3.1 5.7 -3.1 1.6 0 9.6 -8.6 14.2 -15.5 9.2 -13.6 13.4 -18.2 17.1 -18.9 1.8 -0.3 5.2 -1.5 7.5 -2.6 2.3 -1.1 4.5 -2 5 -2 0.6 0 2.3 -0.7 3.8 -1.5 1.6 -0.8 3.6 -1.5 4.4 -1.6 0.8 0 3.7 -1.3 6.5 -2.7 4.5 -2.4 5.1 -3.2 6.6 -8.2 0.9 -3 3.1 -13.8 4.8 -24 1.8 -10.2 4.6 -23.6 6.2 -29.8 l3 -11.4 -4.3 -4.7 c-2.4 -2.6 -7.6 -7.1 -11.6 -10.1 -13 -9.7 -17.9 -15.1 -22.4 -24.8 -6.8 -14.5 -7.8 -16.8 -7.8 -17.8 -0.1 -3.5 -12 -14.4 -15.8 -14.4 -1.7 0 -20.7 17.1 -29.7 26.9 -6.6 7.1 -15.2 13.6 -22.2 16.9 -4.8 2.2 -7.2 2.6 -14.3 2.6 -8.5 0 -9.5 -0.2 -18.5 -5.1 -4.1 -2.2 -10.7 -7.4 -10.1 -8 0.3 -0.3 -0.9 -1.7 -2.5 -3 -1.6 -1.4 -2.8 -3.1 -2.6 -3.7 0.2 -0.6 0 -1.9 -0.5 -2.9 -0.5 -1 -0.6 -2.6 -0.2 -3.5 0.4 -0.9 0.8 -5.1 0.9 -9.2 0.1 -4.1 1 -10.2 2 -13.5 2.7 -9 9.4 -25.3 12.5 -30.5 1.6 -2.5 3.3 -6.3 3.8 -8.5 2.1 -8 4.2 -18.3 4.2 -20.3 0 -1.6 0.9 -2.1 4.8 -2.6 2.6 -0.3 6 -1.3 7.6 -2.1 1.5 -0.8 3.6 -1.5 4.5 -1.5 0.9 0 3.6 -1.1 6 -2.5 2.3 -1.4 4.9 -2.5 5.6 -2.5 2 0 2.6 30.2 0.7 41 -0.8 4.8 -1.2 11.3 -0.9 15 0.6 6.7 2.4 12.3 3.7 11.5 1.5 -0.9 2 2.8 0.9 6.7 -0.5 2.2 -0.8 4.2 -0.6 4.5 0.3 0.2 1.8 -0.2 3.5 -1.1 2 -1 3.2 -1.2 4 -0.4 0.9 0.9 16.4 -12.5 27.7 -24.3 8.1 -8.4 13.3 -11.7 20.6 -13.3 1.4 -0.3 5.6 -3.7 9.5 -7.7 8.2 -8.5 11.3 -10.1 18.2 -9.2 2.7 0.3 5.8 0.1 6.8 -0.5 1.4 -0.8 2.6 -0.5 5.4 1.7 4.8 3.7 14.6 7.1 20.7 7.1 3.5 0 6.4 0.8 9.5 2.5 4.9 2.7 17.3 6.8 19 6.3 0.6 -0.2 -3.3 -2.6 -8.8 -5.3 -11.4 -5.7 -18.7 -12.3 -24.6 -22.5 -4.9 -8.4 -24.8 -55.6 -24.8 -58.8 0 -2.6 -2.4 -2.1 -8.3 1.5 -3.4 2.2 -9.3 5.4 -13.1 7.2 l-6.8 3.3 -5 -2.1 c-5.1 -2.1 -8.3 -1.7 -11.8 1.4 -0.8 0.7 -3.1 1.7 -5 2.2 -2.1 0.6 -3.4 1.5 -3.3 2.4 0.4 1.9 -8.3 6.2 -19.2 9.4 -10.3 3.1 -24.3 9.4 -26.4 11.8 -1 1.3 -1.1 2 -0.2 3 0.8 1.1 0.2 1.8 -2.7 3.2 -4.7 2.3 -20.9 7.5 -23.3 7.5 -1 0 -2 0.4 -2.4 0.9 -0.3 0.5 -3.1 1.2 -6.3 1.6 -3.1 0.4 -8.1 1 -11 1.5 -4.8 0.9 -5.8 0.7 -11 -1.9 -5.1 -2.6 -26.1 -9.9 -33.4 -11.7 -1.7 -0.4 -2.8 -1.3 -2.8 -2.3 0 -1 3.8 -8 8.4 -15.7 l8.3 -13.9 4.9 -0.3 c6.3 -0.4 9 0.4 9.7 2.8 0.4 1.5 1.3 2 4 2 2 0 3.9 0.5 4.3 1.1 0.5 0.9 4.8 1 15.3 0.6 8.4 -0.4 18.6 -0.2 23.9 0.5 6.7 0.7 10.9 0.7 14.7 0 3.2 -0.7 6.5 -0.8 8.3 -0.2 3.1 0.8 7.2 4.3 7.2 6 0 1.3 2.2 1.3 5.2 0 1.3 -0.5 4.3 -1.4 6.7 -2 4.3 -1.1 10.1 -6.1 10.1 -8.6 0 -1.5 -6.5 -3.8 -8 -2.9 -1.7 1 -11 1.3 -11.6 0.3 -0.3 -0.4 0.2 -0.8 1 -0.8 0.9 0 1.6 -0.4 1.6 -1 0 -0.5 -0.4 -1 -1 -1 -2 0 -0.9 -2.6 2.1 -5.3 3.7 -3.2 3.3 -5.2 -1 -5.2 -2.7 0 -3.5 -0.5 -4.6 -3.3 -1.4 -3.1 -1.3 -3.3 1 -4.4 1.3 -0.6 2.5 -2 2.7 -3.2 0.3 -2.3 0.3 -2.3 10.6 -2.5 4.3 -0.1 7.2 -0.5 7.2 -1.1 0 -0.7 -3.8 -1 -10.7 -0.9 -9.7 0.2 -16.5 -0.3 -21.5 -1.7 -1.1 -0.3 -1.8 -1.5 -1.8 -2.9 0 -1.4 -0.7 -2.6 -1.9 -3 -1.3 -0.4 -2.1 -1.9 -2.6 -5.2 -1 -6.7 -4.4 -12.3 -7.5 -12.3 -1.9 0 -7.2 3.7 -14.1 9.9 -5 4.5 -11.2 7.2 -25.4 11.1 -16.4 4.5 -26.5 7.7 -28.7 9.2 -1.2 0.8 -4.5 5.7 -7.2 10.8 -4.1 7.8 -5.5 9.6 -9.4 11.8 -6.6 3.9 -21.2 16.5 -21.2 18.4 0 0.4 -0.8 0.8 -1.7 0.8 -1 0 -2.6 0.7 -3.6 1.5 -1.1 0.7 -3.6 1.6 -5.6 2 -2.9 0.5 -5.2 2.1 -10.1 7.1 -3.6 3.7 -6.8 6.3 -7.6 6 -0.7 -0.3 -2.4 0.9 -3.7 2.6 -2 2.5 -2.8 2.8 -4.3 2 -1.3 -0.7 -2.6 -0.7 -3.7 -0.1 -1.1 0.6 -3.1 0.6 -5.6 -0.1 -2.3 -0.6 -9.6 -0.8 -18 -0.5 l-14.1 0.5 -1 -2.5 c-0.8 -2.1 -1.6 -2.5 -4.7 -2.5 -2.1 0 -6.9 0.9 -10.8 1.9 -5.7 1.5 -10.8 1.9 -28 1.9 -11.5 0.1 -22.5 0.1 -24.2 0.1 -6 0.1 -3.1 5.5 6.4 11.8 5.4 3.5 5.9 3.7 13.7 3.6 8.3 -0.2 11.6 0.8 11.6 3.2 0 1.7 5 4.5 8 4.5 1.9 0 7 4.3 7 6 0 0.4 -1.7 1.2 -3.9 1.8 -4.7 1.5 -7.2 3.9 -5.1 5.2 2.4 1.5 16 2.3 26 1.6 5.2 -0.4 14.2 -1 20 -1.2 9.3 -0.4 15.8 -1.7 24.1 -4.9 1.3 -0.5 1.6 0.2 1.5 3.7 l-0.1 4.3 4 0 c3.6 0 4 -0.3 5 -3.5 0.5 -1.9 1.5 -4.2 2 -5.1 1.1 -1.8 10.6 -6.9 12.8 -6.9 0.8 0 3.4 1.3 5.8 3 3.1 2.1 5.6 3 8.5 3 3 0 4.6 0.6 6.3 2.4 1.3 1.4 3.8 2.6 5.5 2.8 2 0.2 3.4 1 4.1 2.5 0.5 1.2 1.8 2.5 3 2.9 2 0.7 1.1 0.8 -20.1 3.2 -5.1 0.6 -10 1.5 -11 2 -1.7 0.9 -12.9 4.2 -21.4 6.2 -5.8 1.4 -29.5 4.5 -32.2 4.1 -0.9 -0.1 -1.9 0.3 -2.3 0.9 -0.3 0.5 -2.4 1 -4.5 1 -2.1 0 -4.2 0.5 -4.5 1 -0.3 0.6 -1.8 1 -3.3 1 l-2.7 0 0.1 18.3 c0.1 10.8 -0.1 15.2 -0.5 10.8 -0.4 -4.6 -1.1 -7.6 -1.8 -7.9 -0.8 -0.2 -1.3 0.5 -1.3 1.8 0 1.9 -0.4 2.1 -2.6 1.7 -1.4 -0.2 -2.7 0 -3 0.7 -1.3 3.5 -4.4 34.2 -4.3 42.9 l0 10.2 2.6 -6.2 c2.7 -6.4 4.6 -8.1 2.3 -2.1 -3.2 8.4 -5.4 12.7 -6.1 12.2 -0.5 -0.3 -0.6 0.1 -0.3 0.9 1 2.7 -3.8 14.1 -7.7 18.4 -2.1 2.3 -3.9 3.7 -4.1 3.2 -0.2 -0.5 -3 2.5 -6.3 6.8 -3.3 4.3 -8.6 10.9 -11.8 14.7 -6.4 7.7 -6.3 8.6 1.1 8.6 l4.2 0 0 5.5 c0 4.1 -0.4 5.5 -1.5 5.5 -1.1 0 -1.5 2.8 -1.9 15.3 -0.2 8.3 -0.9 20.2 -1.4 26.2 -0.6 6.1 -1.5 19.3 -2.2 29.5 -1.2 19.5 -3.7 44.4 -9.4 95.5 -4.3 38.3 -6.5 63.2 -7.3 84.1 l-0.6 16.1 -19.1 0.6 c-31 1 -57.5 4.4 -100.1 12.7 -48.4 9.5 -84.3 10.1 -118.3 1.9 -9 -2.2 -9.2 -2.3 -9.2 -5.1 0 -4.2 -2.6 -8.7 -5.5 -9.4 -1.8 -0.5 -2.5 -1.3 -2.5 -3.1 0 -1.4 -0.6 -3.1 -1.4 -3.7 -0.7 -0.6 -3 -6.1 -5.1 -12.3 -2.7 -7.7 -4.4 -11.3 -5.6 -11.6 -2.5 -0.7 -14 -24.6 -18.4 -38.1 -4 -12.3 -7.8 -30.2 -9.7 -45.6 -0.9 -7.4 -1.2 -26.1 -1.1 -64 0.1 -45.6 0.8 -69.4 4.7 -160.6 2.5 -58.9 4.6 -109.4 4.6 -112.3 0 -4.9 -0.3 -5.4 -4.7 -9.6 -2.7 -2.5 -5.1 -4.5 -5.5 -4.5 -0.4 0 -3.1 -2.2 -6 -5 -2.9 -2.7 -5.6 -5 -6 -5 -0.4 0 -2.9 -2 -5.6 -4.5 -4.8 -4.4 -11.3 -9.4 -19.7 -15.2 -2.2 -1.5 -6 -4.4 -8.5 -6.4 -2.5 -2 -5.6 -4.2 -6.9 -4.9 -1.3 -0.7 -3.9 -2.6 -5.8 -4.3 -1.8 -1.6 -4.1 -3.5 -5.2 -4.1 -1 -0.6 -3.4 -2.3 -5.2 -3.7 -1.9 -1.4 -7.8 -5.8 -13.1 -9.7 -11.2 -8.3 -14.4 -11.3 -22.3 -21.1 -3.2 -3.9 -6.1 -7.1 -6.5 -7.1 -1.5 0 -2.2 33.6 -1.1 54.5 1.4 26.3 3.2 43.5 8.1 79 8 57.6 9.5 79.4 9.4 139.5 0 43.3 -0.3 54.4 -2.7 88 -1.4 21.2 -3.1 47.7 -3.6 59 -0.6 11.3 -1.3 26.8 -1.7 34.5 -0.4 7.7 -1 34 -1.3 58.5 l-0.6 44.4 -7 2.8 c-12.2 4.7 -27.1 7.6 -60 11.8 -45 5.7 -42 4.8 -59 17 -10.5 7.6 -17.1 11 -21.1 11 l-2.4 0 0 -32.2z m1197.3 -66.2 c1.8 -1.9 0.4 -14.1 -2.1 -17.5 -3 -4.1 -4.7 -4.7 -7.6 -2.8 -2.1 1.4 -2.6 2.5 -2.6 5.8 0 4.2 1.9 7.7 6.8 13.2 2.9 3.1 3.5 3.2 5.5 1.3z m-1252.8 -27.7 c3.3 -3.3 7.4 -6.6 9.1 -7.3 1.7 -0.8 5.7 -4.4 9 -8.2 9.3 -10.8 16.3 -17.3 19.7 -18.2 l3.2 -0.8 0.3 -35.2 c0.2 -28.8 0 -35.6 -1.2 -37.5 -0.7 -1.2 -2.4 -5.2 -3.6 -9 -1.6 -5 -3 -7.4 -5.4 -9.2 -8.1 -6.1 -20.7 -9.4 -39.8 -10.2 l-12.8 -0.6 0 40.4 c0 41.1 0.8 57.1 3.6 70.8 2.6 13.2 9.1 31.1 11.2 31.1 0.4 0 3.4 -2.7 6.7 -6.1z m1285.2 -18.5 c1.9 -7.6 1.3 -9.9 -4.7 -16.6 -7.4 -8.4 -13.9 -14.8 -15 -14.8 -1.7 0 -1.1 3.5 1.5 8.3 1.7 3.3 2.4 6 2.2 9.4 -0.1 4.1 0.1 4.8 1.8 5.1 3.4 0.6 7.2 5.2 8.5 10 0.6 2.6 1.7 5.8 2.3 7.2 l1.1 2.5 0.3 -2.5 c0.2 -1.4 1.1 -5.3 2 -8.6z m29.9 8.4 c0.7 -1.1 -9.4 -11.4 -10.3 -10.4 -0.9 0.9 4.7 10.5 6.4 10.9 3 0.8 3.2 0.7 3.9 -0.5z m-289.6 -22.4 c0 -1.3 -2.5 -5 -4.2 -6.2 -1.1 -0.8 -1.8 -2.6 -1.8 -4.7 0 -4.4 -1.8 -5.4 -4.1 -2.4 -2.3 3 -2.4 7.1 -0.1 9.1 3.5 3.2 10.2 5.9 10.2 4.2z m-532 -10.5 c1.4 -2.5 1.2 -2.7 -2.8 -3.5 -3.7 -0.7 -4.3 0.8 -1.5 3.8 2.1 2.3 3 2.3 4.3 -0.3z m738.4 -4.1 c0.9 -1.2 1.6 -4.2 1.6 -6.5 0 -3.4 -0.5 -4.6 -2.5 -5.9 -3.5 -2.3 -9.3 -1.3 -12.2 2.1 -3 3.5 -2.9 4.2 1 5.9 1.7 0.7 4.5 2.5 6 4 3.4 3.2 4.2 3.2 6.1 0.4z m-128.7 -9.4 c8.2 -2.8 15.1 -6.4 15.5 -8.2 0.4 -1.2 3 -2.5 8.6 -4.1 4.5 -1.3 8.2 -2.7 8.2 -3.2 0 -0.5 1.2 -1.5 2.7 -2.2 2.3 -1.3 3.1 -1.2 6.1 0 2.9 1.2 4.6 1.3 9.9 0.3 5.1 -1 6.9 -1 9.6 0.1 1.9 0.8 6.9 1.4 12.2 1.4 7.7 0 9.6 -0.3 13.3 -2.5 3.5 -1.9 4.2 -2.9 4 -4.9 -0.3 -2.1 -1.4 -2.8 -7.3 -4.8 -7.1 -2.5 -10.1 -5.5 -8.8 -8.9 0.3 -0.8 -0.3 -2.4 -1.2 -3.5 -1.8 -1.9 -1.8 -2 0 -3.3 1.8 -1.3 1.8 -1.6 0.2 -7.7 -3.1 -12.2 -4.9 -23.4 -5.1 -31.6 0 -4.6 -0.4 -8.3 -0.7 -8.3 -0.4 0 -1.2 1.4 -1.9 3.1 -2 4.6 -0.7 20.6 3 37.4 1.5 6.9 0.2 6 -7.6 -4.7 -1.8 -2.4 -4 -6.8 -5 -9.8 -1 -3 -1.9 -5.6 -2 -5.8 0 -0.1 -1.6 0.5 -3.4 1.5 -1.8 0.9 -5.1 1.7 -7.3 1.7 -3.8 0.1 -4 0.3 -10.4 10.4 -3.6 5.7 -6.1 10.7 -5.7 11.2 1.2 1 12.5 4 15.2 4 2.8 0 3.7 1.7 2 3.7 -0.7 0.9 -13.9 7.8 -29.3 15.4 -25.1 12.3 -40.6 20.8 -38.1 20.9 0.5 0 0.1 0.9 -0.9 2 -1.8 2 -1.7 2 8.8 2 7.1 0 12.2 -0.5 15.4 -1.6z m-599.7 -12.5 c0 -3.2 -1.3 -3.7 -3.7 -1.4 -1.4 1.4 -1.4 1.8 0.2 3.5 2.2 2.5 3.5 1.7 3.5 -2.1z m375.4 -10.4 c0.4 -2.4 1.1 -4.7 1.7 -5 1.2 -0.8 1.2 -5.5 0 -5.5 -0.5 0 -1.2 1.4 -1.6 3.1 -0.4 1.7 -1.3 4.2 -2.1 5.7 -1.8 3.4 -1.8 6.2 0 6.2 0.9 0 1.6 -1.6 2 -4.5z m8.6 3 c0 -0.8 -0.4 -1.5 -1 -1.5 -0.5 0 -1 0.7 -1 1.5 0 0.8 0.5 1.5 1 1.5 0.6 0 1 -0.7 1 -1.5z m-420.6 -2.2 c0.4 -1.5 5.8 -10.5 9.6 -16.3 4 -6.1 4.8 -9 5.5 -19.5 0.8 -13.9 3.2 -33.1 4.4 -35.3 0.4 -0.9 1.2 -3.5 1.5 -5.7 0.7 -3.6 4.9 -19.2 9.1 -33 0.8 -2.7 1.7 -7.3 2.1 -10.2 0.3 -3.1 1.1 -5.4 2 -5.7 0.8 -0.3 1.4 -1.2 1.4 -2.1 0 -0.8 1.3 -6.4 2.9 -12.3 1.6 -5.9 4.1 -15.4 5.6 -21.2 1.5 -5.8 3.5 -13.4 4.5 -17 1 -3.6 2.1 -8.1 2.4 -10 1.1 -6.5 7.3 -29.3 9.3 -34 0.6 -1.4 2 -6.3 3.2 -11 3.5 -13.6 4.1 -15.1 9 -22.3 2.5 -3.8 5.1 -7.6 5.6 -8.5 0.6 -0.9 1.9 -3 3 -4.6 1 -1.7 2.6 -4.4 3.5 -6 2.3 -4.4 4.3 -7.9 5.7 -9.6 0.6 -0.8 2.6 -4.2 4.4 -7.5 1.8 -3.3 5.4 -9.1 8.1 -13 2.6 -3.8 4.8 -7.3 4.8 -7.7 0 -0.4 -0.9 -0.8 -1.9 -0.8 -1.1 0 -5.4 -1.9 -9.6 -4.1 -7.5 -4.1 -7.6 -4.1 -9.8 -2.3 -2.4 2 -8.2 7.5 -21.7 20.5 -4.6 4.4 -10.4 9.5 -12.7 11.2 -2.4 1.6 -4.9 4 -5.7 5.3 -0.8 1.2 -7.3 6.9 -14.5 12.7 l-12.9 10.6 -0.6 8.3 c-0.3 4.6 -1.3 20.7 -2.1 35.8 -2.7 46 -7.7 94.4 -13.1 126.5 -5.4 31.9 -7.4 58.6 -5.9 79.8 0.7 10.1 1.5 12.9 2.9 9z m550 0.3 c-0.3 -0.8 -1.2 -1.7 -2 -2 -1.2 -0.4 -1.2 -0.2 -0.4 1.4 1.2 2.3 3.2 2.7 2.4 0.6z m-3.9 -12.5 c-1.2 -8 -2.9 -10.6 -10.8 -16.5 -7.9 -6 -8.7 -6.4 -8.7 -4.1 0 3.4 2.7 6.8 7.7 9.6 3 1.7 5.8 4.1 6.3 5.3 0.5 1.1 1.6 4.2 2.6 6.8 2.1 5.9 3.8 5.2 2.9 -1.1z m-124.2 -1.3 c0.7 -2.5 0 -4.1 -1.4 -3.3 -1.2 0.8 -1.2 5.5 0 5.5 0.5 0 1.1 -1 1.4 -2.2z m80.7 0 c3.2 -3.4 2.3 -4.5 -1 -1.3 -1.6 1.6 -3 3 -3 3.2 0 1 2.2 0 4 -1.9z m-65.4 -0.2 c1.4 -3.7 -4.1 -8.5 -7.6 -6.6 -2.6 1.4 -2.5 2.6 0.5 5.5 2.7 2.8 6.3 3.3 7.1 1.1z m119 -66.3 c2.1 -2.7 4.9 -5.7 6.3 -6.8 1.3 -1.1 6.1 -5.2 10.5 -9 4.5 -3.9 12.4 -10.5 17.6 -14.7 13.3 -10.7 29 -27.4 29 -30.9 0 -2 -2.2 -0.5 -14.1 9.7 -17.2 14.7 -16.9 14.4 -17.5 14.4 -0.3 0 1.8 -2.6 4.6 -5.8 2.8 -3.2 7.4 -9.2 10.2 -13.3 4.1 -6.1 4.7 -7.5 3.3 -7.7 -2.4 -0.5 -7.3 3.2 -20.9 16 -15.4 14.5 -25.4 26 -29 33.4 -1.6 3.2 -4.1 7.9 -5.7 10.3 -2.2 3.7 -2.5 4.8 -1.6 6.8 1.5 3.4 3 2.9 7.3 -2.4z m100.4 -22.2 c1.9 -1.4 2.6 -2.9 2.8 -6.1 0.5 -6.5 -2.4 -12.7 -9.1 -19.7 l-6 -6.3 0.6 -6 c0.4 -3.3 1 -7.2 1.3 -8.5 0.3 -1.4 0.2 -2.5 -0.4 -2.5 -1.3 0 -9.9 9 -12.3 12.9 -2.6 4.4 -2.4 5.8 1.1 6.6 1.7 0.4 3 1 3.1 1.3 0.5 4.1 0.3 7.9 -0.6 14.4 -1.3 8.5 -0.5 11 4.7 15 2.8 2.2 11 1.6 14.8 -1.1z m-500.4 -23.8 c6.7 -7.8 10.3 -14.1 10.4 -17.8 0 -1.1 0.7 -3.3 1.5 -4.8 0.8 -1.6 2 -4.7 2.6 -7 0.6 -2.2 2.8 -6.1 5 -8.7 4.2 -5 5.1 -9.3 2.2 -10.8 -4.6 -2.4 -10.1 3.8 -14.3 15.9 -1.6 4.5 -3.3 8.6 -3.9 9.2 -0.6 0.6 -1.1 1.8 -1.1 2.7 0 4.3 -5.4 19.8 -8.1 23.2 -3 3.8 -3.7 5.8 -1.9 5.8 0.5 0 3.9 -3.5 7.6 -7.7z m-30.1 0.2 c0 -3.9 -0.4 -5 -1.7 -5.3 -1.6 -0.3 -3.6 2.4 -5.8 8.4 -1 2.5 -0.9 2.5 3.3 2.2 l4.2 -0.3 0 -5z m495.6 -23.5 c2.4 -1.6 5.5 -3.7 6.8 -4.7 2.3 -1.7 2.4 -1.7 1.7 0.7 -0.5 1.6 4.8 -3.1 14.6 -13 8.4 -8.6 18.7 -18.4 22.9 -21.9 8.5 -6.9 8.6 -7 8.8 -23 0.1 -3.5 0.6 -9.3 1.1 -12.9 0.6 -3.5 1.1 -8.8 1.1 -11.7 0.1 -5.8 -1.9 -12.7 -3.6 -12.2 -0.5 0.2 -1.3 3 -1.8 6.3 -0.4 3.2 -1.4 11.1 -2.3 17.4 l-1.6 11.5 -10.2 10.5 c-12.4 12.7 -28.7 32.2 -34.8 41.6 -10.3 16.1 -10.4 16.5 -2.7 11.4z m-563 -18.6 c5.3 -8.9 9.4 -17.3 8.6 -18 -0.3 -0.3 -2.7 1.7 -5.4 4.3 -4.6 4.5 -9 13.2 -11.9 23.3 l-0.7 2.5 2.2 -2 c1.2 -1 4.5 -5.6 7.2 -10.1z m88.6 -15.3 c4.6 -0.8 7.3 -2.6 7.3 -4.7 0 -2.8 -2.4 -6.4 -4.3 -6.4 -3.5 0 -14.5 5.9 -15.3 8.2 -0.9 2.8 2.2 5.1 5.6 4.3 1.4 -0.3 4.4 -1 6.7 -1.4z m369.4 -20.1 c0.7 -3.1 0 -4.6 -6.7 -13.6 -3.5 -4.8 -5.8 -9.2 -7 -13.5 -1.3 -4.5 -2.9 -7.6 -5.7 -10.6 -2.2 -2.4 -4.3 -4.3 -4.8 -4.3 -0.5 0 -0.9 4.9 -0.9 10.8 0 16.2 2.3 22.2 11.1 28.7 0.8 0.6 2.7 2.1 4.3 3.3 4 3.1 8.8 2.7 9.7 -0.8z m-382.9 -8.7 c2.9 -2.6 2.3 -5.3 -1.1 -5.3 -2.9 0 -4.1 1.4 -4.1 5.1 0 2.4 2.7 2.5 5.2 0.2z m50.7 0.8 c2.4 -1.5 2.6 -9.5 0.3 -15.8 -3.5 -9.4 -5.6 -22.7 -6.1 -37 -0.1 -3.4 -3.9 -3.1 -4.7 0.3 -0.8 3.2 0.1 14.1 2.2 25.5 l1.5 8.5 -3.1 5.1 c-3.4 5.5 -3.4 7.2 0.1 11.7 2.1 2.7 6.9 3.5 9.8 1.7z m-118.6 -5.8 c8.4 -14 11.4 -22.1 8.7 -23.8 -1.3 -0.8 -11.8 20.4 -12.6 25.4 -0.4 2.3 -0.4 4.1 -0.1 4.1 0.3 0 2.1 -2.6 4 -5.7z m20.4 -7.1 c0.4 -3.5 0.2 -5.2 -0.5 -5.2 -2 0 -3.1 3.5 -2.5 7.9 0.7 5.4 2.2 4.1 3 -2.7z m460.4 5.8 c1 -0.6 2.5 -2.3 3.3 -3.9 1.3 -2.4 1.3 -2.9 0 -4.2 -0.8 -0.8 -2.9 -3.4 -4.7 -5.8 -3.3 -4.6 -14.7 -11.8 -16.7 -10.6 -3.2 2 2.6 15.5 9.3 21.8 4.3 3.9 5.6 4.3 8.8 2.7z m-159.3 -16.5 c1.2 -6 3.5 -17.6 5.2 -25.7 3.2 -15.2 4.9 -32 4 -37.3 l-0.6 -3 -3.2 4.9 c-6.8 10.6 -20.8 47 -21.8 56.9 l-0.6 5.2 2.1 -2.5 c1.1 -1.4 4.6 -7.4 7.7 -13.5 5.8 -11.4 7.1 -13.4 6 -10 -0.9 2.9 -3.4 26.7 -3.1 29.6 0.1 1.3 0.3 3.7 0.4 5.4 0.2 5.3 1.8 1.3 3.9 -10z m83.7 -1.5 c0.9 -1.5 -1.8 -5.2 -5.3 -7.2 -2.5 -1.5 -3.1 -1.6 -4.2 -0.4 -1.2 1.6 0.1 3.4 5 6.8 3 2 3.7 2.1 4.5 0.8z m208.4 -24.7 c-0.1 -11.1 -0.9 -15.3 -2.2 -10.5 -1.4 4.8 -1.8 20 -0.6 22.5 2 4.5 2.8 1.2 2.8 -12z m-184.7 9.3 c4.1 -1.8 4.9 -2.6 8.8 -9.9 3.4 -6.4 3.7 -9 1.4 -13.6 -1.4 -2.7 -2.1 -3.2 -4.7 -2.9 -3.4 0.3 -4.6 2 -8.6 12.5 -1.5 3.9 -1.9 6.4 -1.4 10.2 0.3 2.8 0.7 5.1 0.8 5.1 0.1 0 1.8 -0.6 3.7 -1.4z m37.4 -4.1 c3.3 -2 4.5 -3.3 4.9 -5.9 0.7 -3.7 -0.8 -7.6 -3 -7.6 -2.7 0 -7.5 5.1 -8.5 9.2 -2 7.2 -0.3 8.3 6.6 4.3z m133.4 -8.1 c1.2 -3.1 1.6 -15.6 0.6 -17.3 -1.1 -1.7 -3 -1.3 -5.4 0.9 -1.2 1.1 -2.8 2 -3.6 2 -0.8 0 -2.5 1.4 -3.7 3.1 -1.8 2.6 -2 3.5 -1 5.5 0.6 1.4 1.1 3.4 1.1 4.5 0 2.3 3 3.7 7.8 3.8 2.6 0.1 3.4 -0.4 4.2 -2.5z m-565.9 -9.2 c1.2 -5.8 10.2 -22.1 17.3 -31.4 2 -2.6 3.2 -4.9 2.7 -5.3 -1.5 -0.8 -7.1 6.8 -15.1 20.4 -8.1 13.8 -9.9 17.9 -9.9 23.1 l0 3.5 1.9 -2.3 c1 -1.2 2.4 -4.8 3.1 -8z m517.9 -4.6 c0 -3.4 -5.6 -8.6 -9.2 -8.6 -1.8 0 -0.7 3.3 2.1 6.1 2.4 2.4 7.1 4 7.1 2.5z m-537.8 -41.2 c4.4 -3.1 3.9 -4.8 -1.8 -5.8 -2.9 -0.6 -3.8 -0.3 -5.4 1.6 -2.3 2.8 -2.5 3.8 -0.5 3.8 0.8 0 1.5 0.7 1.5 1.5 0 2.2 1.9 1.8 6.2 -1.1z m117 0.7 c1.3 -0.5 5.2 -1.7 8.8 -2.6 6.4 -1.7 13 -4.2 13 -5 0 -0.2 -2.4 0.4 -5.2 1.2 -2.9 0.8 -6.3 1.7 -7.6 2 -1.2 0.3 -2.5 0.9 -2.8 1.4 -0.3 0.5 -1.5 0.9 -2.7 0.9 -2.4 0.1 -9 2.8 -7 2.9 0.7 0.1 2.2 -0.3 3.5 -0.8z m-61.7 -1.2 c1.2 -1.8 -0.5 -2.4 -7.2 -2.4 -4.2 0 -6.8 0.4 -7 1.2 -0.2 0.6 0.4 1.3 1.4 1.6 3.6 0.9 12.2 0.7 12.8 -0.4z m27.9 -6.5 c3.8 -1.5 1 -4.4 -4.2 -4.4 -3.8 0 -7.2 1.1 -7.2 2.1 0 2.1 7.9 3.7 11.4 2.3z m46.3 -4.8 c6.7 -1.6 11.5 -2.2 15.1 -1.8 4.5 0.4 6.1 0 11.5 -2.8 8.9 -4.7 20.2 -12.4 27.2 -18.5 8.1 -7.1 16.7 -13.5 18.1 -13.5 1.5 0 12.5 -7.3 14.9 -9.9 1.8 -2.1 1.8 -2.1 -0.3 -2.1 -1.1 0 -2.4 0.5 -2.7 1 -0.3 0.6 -1.9 1 -3.5 1 -1.9 0 -3.3 0.7 -4 2 -2.2 4.1 -11.1 6.3 -9.6 2.3 0.3 -0.8 -0.5 -3.6 -1.9 -6.3 -1.4 -2.7 -2.5 -6.3 -2.5 -8 0 -1.8 -0.5 -3 -1.3 -3 -0.8 0 -1.3 1.8 -1.5 5.2 -0.1 2.9 -0.7 5.7 -1.2 6.2 -0.7 0.7 -0.2 1.9 1.5 3.6 2 2.1 2.3 3.2 1.8 6.3 -1.1 7.2 -11.3 8.9 -11.3 2 0 -1.6 -1.1 -6.8 -2.5 -11.8 -1.4 -4.9 -2.5 -10.2 -2.5 -11.7 0 -3.4 -1.1 -4.1 -3.7 -2.3 -1.7 1.2 -1.9 2 -1.2 5.2 0.8 4 4.3 14.6 6.5 20.1 1.8 4.3 1.8 7.8 -0.2 8.6 -0.8 0.3 -1.3 1 -0.9 1.6 0.3 0.5 -2.5 3 -6.2 5.5 -3.7 2.5 -8.7 5.9 -11 7.6 -3.2 2.2 -8.1 3.9 -20.5 7 -16.5 4.2 -18.8 5.1 -18.8 7.5 0 1.7 -0.9 1.8 10.7 -1z m11.4 -15.6 c-1 -7 -1.1 -24.3 -0.2 -25.4 0.8 -0.9 0.7 -2.9 -0.3 -6.7 -1.4 -5.3 -1.3 -8.1 0.1 -4.3 0.7 2 4.4 6.4 5.4 6.4 0.4 0 0.7 -3 0.8 -6.7 0.1 -3.8 0.6 -6.9 1.1 -7.1 1.5 -0.5 1.2 -2.2 -0.4 -2.2 -0.8 0 -1.8 -0.9 -2.1 -2 -0.3 -1.1 -1 -2 -1.4 -2 -1.3 0 -5.5 -9.4 -5.3 -11.9 0.1 -1.4 0.9 -3.3 1.9 -4.3 1.5 -1.7 1.4 -1.8 -1.8 -1.8 -5.1 0 -6.3 1.2 -5.4 5.1 0.4 1.9 0.8 5.2 0.9 7.4 0.1 2.2 0.5 5.1 1 6.3 0.6 1.8 0.3 2.7 -1.3 3.8 -1.5 1.1 -2 2.5 -2 5.2 0.1 2 -0.2 5 -0.6 6.6 -1.1 4.1 1.2 16.3 4.2 22.3 2.4 4.6 2.5 5.4 1.3 8.2 -1.6 3.9 -0.7 6.3 2.2 5.9 1.8 -0.2 2.2 -0.8 1.9 -2.8z m19.8 -9.5 c0.1 -2 -1.6 -3.6 -3.2 -2.9 -2.2 0.8 -2.2 5 0.1 6.3 1.7 0.9 3 -0.4 3.1 -3.4z m-162.1 1.6 c1 -0.6 0.8 -1 -1 -1.4 -3.6 -1 -4.8 -0.8 -4.8 0.8 0 1.6 3.6 2 5.8 0.6z m-17.4 -1.8 c0.4 -0.9 0.3 -2 -0.2 -2.5 -1.3 -1.3 -15.2 -4.8 -15.2 -3.9 0 1.4 3.4 3.9 8 6 5.5 2.5 6.6 2.6 7.4 0.4z m118 -1.3 c1.8 0 2.5 -0.9 3.5 -4.1 0.8 -2.6 2 -4.3 3.2 -4.6 2.1 -0.6 2.4 -2.8 0.9 -6.9 -1.4 -3.7 -0.7 -4 2.3 -1 1.6 1.6 3.7 2.6 5.5 2.6 l3 0 0.4 -15 c0.3 -9.8 0.8 -15.4 1.6 -16.2 1.3 -1.3 1.6 -3.8 0.5 -3.8 -0.5 0 -1.9 1.8 -3.3 4 -2.3 3.8 -5.2 5.1 -6.5 3 -0.3 -0.5 -1.4 -1 -2.5 -1 -1.9 0 -3 -1.9 -3 -5.1 0 -2.3 -0.1 -2.3 -4.5 -0.5 -2.6 1.1 -3.5 2.1 -3.5 3.8 0 1.3 0.5 2.9 1.1 3.5 0.5 0.5 1.2 2.6 1.3 4.5 0.2 1.9 0.7 4.5 1.1 5.7 0.5 1.7 0.2 2.4 -1.3 2.8 -2.9 0.7 -4.4 10.6 -3.2 20.1 0.3 2.7 0.3 5.8 -0.1 6.8 -0.3 1.1 -0.4 2.3 -0.1 2.9 0.3 0.5 0.7 0.4 1 -0.3 0.2 -0.7 1.4 -1.2 2.6 -1.2z m20.5 -2.9 c1.1 -0.7 0.9 -1.1 -0.9 -2.1 -2.5 -1.3 -3.5 -0.8 -2.7 1.5 0.7 1.7 1.6 1.9 3.6 0.6z m39.7 -12.6 c-0.2 -5.8 -0.1 -10.5 0.3 -10.5 0.3 0.1 1.8 1.9 3.3 4 3.4 4.9 4.8 5.1 4.8 0.5 0 -3.7 -2.4 -9.7 -5.1 -13 -0.9 -1.1 -2.2 -3.7 -2.9 -5.7 -1.1 -3.5 -1.4 -3.8 -5 -3.8 -4.6 0 -5.6 1.1 -3 3.2 1.5 1.4 1.7 2.6 1.3 7.6 -0.6 7 1.1 17.9 3.7 24 1 2.3 2.1 4.2 2.4 4.2 0.3 0 0.3 -4.7 0.2 -10.5z m-8.2 6.9 c0.8 -2.1 -0.1 -3.4 -2.4 -3.4 -2.5 0 -3.5 1.7 -2 3.5 1.6 2 3.6 1.9 4.4 -0.1z m274.3 -6.3 c-2.7 -7.8 -7.2 -16.1 -8.7 -16.1 -1.6 0 -1.1 3.3 1.1 7.5 5.5 10.5 9.1 16.6 9.6 16.2 0.2 -0.3 -0.7 -3.7 -2 -7.6z m-395.9 2.2 c-0.7 -3.6 -20.2 -6.1 -21.5 -2.8 -0.9 2.4 0 2.7 9.4 3.5 4.9 0.4 9.6 0.8 10.6 0.9 1.3 0.1 1.7 -0.5 1.5 -1.6z m9.2 -2.8 c0 -0.7 0.7 -1.5 1.5 -1.9 0.9 -0.3 1.5 -1.8 1.5 -3.4 0 -1.6 0.6 -3.5 1.4 -4.1 0.8 -0.7 2.2 -3.7 3.2 -6.7 2.5 -8 1 -8.9 -6.1 -3.8 -3.1 2.1 -6.2 4.3 -7 4.9 -1.7 1.2 -5.5 -2 -5.5 -4.6 0 -1.4 -1.5 -2.3 -5.6 -3.5 -7.2 -2.1 -8.5 -1 -5 4.2 1.4 2.1 2.6 4.2 2.6 4.6 0 1.6 7.4 11.5 11.3 15 3.8 3.5 4.2 3.6 5.9 2.1 1 -0.9 1.8 -2.2 1.8 -2.8z m42.6 -8.3 c3.8 -5.7 5.9 -11.4 5 -13.9 -0.6 -1.6 -2.5 -1.3 -8.9 1.4 -3.6 1.6 -3.8 1.5 -6 -0.5 -2.9 -2.7 -5.3 -2.8 -9.5 -0.2 -2.5 1.6 -3 2.4 -2.3 3.7 0.5 1 1.4 3.2 2.1 4.8 0.6 1.7 1.9 4.4 2.7 6 0.9 1.7 2.3 4.4 3.1 6 3 6 3.3 6.1 6.9 1.9 1.9 -2.2 4.9 -6.3 6.9 -9.2z m-74.6 8.4 c0 -1.2 -4.7 -2.6 -9.4 -2.6 -1.5 0 -1.6 0.3 -0.6 1.4 2 2.5 10 3.4 10 1.2z m464 -0.5 c0 -2.5 -4.6 -15.3 -8.6 -23.9 -2.5 -5.3 -5.9 -15.1 -7.6 -21.7 -1.6 -6.6 -3.7 -12.7 -4.5 -13.5 -1.2 -1.3 -1.4 -0.1 -1.1 10 l0.4 11.5 6.7 14.5 c6.5 14.1 12.2 24 13.9 24 0.4 0 0.8 -0.4 0.8 -0.9z m-62.4 -19.9 c-2.7 -5.4 -4.6 -7.3 -4.6 -4.7 0 1.7 3.5 9 5.4 11.4 2.3 2.9 1.8 -1.7 -0.8 -6.7z m-227 0.6 c-0.8 -4.6 -1.3 -5.8 -2.6 -5.8 -2 0 -2.2 4.9 -0.3 7.4 2.6 3.7 3.6 3.2 2.9 -1.6z m17.8 0.6 c0.9 -2.2 0.8 -2.4 -0.9 -2.4 -0.8 0 -1.5 0.9 -1.5 2 0 2.4 1.5 2.7 2.4 0.4z m-221.8 -4.9 c3.9 -3.4 3.9 -3.4 1.3 -3.5 -1.7 0 -4.1 1.3 -6.5 3.5 -3.7 3.4 -3.7 3.5 -1.3 3.5 1.5 0 4.2 -1.5 6.5 -3.5z m-277.6 -10.2 c0 -5.3 -0.4 -8.3 -0.9 -7.7 -3.6 3.6 -9.1 11.1 -9.1 12.2 0 1.4 5.3 4.1 8.3 4.2 1.5 0 1.7 -1.1 1.7 -8.7z m-27.4 2.1 c-0.3 -0.8 -1 -1.4 -1.6 -1.4 -1 0 -0.4 4.3 0.9 6.5 0.8 1.3 1.4 -3.2 0.7 -5.1z m331.8 4.7 c0.7 -1 -5.2 -3.7 -6.1 -2.7 -0.8 0.7 2.7 3.5 4.4 3.6 0.6 0 1.4 -0.4 1.7 -0.9z m66.9 -1 c0.8 -0.8 -2 -1.1 -9.6 -1.1 -5.9 0 -10.7 0.2 -10.7 0.5 0 2.5 18 2.9 20.3 0.6z m-391.3 -2.9 c0 -1.5 -1.2 -5.4 -2.5 -8.7 -1.4 -3.3 -2.5 -7.9 -2.5 -10.3 0 -8.5 -5.1 -14.4 -11.1 -12.9 -1.5 0.4 -3.3 -0.6 -6.5 -3.5 l-4.4 -4.1 0 4.8 c0 6.5 4.8 12.5 12.2 15.3 5.1 1.9 5.2 2 6.5 7.5 1.5 6.8 6 16 7.3 15.2 0.6 -0.3 1 -1.8 1 -3.3z m336 1.7 c1 -0.5 -0.6 -0.9 -4.2 -0.9 -6.2 0 -7.2 0.5 -3.5 2 2.2 0.9 4.9 0.5 7.7 -1.1z m-346 -6.3 c0 -2.4 -4.3 -6.6 -7.7 -7.5 -3.8 -1.1 -4.9 -0.1 -3.3 2.9 2.3 4.3 11 7.8 11 4.6z m328 -0.6 c-0.8 -0.5 -2.7 -1 -4.2 -1 -2.3 0 -24.7 -9.5 -28.8 -12.2 -0.8 -0.6 0.1 0.4 2 2.2 4.4 4 7.6 5.7 17 9.1 7.3 2.7 17.3 4 14 1.9z m125.8 -2.8 c0.2 -0.7 -0.6 -1.2 -1.7 -1.2 -2.1 0 -2.7 1.1 -1.4 2.4 0.9 0.9 2.6 0.2 3.1 -1.2z m196.1 -0.8 c2.6 -3.3 2.6 -6.4 0.1 -17.9 -3 -13.2 -3.6 -24.3 -1.6 -28 1.4 -2.7 1.4 -3.2 -0.1 -5.5 -0.9 -1.4 -2.3 -3.1 -3 -3.8 -1.7 -1.7 -1.6 -7 0.2 -10.2 0.9 -1.6 1.4 -5.5 1.5 -10.6 0 -6.8 0.3 -8.4 2 -9.9 1.1 -1 2 -2.9 2 -4.1 0 -2.1 -0.4 -2.3 -3.7 -2.1 l-3.7 0.2 -2.1 -6.7 c-1.1 -3.9 -2.6 -6.8 -3.3 -6.8 -2.7 0 -5 2 -5.6 5.1 -0.4 2 -2.3 4.8 -4.9 7.2 l-4.2 3.9 2.3 1.5 c2.6 1.8 2.9 5.5 0.7 10.6 -2 4.9 -1.9 7.6 0.6 13.1 l2 4.7 -1.9 5.7 c-1.1 3.1 -2.3 6.4 -2.7 7.3 -0.5 1.3 0.7 2.5 5 4.9 4.3 2.4 5.5 3.6 5 4.9 -0.4 0.9 -0.9 5.5 -1.2 10.3 -0.6 8.7 -0.6 8.7 2.6 12.3 1.7 2 3.1 4.6 3.1 5.9 0 4.9 1.3 8.4 3.4 9.4 3.5 1.7 5.3 1.4 7.5 -1.4z m70.5 -7.2 c-0.6 -2.2 -7.3 -10.1 -7.4 -8.6 0 1.5 5.8 10.4 6.9 10.4 0.5 0 0.7 -0.8 0.5 -1.8z m4.5 -3.4 c-0.6 -1.3 -1.8 -3 -2.6 -3.9 -1.3 -1.5 -1 -1.9 2.6 -4 6.6 -3.7 4.6 -5.5 -2.4 -2.2 -4.2 2 -4.4 3.6 -1 8.6 2.8 4.1 5.3 5.2 3.4 1.5z m-703.5 -13 c-0.4 -8 -1.3 -13.3 -3 -18.1 -1.3 -3.8 -2.4 -7.9 -2.4 -9.2 0 -3.2 -1.8 -4.1 -3.6 -1.9 -1.9 2.4 -1.1 10.1 1.7 16.4 1.1 2.4 2.3 8.1 2.8 12.7 0.8 7.8 2.1 11.3 4.3 11.3 0.5 0 0.6 -4.5 0.2 -11.2z m278.7 4.9 c0.5 -1.7 0.2 -3 -0.7 -3.7 -1.9 -1.6 -3.4 -0.4 -3.4 2.9 0 4.9 2.9 5.5 4.1 0.8z m266.2 1.1 c0.9 -3 -0.5 -4.8 -3.9 -4.8 -3.6 0 -5.1 1.7 -4 4.5 0.7 1.8 7.2 2.1 7.9 0.3z m-276.7 -10.7 c1.4 -4 3.4 -8.7 4.5 -10.4 1 -1.8 1.9 -4 1.9 -5 0 -1 1.4 -4.5 3 -7.7 1.7 -3.3 3.2 -7.7 3.4 -9.8 0.7 -5.8 3.3 -17.1 5.6 -23.6 2.2 -6.5 2.6 -8.9 0.9 -6.6 -2.7 3.9 0.7 -4.5 6.7 -16.5 4 -7.9 9.2 -16.5 13.5 -22 3.9 -4.9 8.3 -11.6 9.9 -14.7 1.7 -3.1 4.8 -7.6 7.1 -10 2.3 -2.4 3.6 -3.5 2.9 -2.5 -0.7 0.9 -0.8 1.7 -0.2 1.7 0.5 0 1.7 -1 2.7 -2.2 1.6 -2.3 1.6 -2.2 0.1 0.2 -2.9 4.6 -6.6 11.9 -6.6 13.1 0 0.6 2.1 -1.7 4.7 -5.2 2.5 -3.5 7.8 -9.7 11.7 -13.7 6.4 -6.6 6.8 -9 0.6 -3.8 -1.4 1.1 -0.5 0 1.9 -2.6 4.9 -5.2 14.5 -10.8 18.6 -10.8 2.1 0 2.5 -0.4 2.1 -1.7 -0.4 -1.3 1.1 -3.1 5.4 -6.6 3.3 -2.7 6 -5.4 6 -6 0 -0.5 -2.2 -4.3 -5 -8.3 -5.2 -7.8 -14.4 -28.2 -17.9 -39.9 -1.8 -6 -7.1 -30.5 -7.1 -32.7 0 -2 -4.6 0 -25.8 10.9 -12.5 6.4 -33.7 17.3 -47.2 24.2 -13.5 6.9 -25.3 13.1 -26.2 13.6 -1.4 0.9 -1.9 6 -3.7 38 -1.2 20.4 -2.8 48.9 -3.6 63.5 -0.8 14.6 -1.7 29 -2 32.1 l-0.4 5.7 21.5 0.7 c21.1 0.7 21.6 0.7 23.8 -1.4 2.8 -2.6 4 -2.7 2.6 -0.1 -0.8 1.6 -0.8 2 0.4 2 1 0 0.4 2.4 -2.5 9.5 -2.1 5.2 -3.9 10.1 -3.9 10.8 0 0.7 -3.1 7.8 -7 15.7 -3.8 7.9 -7 14.9 -7 15.6 0 0.6 -0.7 1.7 -1.5 2.4 -2.4 2 -1.9 -1.2 1.6 -9.3 3.1 -7.4 2.3 -7.4 -3.1 0.3 -5.4 7.6 -6.4 11.4 -3.1 12.5 1.1 0.3 3 2.6 4.2 5.1 1.3 2.8 2.5 4.2 3.1 3.6 0.5 -0.5 2 -4.1 3.4 -8.1z m87.2 3.3 c0.3 -1.9 -0.3 -2.2 -4.8 -2.8 -7.6 -1 -9.7 1.3 -3.7 3.9 4.5 2 8.1 1.5 8.5 -1.1z m345 -1.9 c3.1 -1.4 5.2 -3.1 5.2 -4 0 -1.2 -0.6 -1.5 -2.2 -0.9 -3.5 1 -10.8 5.5 -10.8 6.5 0 1.5 2.2 1 7.8 -1.6z m44.6 -6.6 c5.2 -3 4.5 -6.3 -0.9 -4.3 -1.8 0.7 -5 6.4 -3.6 6.4 0.5 0 2.6 -0.9 4.5 -2.1z m-737.4 -2 c1.3 -2.3 0.2 -4.9 -2 -4.9 -1 0 -2.3 -0.7 -3 -1.5 -1.1 -1.3 -1.5 -1.3 -2.2 -0.3 -0.9 1.4 -0.1 6.7 1.4 8.4 1.2 1.6 4.6 0.6 5.8 -1.7z m724.1 -3.9 c4.3 -2.2 5.8 -4.5 4.1 -6.2 -1.1 -1.1 -3.8 0 -9 3.9 -5.6 4.2 -2.1 5.8 4.9 2.3z m-745.5 -12.4 c-0.1 -2.8 -1.8 -5 -11.9 -15.1 -6.4 -6.4 -11.7 -11.3 -11.7 -10.7 0 1.3 18.7 26.1 21 27.9 2.3 1.9 2.7 1.6 2.6 -2.1z m12.7 -9.5 c2.3 -2.1 5.2 -4.3 6.4 -4.9 1.6 -0.9 2.2 -2.3 2.5 -6.4 0.4 -5.3 2.2 -13 4.2 -18 1 -2.6 1.1 -2.6 2.4 -0.7 1.2 1.7 1.1 2.3 -0.2 4.5 -1.6 2.3 -1.5 2.5 0.1 3.1 1 0.3 2.8 1.5 4.1 2.7 1.3 1.1 4.4 2.6 7 3.3 6.7 1.7 7.4 1.6 6.7 -0.7 -0.5 -1.7 -0.2 -2 2.5 -2 4.2 0 7.3 -1.7 6.6 -3.7 -0.5 -1.3 -0.4 -1.4 0.9 -0.3 1.8 1.5 1.9 3.4 0.3 6 -0.7 1 -1 2.1 -0.8 2.4 0.3 0.2 13.7 1.2 29.8 2.2 21.3 1.3 29.2 2.1 29.2 3 0 0.6 0.7 1.4 1.5 1.8 1.3 0.4 1.5 -1 1.6 -9.7 0 -5.6 0.6 -25 1.2 -43 0.7 -18.1 1.1 -33 0.9 -33.2 -0.3 -0.3 -27.1 13.2 -51.2 25.7 -6.3 3.3 -18.9 9.9 -28 14.6 -9.1 4.6 -23.3 12 -31.7 16.3 -8.4 4.4 -15.8 7.9 -16.5 7.9 -2.7 0 -15.8 7 -15.8 8.4 0 1.4 1.4 2.7 13.6 12.6 3.7 3 8.3 7 10.3 8.7 4.7 4.2 7.2 4.1 12.4 -0.6z m41.5 -16.3 c-0.3 -0.7 -1.3 -1.3 -2.3 -1.3 -1 0 -2 0.6 -2.2 1.3 -0.3 0.7 0.5 1.2 2.2 1.2 1.7 0 2.5 -0.5 2.3 -1.2z m596.8 -11.4 c-0.9 -0.8 -1.6 -2 -1.6 -2.5 0 -1.4 -2.7 -1.1 -3.3 0.5 -0.7 1.7 0.1 2.6 2.4 2.6 0.9 0 2 0.8 2.4 1.8 0.5 1.1 0.9 1.3 1.2 0.5 0.3 -0.7 -0.3 -2 -1.1 -2.9z m-661.6 -17.7 c2.5 -1.2 4.7 -2.4 5 -2.8 0.3 -0.3 2.3 -1.3 4.5 -2.3 4.8 -2.2 44.9 -22.3 89.3 -44.7 30.6 -15.5 32.2 -16.5 32.2 -19.1 l0 -2.8 -7.2 3.8 c-4 2.2 -17.2 9 -29.3 15.2 -12.1 6.2 -22.4 11.6 -23 12 -2.1 1.5 -40.4 21.4 -67.1 34.9 -14.1 7.1 -18.8 9.9 -18 10.7 0.8 0.9 2.1 0.6 5.1 -0.8 2.2 -1.1 6 -2.9 8.5 -4.1z m-75.6 -4.6 c3.6 -2.3 7.5 -8.1 5.4 -8.1 -3.5 0 -11.8 7.7 -10.1 9.4 0.9 0.9 1.2 0.8 4.7 -1.3z m454.2 -52 c2.2 -1.7 4.6 -4.1 5.4 -5.5 1.2 -2.3 1.1 -2.8 -0.5 -4.6 -2.5 -2.8 -4 -2.5 -8.1 1.3 -2.6 2.4 -3.7 4.3 -4.1 7.5 -0.5 3.7 -0.3 4.2 1.4 4.2 1 0 3.7 -1.3 5.9 -2.9z m69 -38.2 c5.2 -1.3 5.6 -3.1 1.2 -4.7 -1.8 -0.6 -5.3 -1.8 -7.7 -2.7 -2.4 -0.9 -5 -1.4 -5.7 -1.1 -2.5 1 -0.2 3.6 4.4 4.9 5.3 1.6 6.2 2.9 3 4.3 -2.4 1.1 -2.1 1 4.8 -0.7z m-33.1 -11.5 c3 -1.5 5.5 -2.8 5.5 -3 0 -0.2 -2.7 -1.7 -5.9 -3.4 -6.3 -3.1 -9.3 -6.3 -13.6 -14.5 -1.4 -2.7 -3.9 -7.2 -5.6 -9.9 -1.7 -2.7 -3.1 -6.1 -3.3 -7.5 -0.2 -1.4 -0.1 -2.1 0.1 -1.4 1.2 3.4 13.1 23.1 15.6 26 1 1.2 4.4 3.2 7.4 4.4 5.9 2.4 7.4 2.1 10 -1.7 1.2 -1.9 0.8 -2.7 -3.8 -9 -2.8 -3.8 -6.1 -8 -7.4 -9.4 -4.5 -4.9 -10.5 -17.8 -16.9 -36.4 -1.9 -5.4 -3.7 -10 -4 -10.3 -0.2 -0.3 -1.9 0.2 -3.6 1 -1.6 0.9 -2.8 1.2 -2.6 0.8 0.3 -0.4 1 -3.9 1.6 -7.6 0.6 -3.8 1.6 -7.5 2.2 -8.2 0.7 -0.9 0.9 -5.1 0.5 -12.6 -0.5 -9.3 -1.1 -12.4 -3.4 -17.5 -1.5 -3.4 -3.3 -6.2 -4 -6.2 -2.1 0 -4.5 4.7 -4.1 8 0.2 1.8 -0.3 3.4 -1 3.9 -1.1 0.7 -0.9 1.7 0.8 5.2 3.1 6 3.8 18.2 1.5 26.9 -3.3 12.3 -3.5 19.7 -0.9 25.8 1 2 1.6 4.3 1.5 5.1 -0.3 1.7 4.8 12.1 5.9 12.1 0.5 0 0.7 1.3 0.4 2.9 -0.5 2.2 -0.2 3.2 1.3 4 1.3 0.6 2.4 3 3.2 6.5 1.2 5.2 1.5 5.7 5.8 7.6 4 1.8 4.5 2.3 4 4.6 -0.3 1.6 0 2.8 0.9 3.1 1 0.3 1.4 2.3 1.4 6.2 0 3.2 0.3 6.1 0.7 6.4 1.2 1.3 4.3 0.7 9.8 -1.9z m-136.5 -34.8 c38.4 -19.2 84.3 -42.7 85.8 -43.9 1.8 -1.4 1.5 -5.7 -0.4 -5.7 -1.3 0 -23.3 11 -47.4 23.7 -4.1 2.2 -21.9 11.3 -39.5 20.3 -17.6 9 -33.3 17.2 -35 18.2 l-3 1.9 6.5 -0.6 c5.8 -0.5 9.4 -2 33 -13.9z m221.7 -6.9 c1.1 -3.8 1.1 -5.2 0.2 -6.3 -0.8 -1 -0.9 -4.6 -0.4 -12.9 0.6 -10 1.1 -12.3 3.6 -16.9 1.5 -3 2.6 -5.6 2.3 -5.9 -0.3 -0.3 0.2 -2.9 1 -5.7 0.9 -2.9 1.3 -5.6 1 -6.1 -0.7 -1.2 1.7 -8.9 2.9 -8.9 0.6 0 0.7 1.6 0.4 3.7 -0.4 2 -0.2 4.2 0.4 4.9 0.7 0.8 0.3 2.6 -1.3 5.8 -2.1 4.4 -2.1 4.6 -0.4 5.9 1.8 1.3 1.7 1.7 -0.3 9.9 -2.1 8.3 -2.1 8.9 -0.5 13.7 0.9 2.8 1.8 5.1 1.9 5.1 0.2 0 1.1 -2.6 2 -5.7 1.3 -4.2 1.6 -7.6 1.1 -12.5 -0.4 -4.5 -0.3 -6.8 0.4 -6.8 0.6 0 1 -1.5 0.9 -3.2 -0.8 -10.6 0.7 -17.2 3.3 -15.1 0.7 0.6 3.4 1.3 5.9 1.6 2.6 0.4 5.8 1.1 7.1 1.8 l2.5 1.1 -1.7 4.5 c-0.9 2.4 -2.4 5.3 -3.3 6.4 -2 2.2 -2.2 2.1 11.2 6.5 7.8 2.6 12.1 3 12.1 1.4 0 -1 -6.4 -9.8 -11.5 -15.8 -1.1 -1.3 -3 -2.8 -4.3 -3.3 -1.2 -0.5 -2.7 -2 -3.2 -3.4 -0.5 -1.4 -2.1 -3.7 -3.4 -5.2 -2.7 -2.9 -4.8 -8.1 -6.5 -16.3 -1.4 -6.7 -4.1 -29.4 -4.1 -34.7 0 -3 3.7 -20.6 4.7 -22.2 0.1 -0.2 0.9 0.2 1.8 0.9 1.2 1 1.8 0.8 3.6 -1.1 1.1 -1.3 1.8 -1.8 1.4 -1.1 -0.3 0.6 -0.1 1.2 0.5 1.2 0.6 0 1.3 -0.7 1.6 -1.5 0.4 -0.8 1 -1.3 1.4 -1 0.7 0.4 7 -2.2 7 -2.9 0 -0.2 0.5 -2.8 1 -5.7 0.6 -3 1.5 -11.7 2.1 -19.4 1.2 -18 2.4 -28.3 3.9 -31.9 0.6 -1.6 1.9 -5.9 3 -9.5 2.2 -8 5.4 -17.1 6.8 -19.7 4.5 -8.5 7.2 -21.5 7.2 -35.3 0 -9.5 -0.6 -14.1 -1.9 -14.1 -0.3 0 -0.7 5.9 -0.8 13.2 -0.1 7.4 -0.7 13.6 -1.3 14.2 -0.5 0.5 -1 1.8 -1 2.8 0 2.5 -3.7 12 -5.6 14.4 -1.4 1.8 -1.5 1.8 -0.8 -0.6 0.3 -1.4 1.2 -3.2 1.9 -4 1.1 -1.4 4.5 -12.4 4.5 -14.8 0 -0.7 -0.4 -1.2 -0.9 -1.2 -0.6 0 -1.3 2.1 -1.6 4.8 -0.8 6.2 -8.5 21.9 -15.1 30.7 -6.1 8.2 -9.5 14.8 -11.8 22.6 -0.9 3.1 -2.5 6.7 -3.7 8 l-2 2.4 0.5 -3.7 c0.9 -7.1 -2.2 -5.3 -6.6 3.7 -1.5 3.1 -2.9 8.7 -3.7 14.5 -0.7 5.2 -1.9 11.5 -2.6 14 -0.8 2.5 -1.9 7.9 -2.5 12 -0.7 4.1 -1.6 9.5 -2.1 12 -0.5 2.5 -1.2 7.4 -1.5 11 -0.8 12.2 -2.4 26.5 -3.3 31.5 -0.6 2.8 -1.3 9.3 -1.6 14.5 -0.6 9.2 -1.2 12.1 -4 22.5 -0.7 2.8 -1.8 8.8 -2.4 13.5 -0.6 4.7 -1.7 12.1 -2.5 16.5 -0.7 4.4 -1.7 10.9 -2 14.5 -0.6 5.8 -0.5 6.9 1.5 9.3 3.2 4.2 5.9 3.3 7.6 -2.6z m-49.4 -11.4 c1.5 -2.3 6.1 -7.8 10.2 -12.1 4.1 -4.4 7.5 -8.4 7.5 -9 0 -0.5 -1.1 -1.3 -2.4 -1.6 -1.3 -0.3 -7.6 -6 -13.9 -12.6 -6.4 -6.6 -12 -12 -12.5 -12 -0.8 0 -28.1 13.6 -28.9 14.4 -0.8 0.8 5 11.2 13.3 23.8 9 13.7 9 13.7 18.4 13.4 5.2 -0.1 5.5 -0.3 8.3 -4.3z m-34.3 -51.8 c4.1 -2.2 8.7 -4.7 10.3 -5.4 2.9 -1.5 3.5 -4.2 1.4 -5.9 -1 -0.9 -4.1 0.3 -12.8 4.7 -11.2 5.8 -13.2 7.8 -10.9 10.6 1.4 1.6 2.1 1.4 12 -4z m-10.9 -7.5 c1 0 1.9 -0.4 1.9 -1 0 -0.5 0.3 -0.9 0.8 -0.9 0.4 0.1 1.4 0.1 2.2 0 1.2 -0.1 1.2 -0.3 0.2 -1 -1.1 -0.7 -1.1 -0.9 0.2 -1.4 0.9 -0.4 1.6 -0.2 1.6 0.3 0 0.5 0.7 0.7 1.5 0.4 0.8 -0.4 1.5 -1.4 1.5 -2.3 0 -1.3 0.2 -1.3 0.9 -0.2 0.7 1 1.1 0.9 2.2 -0.5 0.8 -1.1 2 -1.9 2.7 -2 0.6 -0.1 1.6 -0.2 2.1 -0.2 2.2 -0.4 -3.6 -16.2 -12.7 -34.2 -3.7 -7.4 -7.5 -15.3 -8.4 -17.5 -0.9 -2.2 -2.4 -5.8 -3.3 -8 -2.4 -5.9 -5.3 -19.2 -6.5 -29.4 -0.5 -4.9 -1.3 -9.7 -1.6 -10.5 -1.2 -3.2 -2.1 -1.5 -2.8 5.2 -0.3 3.7 -1.7 12.3 -3 19.2 -1.3 6.9 -3 17.9 -3.6 24.6 -1.6 15.3 -0.8 18.2 10.8 39.6 2.3 4.2 5.2 10.3 6.3 13.5 2.3 5.9 4.1 8.8 4.7 7.2 0.2 -0.5 1.2 -0.9 2.3 -0.9z m223.4 -2.6 c-4.8 -4 -7.4 -4.9 -3 -1 2.2 2 4.5 3.6 5 3.5 0.6 0 -0.3 -1.1 -2 -2.5z m-134.7 -9.7 c0.2 -1.1 -0.3 -1.7 -1.5 -1.7 -1 0 -2.7 -0.6 -3.8 -1.3 -1.1 -0.8 -6.8 -2.9 -12.7 -4.8 -5.9 -1.9 -10.8 -3.9 -10.8 -4.5 0 -0.7 -0.7 -1.4 -1.5 -1.8 -0.8 -0.3 -1.5 -1.2 -1.5 -2 0 -0.7 -0.7 -1.7 -1.6 -2 -2.2 -0.8 3.1 8.7 6.9 12.4 2.2 2.1 4.3 3 8.6 3.5 3.1 0.4 7.9 1.5 10.6 2.5 5.8 2 6.9 2 7.3 -0.3z m-14.1 -12.9 c4.6 -2.3 5.2 -4.2 2 -6.2 -1.4 -0.9 -3 -0.4 -8.2 2.3 l-6.5 3.5 2.7 1.2 c4 1.8 5 1.7 10 -0.8z m133.2 -18.8 c0 -0.8 -0.8 0.1 -1.9 2 -1.1 1.9 -1.9 4.9 -1.9 6.5 0.1 2.6 0.3 2.4 1.9 -2 1 -2.7 1.9 -5.7 1.9 -6.5z m-73.2 -11.7 c1.2 -0.5 2.3 -3.6 2.3 -6.6 0 -1.5 -1 -1.2 -7.2 1.9 -3.9 2 -6.7 3.9 -6.1 4.2 0.5 0.4 1.2 1.5 1.6 2.5 0.6 1.6 0.9 1.6 4.4 0.1 2.1 -0.9 4.3 -1.8 5 -2.1z m144.8 -12.4 c1.2 -1.9 -0.5 -2.3 -2.2 -0.6 -1.6 1.6 -1.6 1.7 -0.1 1.7 0.9 0 2 -0.5 2.3 -1.1z m-103 -8.7 c3 -1.9 7.4 -8.6 6.3 -9.7 -0.3 -0.3 -2.7 0.7 -5.4 2.3 -4 2.3 -5 3.4 -5.2 6 -0.4 3.7 0.2 3.9 4.3 1.4z m137.5 -22.7 c4.6 -4.6 8.1 -8.7 7.7 -9.1 -0.3 -0.3 -2.6 0.3 -5 1.5 -2.4 1.1 -5.1 2.1 -6 2.1 -0.9 0 -1.7 0.8 -1.7 1.7 0 0.9 -0.8 2.5 -1.7 3.5 -2.4 2.7 -4.4 8.8 -2.9 8.8 0.6 0 4.9 -3.8 9.6 -8.5z m-28.5 -2.9 c0 -2.3 0.4 -3.5 1.1 -3.2 1.8 0.7 0.4 -3.3 -1.5 -4.4 -1.1 -0.6 -2.4 -0.3 -4 0.9 l-2.3 1.7 2.3 4.7 c2.7 5.5 4.4 5.6 4.4 0.3z m7.1 -9.9 l2.1 -3.3 -3.4 0.4 c-2.5 0.3 -3.3 0.8 -2.9 1.9 0.3 0.8 0.6 2.1 0.6 2.9 0 2.3 1.4 1.6 3.6 -1.9z m-159.8 -64.9 c2 -2.2 3.9 -4.6 4.2 -5.2 0.3 -0.6 1.8 -3.3 3.4 -5.9 l2.8 -4.8 -2.3 -7.2 c-3 -9.5 -3.8 -10.7 -7.2 -10.7 -3.4 0 -8.7 4.8 -8.7 7.9 0 1.2 -0.6 2.1 -1.3 2.1 -0.7 0 -2.2 0.7 -3.5 1.5 l-2.2 1.6 2.6 6.7 c4.1 10.7 5.2 14.9 4.6 17.7 -0.4 2.5 -0.3 2.6 1.7 1.5 1.2 -0.6 3.9 -3 5.9 -5.2z m15.8 -7.4 c-0.5 -1.3 -1 -1.4 -1.8 -0.6 -0.6 0.6 -0.8 1.8 -0.4 2.8 0.5 1.3 1 1.4 1.8 0.6 0.6 -0.6 0.8 -1.8 0.4 -2.8z m128.8 -140 c0.7 -2.3 -1.6 -6 -3.1 -5.1 -0.6 0.4 -1.8 2.7 -2.8 5.3 -1.7 4.6 -1.7 4.8 0.1 6.1 1.6 1.2 2 1 3.5 -1.4 0.9 -1.6 2 -3.7 2.3 -4.9z m245.6 -4.4 c2.4 -0.1 2.4 -0.1 0.3 -1 -2.7 -1.1 -12.3 -1.1 -12.3 0 0 1.3 2.2 1.8 6 1.4 1.9 -0.1 4.6 -0.3 6 -0.4z m-241.8 -20.8 c1.2 -1 1.5 -2.3 1.2 -4.2 -0.5 -2.4 0 -3.1 4.5 -6 2.8 -1.9 5.1 -3.9 5.1 -4.5 0 -1.6 -5.5 -3.9 -7.4 -3.2 -2.7 1.1 -7.4 8.6 -8 13 -1.1 7.3 0.2 8.7 4.6 4.9z"/>
  <path d="M2504 500.6 c0 -1.9 0.5 -4.7 1 -6.1 0.9 -2.3 1.3 -2.5 2.5 -1.5 1.9 1.6 1.9 3.1 -0.2 7.5 -2.1 4.4 -3.3 4.5 -3.3 0.1z"/>
  <path d="M2506.1 485 c0 -5.1 0.1 -5.3 1.4 -3.6 1.8 2.4 1.8 3.4 0 6.6 -1.4 2.4 -1.4 2.3 -1.4 -3z"/>
  <path d="M2515.1 408.3 c0 -0.4 0.4 -1.7 0.9 -2.8 0.8 -1.9 0.9 -1.9 0.9 0.2 0.1 1.2 -0.3 2.5 -0.9 2.8 -0.5 0.3 -1 0.3 -0.9 -0.2z"/>
  <path d="M2509.3 401.5 c0 -2.2 0.2 -3 0.4 -1.7 0.2 1.2 0.2 3 0 4 -0.3 0.9 -0.5 -0.1 -0.4 -2.3z"/>
  <path d="M2510.7 391.3 c0.3 -2.7 0.7 -5 0.9 -5.2 0.7 -0.9 1.6 5.1 1 7.4 -1.1 4.5 -2.6 2.7 -1.9 -2.2z"/>
  <path d="M2527.5 364.3 c1.6 -3.8 2.5 -5.2 2.5 -3.9 0 1.2 -2.9 7.6 -3.5 7.6 -0.3 0 0.2 -1.7 1 -3.7z"/>
  <path d="M2533 351.3 c0 -0.6 0.4 -1.4 0.9 -1.7 0.5 -0.3 2 -3.1 3.5 -6.2 2.7 -5.6 4 -6.8 2.9 -2.6 -0.3 1.2 -0.9 2.2 -1.3 2.2 -0.4 0 -1.1 1 -1.4 2.3 -0.7 2.6 -4.5 7.7 -4.6 6z"/>
  <path d="M1406.5 1412.2 c-1.1 -35.2 -0.3 -49.3 3.9 -69.7 6.9 -33.5 9.2 -58.5 8.2 -90.5 -0.8 -29 -2.9 -46.3 -10.1 -83.1 -12.9 -65.9 -15.4 -116.5 -8.5 -172.4 2.9 -23.7 4 -46 6.5 -124.5 1.7 -51.6 6.7 -85.9 17.2 -117.2 l3.7 -10.8 77.7 0 77.7 0 0.6 16.3 c0.4 8.9 1.1 24.8 1.7 35.3 1 20 0.3 36.2 -2.5 54.9 -6.1 41.5 -8.7 74.8 -9.3 122.5 -0.6 44 0.2 65.1 4.2 110 7.7 86.7 5.9 146.2 -8 274.6 -2.5 22.7 -4.5 42.1 -4.5 43.3 0 1.7 -0.6 2.1 -3 2.1 -1.9 0 -3 0.5 -3 1.4 0 2.9 -18.9 9.4 -34 11.7 -4.1 0.6 -23.2 1.2 -42.5 1.4 -32.1 0.2 -35.7 0.4 -43.5 2.4 -9.8 2.5 -20.6 7.4 -27.1 12.5 l-4.7 3.5 -0.7 -23.7z"/>
  <path d="M37 1422.9 c0 -4 0.4 -5.8 1.4 -6.2 4.5 -1.7 5.8 -20.4 2.9 -41.2 -1.5 -10.6 -1.7 -28.9 -2 -158.5 -0.3 -101.7 -0.1 -151.1 0.7 -161.5 0.6 -8.2 2.6 -24 4.5 -35 5.9 -34.7 6.9 -46.4 6.9 -83 0.1 -19.4 -0.4 -38.8 -1.2 -47 -3.3 -35.7 -7.6 -77.1 -10.3 -98.5 -1.6 -12.9 -2.9 -24 -2.9 -24.6 0 -3.2 57.2 -14.9 82.5 -17 5 -0.4 9.9 -1.3 11 -2 3.3 -2 11.8 -4.2 23.2 -5.8 16.6 -2.4 50.4 -5.8 51 -5.2 0.3 0.2 0 13.7 -0.6 29.9 -0.6 16.1 -1.1 31.3 -1.1 33.7 0 4.4 0 4.4 1.9 2.5 1.1 -1.1 4.9 -7.8 8.6 -14.9 6.6 -12.9 16 -27.5 17.9 -28.1 0.6 -0.2 2.3 -0.6 3.8 -0.9 1.5 -0.3 2.9 -1.4 3.3 -2.4 0.3 -1.1 2.3 -2.4 4.8 -3.2 2.3 -0.7 9.8 -3.4 16.6 -6.1 6.8 -2.8 15.1 -5.6 18.5 -6.4 9.4 -2.3 25.9 -1.9 43.1 1 8.3 1.3 21.1 2.9 28.5 3.5 7.4 0.6 15.7 1.5 18.3 2 2.7 0.6 8.8 1 13.6 1 8.3 0 8.9 0.2 11.4 2.8 2.7 2.8 2.7 2.9 2.7 18.3 0 28.4 2.6 55.1 8.4 88.1 1.9 10.6 4 24.7 4.6 31.3 1.9 18.4 1.5 47 -0.8 72.5 -2.7 27.9 -4.2 54.2 -4.2 71.1 l0 12.9 -3.4 0 c-3.8 0 -121.3 -8.6 -131.5 -9.6 l-6.4 -0.7 0.7 -12.6 c0.8 -14.4 2.4 -28.3 6.6 -59.6 4 -30.1 6 -49.7 6 -60.5 l0 -9 -3.6 0 c-3.3 0 -19.2 1.6 -26.1 2.6 -1.8 0.3 -3.3 0.9 -3.3 1.3 0 0.5 -1.7 2.6 -3.7 4.7 -4.2 4.5 -8.6 13.4 -10.7 21.9 -2.8 11.1 -3.6 23.8 -3.6 60.5 0 32.4 -0.2 37.6 -2 46 -6.4 31 -8.7 63.2 -7 99.1 1.5 29.9 0.8 66.1 -1.5 82.9 -0.9 6.3 -3 18.3 -4.7 26.5 -7.5 36.5 -8.7 50.2 -6.9 84.8 0.6 13.3 1.5 36.4 1.8 51.4 0.7 29.2 0.5 30.3 -4.2 30.3 -1.3 0 -2.5 0.6 -2.8 1.3 -0.3 0.9 -4.2 1.1 -16.1 0.9 -15.3 -0.2 -16.7 -0.1 -42.4 4.8 -45.3 8.4 -81.8 14.1 -97.9 15.3 l-4.3 0.3 0 -5.7z"/>
  <path d="M2869.3 1412.1 c6.1 -8.2 11.4 -14.7 11.6 -14.5 0.2 0.2 -1.6 2.9 -4 6.1 -2.4 3.2 -5.7 7.7 -7.2 10 -1.6 2.3 -3.9 5.3 -5.3 6.5 -1.3 1.3 -2.4 2.8 -2.4 3.3 0 0.6 -0.9 1.6 -2 2.3 -1.1 0.6 3.1 -5.5 9.3 -13.7z"/>
  <path d="M1102.7 1423.4 c-8.8 -1.9 -15.9 -4.7 -21.1 -8.4 -5.5 -3.7 -20.4 -19.4 -22.3 -23.6 -0.9 -1.7 -4.7 -6.5 -8.4 -10.5 -6.6 -7.1 -6.9 -7.6 -6.9 -12.4 -0.1 -9.8 -1.7 -2.1 -2.4 11 -0.4 7.2 -0.9 16.6 -1.3 20.9 l-0.6 7.9 -19.6 -0.6 c-26.9 -0.9 -35.1 -1.7 -35.1 -3.3 0 -0.8 -3 -2.3 -7.2 -3.6 -6.5 -2 -9.2 -2.3 -24.3 -2.2 -9.3 0.1 -23.5 0.9 -31.5 1.8 -8 0.9 -20.9 1.9 -28.7 2.3 l-14.3 0.6 0 -2.6 c0 -1.5 -0.5 -2.7 -1.1 -2.7 -0.7 0 -0.9 -1.6 -0.4 -4.7 0.3 -2.7 1 -58.1 1.4 -123.3 0.5 -67.8 1.3 -126.6 2 -137.5 2.7 -44.8 7.2 -85.7 14.2 -128.8 7.2 -44.8 8 -58.6 4.8 -83.7 -0.9 -6.7 -1.1 -23 -0.9 -56 1 -116.5 0.8 -122.9 -6.9 -159 -4.4 -20.9 -5.5 -33.8 -5.5 -69 -0.1 -31.6 0 -34.1 2.2 -44 1.3 -5.8 3.9 -14.3 5.7 -19 1.8 -4.7 3.6 -10 3.9 -11.8 0.6 -2.5 1.3 -3.2 3.1 -3.2 1.3 0 2.5 -0.6 2.7 -1.2 0.4 -1 16.2 -1.4 72.9 -1.8 39.8 -0.3 72.8 -0.2 73.4 0.3 0.5 0.4 2.8 40.5 5.1 90.5 3.6 75 4.3 97.1 4.3 134.6 l0.1 44.9 2.6 -2.4 c9.3 -8.7 21.4 -28.4 41.7 -68 l14.7 -28.5 9 -4.7 c8.6 -4.5 9.5 -4.8 20 -5.5 21.7 -1.5 38.9 0.9 60.5 8.4 34.5 12.1 44.9 14.7 66.4 16.7 9.1 0.9 12.6 1.6 13.1 2.7 1.1 2.1 6 19.2 6 20.8 0 0.6 0.5 1.2 1.1 1.2 0.6 0 2.6 3.4 4.5 7.5 1.9 4.1 4.5 8.6 5.9 10.1 1.6 1.8 2.5 3.9 2.5 6 0 1.9 2 11.2 4.5 20.8 2.4 9.5 4.8 20 5.1 23.2 0.5 3.9 1.5 6.8 3 8.6 2.8 3.5 6.1 13.3 7.4 22.3 1.6 11.4 1.2 30.2 -1.5 64.1 -2.6 33.4 -31.7 323.7 -33.6 335.9 -1.8 11 -9.8 34.3 -19.3 55.5 -13.1 29.3 -19.6 50.5 -19.6 64 0 4.2 -0.5 5.3 -3.7 8.6 -2.1 2.2 -5.2 6 -7 8.6 -2 2.9 -4.6 5.3 -6.8 6.2 -2 0.9 -4.4 3 -5.6 5.1 -2 3.3 -2.3 3.5 -7.7 3.5 -9.4 0 -39.5 2.9 -58.7 5.6 -22.9 3.3 -51.5 4.1 -61.8 1.8z m29 -190.6 c0.6 -0.7 1.5 -10.9 2.2 -22.7 2.2 -40.9 5.3 -60.2 24.6 -154.8 l12.5 -61.2 0 -18 c0 -15.4 -0.2 -18.1 -1.5 -18.1 -1.2 0 -1.5 -1.4 -1.5 -6.2 l0 -6.1 -9.2 0.7 c-5.1 0.3 -14.5 1.8 -20.8 3.2 -29.9 6.6 -40.1 8.5 -47.5 8.9 l-7.9 0.4 -2.2 4.3 c-1.9 3.9 -2.2 6.4 -2.7 29.3 -0.9 33.7 -3.1 58.8 -8.7 99 -4 28.9 -5 41.1 -5 61.5 0 25.8 3.6 52.1 9.9 72.9 l1.7 5.6 22.9 1.1 c32.8 1.5 32.1 1.5 33.2 0.2z"/>
  <path d="M2886.3 1383.3 c-3.1 -6.8 -3.2 -7.3 -2.8 -7.3 0.4 0 3.2 5.3 4.6 8.8 1.4 3.7 0.1 2.5 -1.8 -1.5z"/>
  <path d="M2703 1236.1 c0 -1.6 -0.3 -3.6 -0.6 -4.5 -0.5 -1.3 0.1 -1.6 3 -1.6 2 0 3.6 0.2 3.6 0.5 0 0.7 -5.2 8.5 -5.6 8.5 -0.2 0 -0.4 -1.3 -0.4 -2.9z"/>
  <path d="M2691.7 1226.3 c-1.4 -1.3 -0.6 -2.4 1.5 -2.1 2.7 0.4 3.6 2.8 1.1 2.8 -1.1 0 -2.3 -0.3 -2.6 -0.7z"/>
  <path d="M3588.4 1221.4 c-2.1 -1.5 -4 -3 -4.2 -3.5 -0.5 -1.4 -20.4 -17.4 -23.7 -19.2 -4.3 -2.2 -10.7 -10.8 -16.2 -21.7 -2.7 -5.2 -6.3 -12.3 -8.1 -15.9 -1.9 -3.7 -4.1 -10.4 -5.3 -15.9 -1 -5.2 -3.2 -13.3 -4.9 -18 -2.4 -6.9 -3 -10.3 -3 -17.2 -0.1 -4.8 -0.7 -10.2 -1.5 -12.5 -0.8 -2.2 -1.5 -6.3 -1.5 -9.2 0 -2.9 -0.6 -7.2 -1.4 -9.5 -0.8 -2.4 -1.7 -6.1 -2.1 -8.3 -0.4 -2.1 -1.4 -5.5 -2.4 -7.5 -1 -1.9 -2.8 -8.2 -4.1 -14 -5.6 -25.7 -12 -47.8 -16.4 -57 -11.1 -23.1 -28.3 -45.7 -54.6 -72 -17.8 -17.8 -49.6 -48.5 -58 -56.1 -8.8 -8 -12.1 -10.6 -22.9 -18.4 -2.3 -1.6 -6.2 -4.4 -8.5 -6.1 -2.4 -1.8 -6.5 -4.4 -9.2 -5.9 -2.6 -1.5 -6 -3.6 -7.4 -4.7 -5.7 -4.4 -33.5 -21.7 -44.5 -27.8 -10.8 -5.9 -11.9 -6.6 -20.5 -12.6 -4.7 -3.3 -12.1 -8.1 -16.5 -10.8 -4.4 -2.7 -9.6 -6.3 -11.5 -8.1 -1.9 -1.8 -6.4 -5.2 -10 -7.5 -7.7 -5.2 -17.6 -12.9 -28 -21.9 -4.1 -3.5 -8.8 -7.3 -10.6 -8.3 -3.1 -1.8 -15.8 -15.3 -24.9 -26.3 -2.7 -3.3 -8 -9.2 -11.9 -13.2 -4.8 -5 -6.5 -7.4 -5.5 -7.7 0.8 -0.2 11.5 -3.5 23.9 -7.1 47 -13.9 73.6 -23.7 99.2 -36.5 l15.7 -7.8 21.8 19 c30.8 26.9 40.8 35.3 74.7 62.3 37.4 29.8 47 38.1 62.1 53.6 32.8 33.8 50.1 63.1 72.9 123.8 24.6 65.1 32.4 106.3 35.6 187.1 1.8 45.6 3.9 60.8 11.6 83.8 5.1 15.1 14.2 36.8 21.5 51.3 2.7 5.4 4.8 9.9 4.5 9.9 -0.2 0 -2.1 -1.2 -4.2 -2.6z"/>
  <path d="M3588.7 1206.8 c-11.8 -24.1 -21.7 -51.6 -25.1 -69.6 -2.2 -11.8 -3.5 -28.7 -4.6 -63.2 -1.6 -48.5 -4.7 -81.2 -11.1 -115.4 -7.3 -38.8 -28.7 -112.2 -40.7 -139.2 -10.7 -24.2 -26.9 -48 -46.7 -68.3 -15 -15.4 -23.4 -22.6 -56 -48.1 -27.2 -21.3 -39.2 -30.9 -71.5 -57.5 -32.8 -27 -68 -54.5 -69.9 -54.5 -1 0 -4.5 1.8 -7.8 3.9 -21.2 13.7 -39.9 23 -65.3 32.4 -20.3 7.5 -27.2 9.7 -58.8 18.3 l-23.4 6.3 -6.1 -2.9 c-17.9 -8.5 -42.8 -17.2 -77.2 -27 -19.9 -5.7 -44.3 -13.4 -49 -15.4 l-3 -1.3 6 -1.2 c52.1 -10.7 95.1 -23 131 -37.6 22.2 -9 64 -31 64 -33.6 0 -0.8 -10.4 -6.7 -24 -13.8 -77.8 -40 -89.6 -47.6 -111.8 -72 -9.1 -10.1 -16.9 -21.3 -23.6 -34.2 -6.7 -12.7 -9.6 -20.2 -21.8 -56.3 -5.7 -17 -11.1 -32.2 -11.9 -33.7 -2.1 -4.2 -1.8 -4.7 4.2 -6.5 8.2 -2.3 41.7 -16.5 53.6 -22.5 5.6 -2.9 13.1 -7.2 16.7 -9.7 7.1 -4.7 12.1 -7.5 12.6 -7 1.4 1.5 8.5 26.7 16.5 58.6 8.5 34.1 14.1 51.6 21.4 66.6 13.1 27 29 45.2 60.1 68.6 18.8 14.1 48.8 34.9 50.4 35 0.7 0 9.8 -6.1 20.2 -13.5 25.6 -18.3 58.8 -40.4 85.9 -57 43.1 -26.4 95.6 -60.6 133.4 -86.8 l15.9 -11 1.8 2.4 c7.3 9.2 13.6 17.4 14.9 19.3 0.8 1.2 3.5 4.8 6 8.1 11.7 15.7 31.4 46.7 30.8 48.6 -0.4 1 -33.2 25.7 -54.8 41.3 -28.1 20.2 -77.2 52.2 -129.5 84.4 -39.2 24.1 -41.5 25.6 -41.5 26.4 0 1.5 34.1 27.7 105 80.6 23.9 17.9 50.3 37.6 58.7 43.9 60 45 81.8 79.2 88.7 139.3 1.9 16 11 135.6 12.6 165 0.6 11.2 1.5 44.3 2 73.5 0.8 46.4 1.1 54.4 2.9 64 3.1 17.1 10.1 38.3 19.4 58.9 3.5 8 8.3 25.3 7.3 26.4 -0.2 0.2 -3.3 -5.6 -6.9 -13z"/>
  <path d="M2823 1202.5 c-0.7 -0.9 -1.1 -1.8 -0.8 -2 0.3 -0.3 1.1 0.1 1.8 1 0.7 0.9 1.1 1.8 0.8 2 -0.3 0.3 -1.1 -0.1 -1.8 -1z"/>
  <path d="M3583.3 1172.2 c-2.8 -7.5 -6.3 -18.3 -7.7 -24 -5.4 -20.8 -5.6 -23.7 -5.6 -127.2 0 -96.1 0.6 -126.6 3.6 -174.5 3.5 -55.9 0.3 -82.2 -13.2 -109 -11.9 -23.6 -30.1 -41.8 -66.4 -66.7 -5.2 -3.6 -21 -14.4 -35 -24 -14 -9.6 -39.1 -26.6 -55.7 -37.9 -16.7 -11.2 -30.3 -20.7 -30.3 -21 0 -0.4 5.1 -3.5 11.3 -6.9 43.7 -24.5 75.9 -47.3 119.3 -84.4 25.5 -21.9 48 -40.6 48.8 -40.6 0.6 0 24.7 31.2 32.1 41.5 4.7 6.6 18.1 22.9 20 24.5 1 0.8 4.9 5.6 8.5 10.6 3.7 5 9.8 12.8 13.6 17.5 13.9 17.3 24.3 34.8 31.1 52.3 11.8 30.6 15.4 52.6 15.4 94.4 0.1 44.8 -3.1 61.8 -22.1 119.7 -25 76.1 -33.5 110.3 -45.5 182.5 -2 11.8 -6.1 32.5 -9 46 -8.3 37.5 -12.5 65.3 -12.5 82.5 0 9.4 1.6 30.2 3.6 46.4 0.7 6.3 1.2 11.6 1.1 11.8 -0.2 0.1 -2.6 -5.9 -5.4 -13.5z"/>
  <path d="M2805.4 1040.3 c1.5 -4 3.8 -9.6 6.4 -15.3 2.5 -5.7 9.6 -15.1 15.6 -20.8 3.1 -2.9 5.6 -4.9 5.5 -4.5 0 0.5 -2 3.5 -4.5 6.8 -8 10.9 -15.1 21.9 -19 29.3 -4.2 8.2 -6 10.2 -4 4.5z"/>
  <path d="M480.5 1016.3 c-1.1 -0.3 -2.9 -1.2 -4 -1.9 -1.8 -1.3 -1.5 -1.4 2.8 -1.4 4 0 4.7 0.3 4.7 2 0 2.1 -0.1 2.1 -3.5 1.3z"/>
  <path d="M1650.5 1016.3 c-1.1 -0.3 -2.9 -1.2 -4 -1.9 -1.8 -1.3 -1.5 -1.4 2.8 -1.4 4 0 4.7 0.3 4.7 2 0 2.1 -0.1 2.1 -3.5 1.3z"/>
  <path d="M2587.5 1002.4 c-1 -2.6 -2.1 -6.1 -2.6 -7.8 -0.4 -1.7 -1.2 -4.6 -1.8 -6.4 -0.8 -2.8 -0.8 -3.2 0.4 -2.2 0.7 0.6 1.8 3.2 2.4 5.8 0.5 2.6 1.7 6.9 2.5 9.7 2 6.3 1.4 6.9 -0.9 0.9z"/>
  <path d="M2568.5 969.5 c-1.6 -1.3 -2.5 -2.4 -2 -2.5 0.6 0 2.4 1.1 4 2.5 1.7 1.3 2.6 2.4 2 2.5 -0.5 0 -2.3 -1.1 -4 -2.5z"/>
  <path d="M2555.5 964.5 c-4.2 -1.4 -2.9 -1.9 2.4 -0.9 1.7 0.4 3.1 1 3.1 1.5 0 1.1 -0.4 1 -5.5 -0.6z"/>
  <path d="M2480.3 803.3 c-0.7 -1.9 0.4 -4.3 2 -4.3 1.5 0 5.7 3.6 5.7 4.9 0 1.3 -7.2 0.7 -7.7 -0.6z"/>
  <path d="M2400 795.5 c-1.3 -3.5 -1.3 -5.1 0.4 -8.3 0.7 -1.5 1.6 -4.3 2 -6.2 0.3 -1.9 3.1 -8.4 6.2 -14.5 4.2 -8.2 5.6 -12 5.5 -15 -0.1 -5.1 0.7 -7.5 2.5 -7.5 0.8 0 1.9 -1.1 2.4 -2.5 2.3 -6.1 7.4 -4 13.5 5.5 2.5 3.9 4.5 7.3 4.5 7.6 0 0.8 5.7 8.2 9.4 12.2 2.7 2.9 2.8 3.2 1 3.4 -1 0 -2.6 0 -3.4 0 -2 -0.3 -13 1.8 -15.5 2.8 -1.1 0.5 -2.5 1 -3.2 1.2 -0.6 0.2 -5.8 5.4 -11.5 11.7 -5.6 6.3 -10.9 11.6 -11.5 11.9 -0.7 0.2 -1.7 -0.8 -2.3 -2.3z m34.5 -32.7 c-1.5 -5.1 -8.4 -13.2 -10 -11.6 -0.9 0.9 1.9 6.9 4.9 10.6 3.3 3.8 6.1 4.4 5.1 1z"/>
  <path d="M2465.6 794.5 c-2 -1.6 -2.3 -1.3 3 -3 1.1 -0.4 1.5 0.1 1.2 1.7 -0.4 2.7 -1.8 3.1 -4.2 1.3z"/>
  <path d="M2497.5 787.1 c-4.4 -0.5 -8.7 -2 -16.1 -5.8 -5.5 -2.8 -10.6 -5.9 -11.4 -6.8 -0.7 -0.9 -2.7 -2.3 -4.4 -3.2 -1.7 -0.8 -4.1 -2.4 -5.3 -3.6 -1.8 -1.6 -2.5 -1.8 -3.7 -0.8 -0.8 0.7 -1.9 1 -2.4 0.7 -0.9 -0.5 -9.2 -14.2 -9.2 -15.1 0 -0.4 0.9 -0.3 2 0 1.4 0.4 2 0.2 2 -0.9 0 -0.8 -0.4 -1.8 -1 -2.1 -0.5 -0.3 -1 -1.4 -1 -2.4 0 -0.9 -2.2 -4.9 -5 -8.7 -6.9 -9.6 -12.5 -20.4 -10.6 -20.4 0.8 0 1.8 0.5 2.1 1 1.5 2.4 2.7 0.8 2.1 -2.7 -0.3 -2.1 -0.1 -8.9 0.5 -15.2 1.4 -13.6 4.1 -19.1 10.9 -22.2 3.5 -1.6 4 -2.2 3.8 -4.5 -0.2 -1.5 0.3 -3 1.2 -3.5 2.2 -1.2 8 -3.5 12 -4.6 1.9 -0.6 5.4 -1.6 7.8 -2.3 3.8 -1.2 5 -1.1 11.5 0.9 3.9 1.3 9.5 3.4 12.4 4.7 2.8 1.3 6 2.4 7 2.4 1 0 4 1.8 6.7 4 4 3.4 5.4 4 7.7 3.5 2.5 -0.6 3.6 0.1 7.9 4.4 2.8 2.8 5.8 5.1 6.6 5.1 2.8 0 1 -9.1 -3.6 -18.2 l-4.2 -8.3 0.6 -9.3 c0.6 -10.4 1.2 -12 6.6 -17.7 2.7 -2.8 4.3 -5.7 5.3 -9.7 1.1 -4.1 2.8 -7.2 6.3 -11.2 2.6 -3.1 5.5 -5.6 6.4 -5.6 0.9 0 2.5 -0.9 3.4 -1.9 1 -1.1 3.1 -2.3 4.7 -2.6 2.2 -0.5 3.1 -1.4 3.7 -3.8 0.7 -2.7 1.4 -3.3 4.4 -3.8 2 -0.3 5 -1.7 6.7 -3.2 1.8 -1.5 5 -2.9 7.6 -3.3 3.9 -0.5 5 -0.3 7.9 2 5.8 4.4 6.4 3.8 6.2 -5.8 0 -5 0.3 -8.9 1 -9.6 0.6 -0.6 6.5 -2.7 13 -4.6 11 -3.3 12.3 -3.5 17 -2.5 2.8 0.7 5.9 0.9 7 0.5 1 -0.3 4.7 -1.7 8.1 -3 3.4 -1.3 7.3 -2.4 8.6 -2.4 2.6 0 10.7 4.7 10.7 6.1 0 0.5 1.3 2.3 2.8 4.1 1.6 1.8 4.1 5.8 5.6 8.8 1.5 3 3.3 6.7 4.1 8.1 0.9 1.6 1.2 3.9 0.8 6.4 -0.5 3.2 -1.2 4 -4.5 5.3 -2.1 0.8 -3.8 2.2 -3.8 2.9 0 0.8 -0.6 2.7 -1.4 4.1 -0.8 1.5 -1.9 3.9 -2.5 5.5 -1.2 3 -6.5 6.7 -9.7 6.7 -1.2 0 -2.7 0.7 -3.5 1.6 -0.8 1 -2.2 1.4 -3.8 1.1 -6.4 -1.3 -10.4 -2.6 -12 -4.1 -1 -0.9 -2.8 -1.6 -4 -1.6 -1.2 0 -4.1 -1.1 -6.4 -2.4 -2.3 -1.3 -6.4 -3.2 -9.2 -4.1 -3.4 -1.2 -7.1 -3.8 -11.2 -7.9 -3.4 -3.3 -6.6 -5.7 -6.9 -5.3 -1 1 2.5 8.2 5 10.5 1.1 1.1 3.8 2.2 6 2.5 4.8 0.8 6.9 2.7 10.1 9.2 2.8 5.6 2.7 6.5 -1.3 13 -2.3 3.7 -2.4 4.4 -1.4 9.2 1.2 5.6 0.2 11.2 -2.2 13.3 -0.8 0.6 -4.4 1.5 -7.9 2 -7.1 1.1 -9.7 1.8 -9.7 3 0 1.2 -19.1 17.5 -22.7 19.4 -1.8 0.9 -3.8 2.6 -4.4 3.9 -0.6 1.2 -2.9 4 -5 6.2 -2.7 2.8 -4 5.2 -4.3 7.8 -0.6 4.6 -1.4 6 -3.1 5.3 -1.8 -0.7 -2.9 2 -3 7.9 -0.4 11.8 -1.8 26.4 -3.1 30.9 -0.8 2.7 -1.4 6.6 -1.4 8.5 0 2 -1.1 5.7 -2.5 8.3 -1.4 2.6 -2.5 5.6 -2.5 6.6 0 2.3 -8.7 11 -15.3 15.3 -7.3 4.8 -12.4 5.5 -27.2 4z m6.5 -11.2 c1.9 -0.6 5.9 -1.6 8.9 -2.3 7.8 -1.7 15 -8 19.2 -17.1 3.3 -7.2 3.6 -8.9 5.5 -34 l0.7 -9 -4 -3.2 c-2.2 -1.7 -5 -5.2 -6.2 -7.7 -1.6 -3.5 -3.6 -5.6 -8.9 -9.1 -9.1 -5.9 -14.3 -8.2 -23.8 -10.1 -4.4 -0.9 -9.6 -1.9 -11.7 -2.4 -3.9 -0.8 -11.5 0.4 -13.1 2.1 -1.3 1.2 1.9 1.2 6.2 0 2.9 -0.9 3.6 -0.6 6.7 2.2 3.4 3.1 4.4 6 2.6 7.1 -0.4 0.3 -1.2 2.9 -1.6 5.8 -0.6 4.6 -0.8 5 -1.6 2.9 -0.5 -1.3 -1.6 -3.8 -2.4 -5.5 -0.8 -1.7 -1.5 -4.4 -1.7 -6 -0.3 -3.4 -2.3 -4.6 -3 -1.9 -0.3 1 -0.2 4.4 0.2 7.6 0.3 3.1 0.5 5.7 0.4 5.7 -0.2 0 -2.3 -2.1 -4.8 -4.7 l-4.4 -4.8 -3.6 1.8 c-2 0.9 -3.6 1.3 -3.6 0.7 0 -0.5 0.5 -1.2 1 -1.5 0.6 -0.3 1 -1.5 1 -2.6 0 -3.1 -3.1 -2 -5.5 1.9 -1.1 1.8 -3.6 5.5 -5.6 8.2 -5.1 7 -6.8 15.2 -4.6 22.3 6.3 21 9.5 27 19.6 37.5 8.8 9.1 13.9 12 22.7 12.9 3.9 0.4 5.8 1.1 6.5 2.4 1.1 2.2 3.9 2.4 8.9 0.8z m44 -79.3 c-0.6 -1.8 -2.5 -5 -4.3 -7 -3.1 -3.5 -3.3 -3.6 -5.5 -2.1 -2.8 2 -2 3.8 4.7 10.6 3.6 3.7 4.8 4.4 5.4 3.3 0.5 -0.8 0.3 -3 -0.3 -4.8z"/>
  <path d="M2498.6 760.8 c-1.6 -5.7 -3.1 -12.6 -3.4 -15.5 -0.3 -3.4 -1.1 -5.8 -2.3 -6.9 -2.4 -2.1 -2.4 -5 -0.2 -6.3 0.9 -0.5 2.8 -3.3 4.2 -6.2 2.4 -4.9 3 -5.4 6.9 -6.2 5.3 -1 6.1 -2.7 3.2 -6.7 -2.1 -2.9 -2.1 -3 -0.2 -3 3.1 0 7.2 3.8 7.2 6.8 0 1.4 0.5 5.1 1.1 8.1 1.1 5.1 0.9 6.7 -2 18.2 -1.7 6.9 -3.1 14.8 -3.1 17.5 0 6.6 -1.8 9.8 -5.5 10.2 -3 0.3 -3 0.3 -5.9 -10z"/>
  <path d="M2456.7 740.8 c-1.5 -2.6 -2.7 -5.3 -2.7 -6 0 -0.7 -0.7 -2.4 -1.6 -3.7 -1.3 -1.8 -1.5 -3.8 -1 -10.9 0.6 -7.9 3.1 -16.2 4.8 -16.2 0.4 0 0.9 0.9 1.3 2 0.3 1.1 1.6 2.8 2.9 3.7 5.5 4.3 6.3 10 3 21.1 -1.5 4.8 -2.9 10 -3.3 11.7 l-0.7 2.9 -2.7 -4.6z"/>
  <path d="M2397.5 716.9 c-0.8 -1.2 0.2 -5.9 1.7 -7.7 0.8 -1 1.4 -1 2.5 0 2.4 1.9 3.5 5.8 2.2 7.4 -1.4 1.6 -5.5 1.9 -6.4 0.3z"/>
  <path d="M1955.8 712.3 c-0.8 -1.5 -1.2 -3.7 -1 -4.8 0.3 -1.4 0.8 -0.8 1.9 2.4 1.7 5 1.1 6.6 -0.9 2.4z"/>
  <path d="M1956.8 695.3 c0.6 -1.1 2.8 -3.5 4.8 -5.3 4.3 -3.8 6.7 -3.7 15.4 0.5 3 1.4 4.4 2.3 3 2 -10.4 -2.4 -14.4 -1.9 -21.4 2.9 -2.8 1.9 -2.8 1.9 -1.8 -0.1z"/>
  <path d="M2863 693.5 c-1.3 -1.4 -1.9 -2.5 -1.4 -2.5 0.8 0.1 5 5 4.1 5 -0.2 0 -1.4 -1.1 -2.7 -2.5z"/>
  <path d="M1434 591 c0 -66.1 0.2 -74 1.5 -74 0.9 0 2.7 -1.1 4.1 -2.5 2.3 -2.3 3.4 -2.5 18.7 -3.5 17.3 -1.1 24 -1.7 57.7 -5.5 22.3 -2.5 43.9 -4.3 57.3 -4.8 l7.7 -0.2 0 11.7 c0 9.8 0.3 12.2 2 15 6 10.2 6.8 34.8 2.6 76.3 -1.4 13.8 -3.1 33.3 -3.8 43.3 l-1.2 18.2 -73.3 0 -73.3 0 0 -74z"/>
  <path d="M2795.3 661 c-1.8 -1.1 -3.3 -2.4 -3.3 -3 0 -0.5 -0.5 -0.9 -1.1 -0.7 -0.6 0.1 -1.4 -0.4 -1.6 -1.1 -0.7 -1.8 2.8 -0.2 5.3 2.5 1.1 1.2 2.3 2 2.6 1.7 0.3 -0.2 0.8 0.2 1.1 1.1 0.8 1.9 0.9 1.9 -3 -0.5z"/>
  <path d="M2785.5 653 c-1 -1.1 -1.5 -2.3 -1.2 -2.7 0.7 -0.6 3.6 2.5 3.7 4 0 1.1 -0.6 0.8 -2.5 -1.3z"/>
  <path d="M2780 646.8 c-2.3 -3.5 -3.4 -5.4 -2.4 -4.3 4.4 4.9 5.6 6.5 4.8 6.5 -0.5 0 -1.6 -1 -2.4 -2.2z"/>
  <path d="M2761.1 630.9 c-2.8 -2.2 -5.1 -4.5 -5.1 -5.1 0 -0.5 1.9 0.7 4.2 2.6 2.3 2 4.5 3.6 4.9 3.6 0.4 0 0.9 0.7 1.3 1.5 0.8 2.1 0.5 2 -5.3 -2.6z"/>
  <path d="M2511 628 c-0.8 -0.5 -2.7 -1 -4.1 -1 -2.6 0 -5.2 -2.3 -8.4 -7.3 -2.4 -3.7 -1.4 -4.3 2.1 -1.4 1.6 1.3 5.5 3.8 8.7 5.6 3.1 1.8 5.5 3.7 5.2 4.2 -0.8 1.1 -1.6 1.1 -3.5 -0.1z"/>
  <path d="M2744.8 618.4 c-5.4 -4.4 -8.8 -8.4 -8.8 -10.4 0 -0.8 3.5 -5.2 7.8 -9.6 8.1 -8.5 16.5 -18.1 17 -19.5 0.2 -0.5 -1 -0.4 -2.6 0.2 -1.8 0.6 -3.5 2.2 -4.2 3.8 -0.6 1.6 -3.8 4.5 -7.6 7 -3.6 2.4 -8.4 6.1 -10.6 8.2 -2.7 2.5 -4.8 3.7 -5.8 3.4 -3.2 -1 -16.5 -16.1 -30 -34 -3.6 -4.7 -9.5 -12.5 -13.2 -17.3 -3.7 -4.8 -6.8 -9.6 -6.8 -10.8 0 -1.1 -0.7 -2.9 -1.5 -4 -0.8 -1 -1.5 -3 -1.6 -4.4 -0.1 -1.7 -0.3 -2 -0.6 -0.7 -0.5 1.8 -1.8 2.3 -2.7 0.8 -0.3 -0.5 0.1 -1.4 0.9 -2.1 0.8 -0.7 1.5 -2.4 1.5 -3.9 0.1 -1.6 0.8 -0.2 2.1 3.9 3.2 10.2 4.1 11.7 14 25.1 5.2 6.9 11.2 15.1 13.4 18.2 2.2 3.1 4.4 5.6 4.9 5.7 0.6 0 5.3 -4.2 10.6 -9.2 5.2 -5.1 15.4 -14.7 22.5 -21.2 19 -17.5 45.5 -44.1 45.5 -45.8 0 -0.8 -7.5 -7.9 -16.7 -15.8 -9.2 -8 -21.9 -19.3 -28.2 -25.2 -6.4 -6 -12.1 -10.8 -12.7 -10.8 -0.7 0 -2.7 2.4 -4.5 5.3 -1.8 2.8 -5.8 8.6 -8.9 12.7 -3.1 4.1 -6.2 8.5 -7 9.6 -0.8 1.2 -3.7 4.8 -6.5 8.1 -2.7 3.3 -5.7 7 -6.5 8.3 -0.8 1.2 -3.6 4.9 -6.2 8 -2.7 3.2 -4.8 6.2 -4.8 6.6 -0.1 1.1 -3.6 5.4 -4.5 5.4 -1.4 0 3.6 -7.2 15 -21.5 6.6 -8.3 12.9 -16.4 14 -17.9 1.1 -1.6 4 -5.4 6.5 -8.6 2.5 -3.2 7.7 -10.9 11.5 -17 3.9 -6.2 11.1 -16.7 16 -23.4 8.7 -11.7 13.9 -19.1 22.8 -32.4 2.3 -3.4 6.7 -9.9 9.8 -14.5 3.1 -4.5 7.7 -12.1 10.3 -16.9 2.6 -4.9 4.9 -8.8 5.1 -8.8 0.5 0 -0.5 3.1 -1.5 4.5 -0.4 0.6 -1 1.9 -1.4 2.9 -0.6 1.8 -0.2 1.9 7.8 1.2 4.6 -0.3 10.6 -1 13.3 -1.6 2.6 -0.5 12.5 -2.4 21.8 -4.1 9.4 -1.8 28.7 -6 43 -9.4 37.5 -9.1 43.8 -10.5 45.6 -10.5 1.5 0 5.2 8.1 20.9 46 14 33.5 26.7 53.9 45.8 73.4 21.9 22.2 45.5 36.9 89.5 55.6 8.1 3.5 14.7 6.6 14.7 7 0 0.4 -6.6 3.7 -14.7 7.3 -58.2 25.8 -114.6 42.1 -167.3 48.1 l-12.4 1.5 -5.6 -3.4 c-3 -1.8 -13.6 -8.2 -23.5 -14.1 -21.9 -13.1 -28.9 -17.6 -38 -24.3 -3.8 -2.8 -7.7 -5 -8.5 -4.8 -0.8 0.3 -2.4 0.8 -3.5 1.2 -1.1 0.4 0.1 -0.6 2.6 -2.3 2.6 -1.6 5 -3.5 5.3 -4.1 0.4 -0.6 2.2 -1.1 3.9 -1.1 4.7 0 15.9 -2.9 17.7 -4.5 0.8 -0.7 2.6 -1.6 4 -2 4.3 -1 12.9 -11 19 -22 1.9 -3.3 3.6 -6.2 4 -6.5 1.9 -1.6 7.9 -12 8.5 -14.9 l0.7 -3.5 -2.7 1.8 -2.7 1.8 0.7 -5 c0.6 -4.7 -0.5 -7.7 -2 -5.2 -1 1.5 -2.3 1.2 -2.8 -0.7 -0.2 -1.3 -0.8 -0.8 -2.2 2 -1 2 -2.5 3.7 -3.2 3.7 -0.7 0 -1.3 0.5 -1.3 1.2 0 0.6 -0.3 0.9 -0.6 0.5 -1.4 -1.4 3.4 -11.2 8.3 -17 5.8 -6.8 6.7 -10.3 3.3 -13.7 -2.1 -2.1 -3.1 -2.4 -6.5 -2 -1.7 0.2 -11.2 9.4 -31.7 30.6 -2.6 2.7 -6.7 6.5 -9.1 8.4 -2.4 1.9 -5.3 5 -6.3 6.9 -1 1.8 -2.9 3.7 -4.1 4.2 -1.3 0.5 -2.7 1.7 -3 2.6 -0.7 1.7 -6.9 8.1 -17.7 18.1 -2.5 2.4 -4.6 4.7 -4.6 5.1 0 0.4 -2.8 3.1 -6.2 6 -3.5 2.9 -7.8 7.1 -9.6 9.4 -5 6.2 -27.4 29 -30.5 31 -2.6 1.7 -3.8 5.7 -1.7 5.7 0.6 0 1 2 1 4.5 0 2.5 0.2 4.5 0.3 4.5 0.2 0 1.9 -0.7 3.6 -1.6 2 -1 3.9 -3 4.8 -5.2 0.8 -2 2.6 -4.8 3.9 -6.2 19 -20 19 -20 22.8 -20 3 0 3.8 -0.5 4.6 -2.4 0.6 -1.8 2 -2.7 4.6 -3.2 2.4 -0.4 3.8 -1.3 4.2 -2.6 0.3 -1.4 1.2 -1.8 3 -1.6 3.8 0.4 3.9 2.7 0.3 3.4 -1.7 0.4 -3.1 1.2 -3 1.8 0.4 3 -0.3 3.6 -4.1 3.6 -3.4 0 -4 0.3 -4 2.1 0 3.4 -1.8 5.7 -7.3 9.3 -8 5.2 -12.1 9.5 -16.1 16.9 -2.1 3.7 -3.4 6.7 -3 6.7 0.4 0 5.5 -4.9 11.3 -10.9 5.8 -5.9 13.3 -13 16.6 -15.6 3.3 -2.7 6.2 -5.2 6.3 -5.7 0.5 -1.2 6.3 -4 7 -3.4 0.3 0.3 0.1 0.6 -0.4 0.6 -0.5 0 -2.2 1.2 -3.9 2.6 -1.6 1.5 -5.4 4.4 -8.3 6.6 -5.8 4.3 -14.8 13.6 -36.2 37.3 -3 3.3 -8.8 9.5 -12.9 13.7 l-7.5 7.7 1.9 2.3 c1.1 1.3 4.2 4.7 6.9 7.6 5.8 6 5.6 6.7 -0.6 1.6z"/>
  <path d="M2679.3 582.8 c-0.6 -0.7 -1.8 -2.6 -2.7 -4.3 -0.8 -1.6 -3.9 -5.5 -6.7 -8.5 -7.9 -8.6 -10.2 -16.1 -5.7 -18.9 1.9 -1.2 2.4 -1.1 4 0.9 1 1.2 1.8 3 1.8 3.9 0 1 2.4 4.4 5.3 7.7 7.4 8.3 14.7 17.1 14.7 17.7 0 0.3 -1.2 0.7 -2.7 1 -1.6 0.3 -3.7 0.8 -4.9 1.2 -1.2 0.4 -2.5 0.1 -3.1 -0.7z"/>
  <path d="M2704.9 579.3 c-3.1 -3.3 -11.1 -13 -17.3 -21 -1 -1.3 -1.6 -2.6 -1.4 -2.9 0.3 -0.2 2.5 2.1 4.9 5.3 2.4 3.2 7.1 9 10.4 12.8 5.9 6.8 8 9.5 7.3 9.5 -0.2 0 -2 -1.7 -3.9 -3.7z"/>
  <path d="M2673.3 542.2 c-4.4 -3.4 -6.7 -5.9 -6.1 -6.4 1.1 -0.6 11.4 7.8 13.1 10.8 1.1 2 0.9 1.9 -7 -4.4z"/>
  <path d="M2807 536.6 c0 -0.5 6 -3.6 6.9 -3.6 0.3 0 -0.7 0.9 -2.4 2 -2.9 1.9 -4.5 2.5 -4.5 1.6z"/>
  <path d="M2673.4 534.6 c-1 -0.8 -1.6 -1.7 -1.3 -2 0.3 -0.3 1.4 0.3 2.4 1.4 2.1 2.3 1.7 2.6 -1.1 0.6z"/>
  <path d="M2589.7 492.3 c-1 -0.3 -1.6 -1 -1.4 -1.6 0.6 -2 2.5 -1.9 3.7 0.2 1.1 2.1 0.9 2.2 -2.3 1.4z"/>
  <path d="M3192.7 445.7 c-29.2 -32.1 -40.6 -57.3 -60.7 -134.2 -4.6 -17.6 -11.7 -40.5 -16.1 -52.4 -2.2 -5.8 -3.6 -10.7 -3.2 -11.1 4.3 -3.5 21.2 -15.7 36.1 -26.1 4.1 -2.8 8.1 -5.8 9.1 -6.8 0.9 -0.9 3.2 -2.7 5.1 -4.1 3.8 -2.6 22 -17 36.8 -29 9.7 -7.8 18.6 -14.7 26.1 -20.3 2.5 -1.7 7.6 -5.9 11.5 -9.2 3.8 -3.3 8.9 -7.3 11.2 -9 2.4 -1.6 7.8 -5.7 12.1 -8.9 7.5 -5.7 23 -15.6 24.6 -15.6 0.4 0 0.7 0.7 0.7 1.5 0 0.8 0.6 1.5 1.3 1.5 1.9 0 4 -1.7 3.4 -2.6 -0.2 -0.5 -0.1 -1.9 0.3 -3 0.7 -1.7 1.5 -2 3.4 -1.7 2.7 0.5 6 -1.3 5.1 -2.7 -0.8 -1.3 1.3 -6 2.7 -6 0.7 0 3.1 3.5 5.2 7.8 2.2 4.2 8.1 14.7 13.2 23.2 5 8.5 10.4 18.2 11.9 21.5 4.6 9.9 19.5 39.8 21.3 42.6 3.2 4.9 5.7 8.4 10.7 15.1 2.7 3.7 7 9.4 9.4 12.8 2.4 3.3 6.4 8.2 8.8 10.8 2.4 2.6 8.1 9.4 12.6 15.2 12.8 16.5 22.3 27.7 32.1 37.7 4.9 5.1 8.8 9.4 8.5 9.6 -0.9 0.9 -79.7 53.7 -90.7 60.9 -11.5 7.5 -18.6 12 -73.2 46.7 -15.1 9.6 -36.6 23.4 -47.8 30.8 -11.2 7.3 -21.1 13.3 -22.1 13.3 -1 0 -5.2 -3.7 -9.4 -8.3z m95.4 -314.9 c4 -1.1 4.9 -2.2 2.7 -3.1 -1.7 -0.6 -5.1 0.7 -6.7 2.7 -1.6 1.9 -1.1 2 4 0.4z"/>
  <path d="M2562.6 391.2 c-0.8 -1.3 -1 -22.1 -0.2 -22.9 0.6 -0.6 1.9 19.9 1.4 22.3 -0.2 1.4 -0.6 1.6 -1.2 0.6z"/>
  <path d="M2614 378.1 c0 -1 0.9 -3.8 2 -6.2 2.2 -5 2.6 -3.2 0.8 3.6 -1.2 4.6 -2.8 6 -2.8 2.6z"/>
  <path d="M2619.2 374 c0 -1.9 0.2 -2.7 0.5 -1.7 0.2 0.9 0.2 2.5 0 3.5 -0.3 0.9 -0.5 0.1 -0.5 -1.8z"/>
  <path d="M2772.5 369 c-0.3 -0.5 -0.2 -1.6 0.2 -2.4 1.3 -2.3 11.4 -12.6 12.3 -12.6 1.4 0 2.2 3.8 1.1 5.7 -1.4 2.6 -12.9 10.5 -13.6 9.3z"/>
  <path d="M2563.6 359.5 c0.3 -2.2 1.2 -6.5 1.9 -9.5 0.7 -3 1.6 -7.2 2 -9.4 0.3 -2.1 0.8 -3.6 1 -3.4 0.6 0.6 -1.5 14.1 -2.6 16 -0.5 1 -0.9 3 -0.9 4.5 0 1.6 -0.5 3.5 -1.1 4.3 -0.7 1.1 -0.8 0.4 -0.3 -2.5z"/>
  <path d="M2784.5 352 c-1.1 -1.7 0.5 -4.9 3.6 -7 1.6 -1.2 2.9 -2.9 3 -3.8 0 -1.3 0.3 -1.2 1.1 0.5 0.8 1.7 0.6 2.9 -1.2 5.7 -2.4 4.1 -5.5 6.2 -6.5 4.6z"/>
  <path d="M2796.2 347.6 c1.2 -2.5 2.3 -4.4 2.5 -4.2 0.5 0.5 -2.6 7.4 -3.7 8.1 -0.6 0.4 0 -1.4 1.2 -3.9z"/>
  <path d="M2806.7 326.5 c0.9 -1.9 1.8 -3.3 2.1 -3.1 0.4 0.5 -2.6 6.6 -3.3 6.6 -0.3 0 0.3 -1.6 1.2 -3.5z"/>
  <path d="M2570.3 324 c0 -3 0.2 -4.3 0.4 -2.7 0.2 1.5 0.2 3.9 0 5.5 -0.2 1.5 -0.4 0.2 -0.4 -2.8z"/>
  <path d="M2644.1 277 c0.1 -0.8 0.5 -2.6 0.9 -4 l0.8 -2.5 0.1 2.5 c0 1.4 -0.4 3.2 -0.9 4 -0.9 1.3 -1 1.3 -0.9 0z"/>
  <path d="M2646.4 267.4 c0.4 -1.1 1.6 -4.2 2.7 -6.9 1 -2.8 3.9 -7.3 6.5 -10 2.7 -3 3.6 -3.6 2 -1.5 -3 4 -8.6 15.1 -9 17.6 -0.2 1 -0.9 2 -1.6 2.2 -0.9 0.3 -1.1 -0.1 -0.6 -1.4z"/>
  <path d="M2667 237 c4 -4.4 7.4 -8 7.7 -8 0.6 0 -9.4 11.8 -12.1 14.3 -4.2 3.8 -2.4 1.3 4.4 -6.3z"/>
  <path d="M2885 228.3 c0 -1 0.7 -3.1 1.5 -4.7 0.8 -1.5 1.5 -3.5 1.5 -4.2 0 -0.8 0.4 -1.4 0.8 -1.4 0.5 0 1.5 -3.2 2.2 -7 0.7 -3.9 2 -7.8 2.7 -8.8 1.2 -1.5 1.3 -0.9 0.8 4.6 -1.2 13.5 -2.3 16.8 -6.7 21.4 -2.2 2.3 -2.8 2.3 -2.8 0.1z"/>
  <path d="M3000 187.3 c0.8 -0.3 2.1 -1 2.8 -1.6 0.9 -0.7 1.1 -0.6 0.6 0.7 -0.3 0.9 -1.6 1.6 -2.8 1.5 -1.4 0 -1.6 -0.2 -0.6 -0.6z"/>
 </g>
</svg>