<?xml version="1.0" encoding="UTF-8" standalone="no"?>
<!DOCTYPE svg PUBLIC "-//W3C//DTD SVG 20010904//EN"
              "http://www.w3.org/TR/2001/REC-SVG-20010904/DTD/svg10.dtd">

<svg xmlns="http://www.w3.org/2000/svg"
     width="4169.38mm" height="1824.1mm"
     viewBox="0 0 1280 560">
  <path id="Selection"
        fill="none" stroke="black" stroke-width="1"
        d="M 328.00,48.00
           C 328.00,48.00 549.00,48.00 549.00,48.00
             551.18,48.00 553.92,48.09 556.00,47.49
             556.00,47.49 581.00,32.86 581.00,32.86
             594.83,26.59 609.80,21.64 625.00,20.04
             625.00,20.04 634.00,20.04 634.00,20.04
             634.00,20.04 640.00,19.34 640.00,19.34
             640.00,19.34 646.00,20.04 646.00,20.04
             646.00,20.04 655.00,20.04 655.00,20.04
             670.20,21.64 685.17,26.59 699.00,32.86
             708.42,37.13 719.10,47.83 729.00,48.00
             729.00,48.00 886.00,48.00 886.00,48.00
             886.00,48.00 931.00,48.00 931.00,48.00
             936.41,48.00 948.51,47.22 953.00,49.00
             948.45,51.19 936.71,57.34 937.32,63.42
             937.55,65.72 941.49,70.10 943.00,72.00
             943.00,72.00 953.29,84.90 953.29,84.90
             953.29,84.90 960.43,90.78 960.43,90.78
             962.80,93.48 961.37,96.00 964.22,101.00
             964.22,101.00 977.22,117.09 977.22,117.09
             977.22,117.09 976.00,128.00 976.00,128.00
             976.00,128.00 1036.00,128.00 1036.00,128.00
             1036.00,128.00 1029.00,116.00 1029.00,116.00
             1037.19,117.26 1047.77,121.24 1056.00,123.72
             1056.00,123.72 1069.69,128.30 1069.69,128.30
             1075.05,131.95 1069.66,141.68 1081.00,141.49
             1086.30,141.41 1093.22,143.56 1096.40,148.10
             1102.08,156.21 1091.99,163.67 1099.78,172.85
             1103.78,177.56 1105.84,174.44 1111.00,178.31
             1111.00,178.31 1126.00,192.79 1126.00,192.79
             1132.27,198.11 1137.59,199.87 1143.69,208.00
             1147.72,213.38 1144.56,215.97 1147.57,226.00
             1150.93,237.19 1155.79,239.60 1159.00,248.00
             1152.18,252.74 1143.42,258.48 1152.13,266.67
             1153.12,267.60 1154.77,268.81 1156.00,269.38
             1160.37,271.38 1161.31,268.65 1167.00,269.94
             1167.00,269.94 1190.00,278.00 1190.00,278.00
             1190.00,278.00 1190.00,280.00 1190.00,280.00
             1190.00,280.00 1166.00,288.23 1166.00,288.23
             1159.87,289.63 1155.32,285.92 1150.57,295.00
             1145.34,304.99 1158.94,306.73 1159.88,313.04
             1160.22,315.33 1157.73,320.69 1156.80,323.00
             1156.80,323.00 1149.10,343.00 1149.10,343.00
             1147.30,348.89 1149.65,350.11 1147.36,354.00
             1145.83,356.61 1132.16,369.84 1129.00,373.00
             1126.38,375.62 1121.05,381.42 1118.00,382.90
             1118.00,382.90 1111.00,384.85 1111.00,384.85
             1106.00,386.54 1091.81,392.48 1088.04,395.53
             1080.58,401.56 1079.90,409.29 1076.35,413.56
             1070.30,420.86 1063.37,421.17 1058.09,426.13
             1051.19,432.61 1043.91,446.08 1036.00,450.00
             1030.64,434.64 1022.14,429.63 1011.00,419.00
             1008.95,421.35 1003.43,425.77 1002.78,428.17
             1002.01,431.02 1004.92,436.51 1006.34,439.00
             1008.47,442.74 1015.09,451.69 1018.17,454.54
             1022.10,458.16 1025.28,459.06 1028.00,464.00
             1018.22,466.76 1003.20,475.25 994.00,480.30
             985.17,485.15 982.35,489.26 972.00,488.00
             971.73,496.41 969.61,493.61 959.00,502.44
             956.78,504.28 953.73,507.50 951.00,508.23
             951.00,508.23 929.00,506.09 929.00,506.09
             929.00,506.09 885.00,505.00 885.00,505.00
             885.00,505.00 868.00,504.00 868.00,504.00
             868.00,504.00 760.00,504.00 760.00,504.00
             760.00,504.00 745.00,503.00 745.00,503.00
             745.00,503.00 534.00,503.00 534.00,503.00
             534.00,503.00 519.00,504.00 519.00,504.00
             519.00,504.00 410.00,504.00 410.00,504.00
             410.00,504.00 395.00,505.00 395.00,505.00
             395.00,505.00 351.00,506.09 351.00,506.09
             351.00,506.09 330.00,508.25 330.00,508.25
             326.73,507.44 322.58,503.28 320.00,501.06
             311.91,494.12 309.28,496.67 309.00,488.00
             298.64,489.27 294.78,484.86 286.00,479.85
             275.40,473.80 264.56,468.03 253.00,464.00
             255.69,458.79 258.87,457.88 262.96,453.91
             266.13,450.83 271.51,443.79 273.91,440.00
             275.68,437.21 278.97,431.33 277.77,428.00
             276.72,425.08 271.45,421.13 269.00,419.00
             269.00,419.00 252.33,436.00 252.33,436.00
             252.33,436.00 244.00,450.00 244.00,450.00
             235.52,443.63 230.50,433.41 222.83,426.21
             217.39,421.10 210.48,420.84 204.64,413.71
             200.65,408.85 200.64,402.26 193.91,396.52
             189.57,392.82 175.68,386.75 170.00,384.85
             166.84,383.80 163.54,383.99 161.17,382.38
             161.17,382.38 151.00,372.00 151.00,372.00
             147.52,368.51 134.72,356.38 133.05,353.04
             131.23,349.37 133.74,347.78 129.19,336.00
             126.52,329.09 121.22,317.72 120.00,311.00
             127.83,306.50 135.97,301.51 128.28,292.11
             127.34,290.96 126.26,289.88 124.91,289.21
             121.43,287.50 119.36,289.63 114.00,288.21
             114.00,288.21 91.00,280.00 91.00,280.00
             91.00,280.00 91.00,278.00 91.00,278.00
             91.00,278.00 114.00,269.94 114.00,269.94
             120.96,268.37 125.45,273.17 131.15,263.96
             136.71,254.96 123.89,252.29 123.16,246.83
             122.83,244.31 125.63,241.03 126.96,239.00
             128.96,235.97 132.40,229.42 133.37,226.00
             134.74,221.12 133.02,215.30 135.17,211.00
             139.21,202.93 149.51,197.50 156.00,191.82
             156.00,191.82 171.00,177.60 171.00,177.60
             174.93,175.11 177.21,176.91 180.39,173.69
             189.51,164.46 177.93,156.98 184.56,148.10
             190.31,140.41 201.19,141.90 202.96,141.32
             208.36,139.53 209.03,133.72 208.00,129.00
             208.00,129.00 252.00,116.00 252.00,116.00
             252.00,116.00 245.00,128.00 245.00,128.00
             245.00,128.00 305.00,128.00 305.00,128.00
             305.00,128.00 302.00,117.00 302.00,117.00
             307.41,111.71 311.83,108.66 315.88,102.00
             319.26,96.45 318.42,93.77 320.01,91.39
             321.25,89.52 324.02,88.21 325.83,86.61
             328.33,84.41 331.75,79.76 333.88,77.00
             336.01,74.24 343.78,65.80 343.55,62.72
             343.05,56.11 332.44,52.04 328.00,48.00 Z
           M 933.00,171.00
           C 931.46,159.02 934.98,155.30 935.41,144.00
             935.77,134.39 931.40,118.24 926.53,110.00
             916.78,93.52 901.68,84.72 883.00,82.10
             883.00,82.10 873.00,82.10 873.00,82.10
             873.00,82.10 861.00,81.00 861.00,81.00
             861.00,81.00 781.00,81.00 781.00,81.00
             781.00,81.00 766.00,80.00 766.00,80.00
             766.00,80.00 731.00,80.00 731.00,80.00
             722.22,79.83 718.98,73.75 713.00,68.04
             707.74,63.01 702.23,59.31 696.00,55.60
             683.15,47.96 664.05,41.07 649.00,41.00
             649.00,41.00 632.00,41.00 632.00,41.00
             613.40,41.22 591.04,50.46 576.00,61.04
             571.32,64.33 567.04,67.94 563.01,72.00
             560.86,74.18 557.62,78.33 554.91,79.40
             553.10,80.12 549.99,80.00 548.00,80.00
             548.00,80.00 515.00,80.00 515.00,80.00
             515.00,80.00 498.00,81.00 498.00,81.00
             498.00,81.00 420.00,81.00 420.00,81.00
             420.00,81.00 408.00,82.04 408.00,82.04
             408.00,82.04 399.00,82.04 399.00,82.04
             389.91,83.08 377.20,86.88 370.00,92.52
             357.99,101.92 353.95,109.15 349.14,123.00
             346.90,129.46 345.17,136.09 345.18,143.00
             345.18,143.00 346.75,154.00 346.75,154.00
             346.75,154.00 349.03,170.48 349.03,170.48
             350.11,172.32 354.14,174.76 356.00,176.00
             336.83,176.00 343.24,173.10 331.00,172.00
             330.54,164.17 328.51,163.05 321.00,163.00
             321.00,163.00 265.00,163.00 265.00,163.00
             264.69,168.26 264.27,168.85 261.00,173.00
             260.02,167.84 259.23,165.63 254.00,164.00
             254.00,164.00 250.00,173.00 250.00,173.00
             249.69,171.14 249.43,168.14 247.49,167.17
             245.28,166.05 243.16,168.32 242.17,170.06
             240.72,172.60 241.39,174.50 238.69,177.99
             238.69,177.99 228.68,188.01 228.68,188.01
             225.35,192.23 223.61,195.74 222.62,201.00
             222.00,204.29 222.39,209.14 220.40,211.61
             218.84,213.56 212.45,216.88 210.00,218.28
             203.83,221.79 199.72,224.37 194.00,228.63
             191.38,230.58 186.61,233.59 186.13,237.01
             185.69,240.11 190.52,247.68 192.00,251.00
             192.00,251.00 178.02,249.23 178.02,249.23
             176.35,249.21 174.37,249.38 173.86,251.31
             172.56,256.22 181.71,264.17 184.00,269.00
             177.13,268.42 171.65,265.26 165.00,267.00
             165.00,267.00 167.13,269.90 167.13,269.90
             167.13,269.90 184.00,280.00 184.00,280.00
             184.00,280.00 169.00,288.00 169.00,288.00
             169.00,288.00 169.00,290.00 169.00,290.00
             175.22,292.09 177.77,292.64 182.00,298.00
             177.52,298.48 169.26,301.63 167.83,306.30
             167.11,307.92 167.72,310.33 167.83,312.00
             167.83,312.00 179.04,314.84 179.04,314.84
             179.04,314.84 191.00,312.00 191.00,312.00
             188.73,316.65 187.13,319.01 183.84,323.00
             182.54,324.58 180.30,326.74 180.34,328.93
             180.38,331.69 182.92,331.95 185.02,331.71
             189.31,331.23 193.93,329.41 198.00,328.00
             198.00,328.00 195.00,346.95 195.00,346.95
             199.43,348.92 203.39,348.13 208.00,346.95
             210.36,346.27 212.43,344.73 214.98,345.28
             217.01,345.72 218.63,347.21 219.40,349.10
             219.40,349.10 221.00,367.00 221.00,367.00
             228.84,366.73 231.72,363.66 233.00,356.00
             237.56,360.67 239.75,362.43 241.00,369.00
             245.32,368.64 249.05,367.89 253.00,366.02
             257.75,363.76 260.60,360.52 266.04,362.95
             270.86,365.11 275.37,370.26 277.59,375.00
             279.35,378.76 279.13,382.28 281.51,383.98
             283.27,385.23 286.88,385.00 289.00,385.00
             289.00,385.00 392.00,385.00 392.00,385.00
             392.00,385.00 407.00,386.00 407.00,386.00
             407.00,386.00 495.00,386.00 495.00,386.00
             495.00,386.00 559.00,386.00 559.00,386.00
             559.00,386.00 571.00,386.96 571.00,386.96
             571.00,386.96 585.00,386.96 585.00,386.96
             594.53,386.99 599.59,384.75 602.91,384.73
             602.91,384.73 611.00,386.00 611.00,386.00
             611.00,386.00 609.00,396.00 609.00,396.00
             609.00,396.00 610.00,397.00 610.00,397.00
             610.00,397.00 618.00,394.00 618.00,394.00
             618.00,394.00 617.00,401.00 617.00,401.00
             617.00,401.00 624.00,397.00 624.00,397.00
             624.00,397.00 626.00,409.00 626.00,409.00
             626.00,409.00 631.26,404.28 631.26,404.28
             631.26,404.28 640.00,405.63 640.00,405.63
             640.00,405.63 651.00,403.00 651.00,403.00
             651.34,407.14 651.29,407.91 655.00,410.00
             655.00,410.00 657.00,396.00 657.00,396.00
             657.00,396.00 663.00,401.00 663.00,401.00
             663.00,401.00 664.00,394.00 664.00,394.00
             674.13,399.50 671.82,392.43 669.00,386.00
             672.89,385.87 673.59,386.21 676.00,383.00
             691.92,389.97 705.73,386.03 722.00,386.00
             722.00,386.00 771.00,386.00 771.00,386.00
             771.00,386.00 876.00,386.00 876.00,386.00
             876.00,386.00 891.00,385.00 891.00,385.00
             891.00,385.00 992.00,385.00 992.00,385.00
             994.03,385.00 997.65,385.26 999.30,384.01
             1001.45,382.39 1001.68,378.24 1003.21,375.00
             1005.43,370.29 1010.15,365.14 1014.91,362.94
             1020.18,360.52 1023.39,363.83 1028.00,366.02
             1031.95,367.89 1035.68,368.64 1040.00,369.00
             1041.13,362.20 1043.28,360.78 1048.00,356.00
             1048.38,358.28 1048.58,359.94 1049.85,361.98
             1051.31,364.32 1054.64,367.49 1057.69,366.34
             1059.86,365.53 1059.88,362.92 1060.15,361.00
             1060.81,356.29 1060.04,347.57 1065.06,345.60
             1068.06,344.41 1070.20,346.34 1073.00,347.01
             1077.62,348.14 1081.54,348.75 1086.00,347.01
             1086.00,347.01 1083.00,328.00 1083.00,328.00
             1085.95,329.02 1100.29,335.18 1100.38,328.97
             1100.41,326.67 1098.01,324.49 1096.65,322.83
             1093.99,319.60 1092.05,316.64 1090.00,313.00
             1090.00,313.00 1101.91,314.86 1101.91,314.86
             1101.91,314.86 1113.00,312.00 1113.00,312.00
             1113.00,312.00 1114.00,305.00 1114.00,305.00
             1108.24,301.77 1105.77,298.76 1099.00,298.00
             1103.31,292.34 1105.57,292.15 1112.00,290.00
             1112.00,290.00 1112.00,288.00 1112.00,288.00
             1112.00,288.00 1097.00,280.00 1097.00,280.00
             1101.57,276.15 1107.79,270.94 1114.00,271.00
             1114.00,271.00 1115.00,266.00 1115.00,266.00
             1115.00,266.00 1096.00,268.00 1096.00,268.00
             1102.04,261.91 1105.68,258.48 1108.00,250.00
             1102.58,248.51 1094.60,250.00 1089.00,251.00
             1089.00,251.00 1096.00,236.00 1096.00,236.00
             1088.86,229.86 1081.09,224.43 1073.00,219.60
             1070.03,217.83 1061.57,213.46 1059.86,211.08
             1059.86,211.08 1057.03,196.00 1057.03,196.00
             1053.76,187.04 1045.99,182.74 1042.31,177.99
             1037.98,172.39 1041.66,169.03 1033.00,166.00
             1033.00,166.00 1031.00,173.00 1031.00,173.00
             1031.00,173.00 1026.00,164.00 1026.00,164.00
             1021.32,166.35 1020.59,167.90 1020.00,173.00
             1014.59,167.80 1016.90,165.95 1014.41,164.02
             1012.78,162.76 1009.02,163.00 1007.00,163.00
             1007.00,163.00 960.00,163.00 960.00,163.00
             952.43,163.05 950.28,164.08 950.00,172.00
             939.75,172.92 936.31,178.21 925.00,175.00
             925.00,175.00 933.00,171.00 933.00,171.00 Z
           M 691.00,399.00
           C 691.00,399.00 677.00,400.00 677.00,400.00
             677.00,400.00 677.00,415.00 677.00,415.00
             677.00,415.00 691.00,415.00 691.00,415.00
             692.32,407.62 692.32,406.38 691.00,399.00 Z
           M 585.00,431.00
           C 585.00,431.00 585.00,411.00 585.00,411.00
             585.00,411.00 583.40,405.02 583.40,405.02
             583.40,405.02 569.08,404.00 569.08,404.00
             566.79,416.33 568.88,414.74 569.08,425.00
             569.08,425.00 569.08,444.00 569.08,444.00
             568.65,456.42 564.65,477.22 568.00,489.00
             568.00,489.00 583.00,487.00 583.00,487.00
             584.83,488.16 586.96,489.73 589.00,490.42
             592.34,491.54 600.71,491.02 603.28,488.42
             605.00,486.67 608.22,476.68 608.68,474.00
             608.68,474.00 610.17,457.00 610.17,457.00
             611.40,447.71 613.49,438.07 610.17,429.02
             609.41,427.35 608.80,425.94 607.43,424.72
             604.65,422.26 595.60,420.06 592.21,422.02
             590.08,423.25 586.74,428.73 585.00,431.00 Z
           M 867.00,407.00
           C 864.33,407.12 855.61,407.59 854.02,409.60
             852.46,411.58 853.00,421.10 853.00,424.00
             853.00,424.00 844.00,423.00 844.00,423.00
             844.00,423.00 844.00,437.00 844.00,437.00
             844.00,437.00 851.00,437.00 851.00,437.00
             851.00,437.00 850.00,457.00 850.00,457.00
             850.00,457.00 850.00,471.00 850.00,471.00
             850.01,476.54 850.83,485.80 856.21,488.98
             860.34,491.42 873.39,488.12 879.00,488.00
             879.00,488.00 882.00,460.00 882.00,460.00
             882.00,460.00 869.00,459.00 869.00,459.00
             869.00,466.11 870.26,470.97 866.00,477.00
             866.00,477.00 867.00,452.00 867.00,452.00
             867.00,452.00 868.00,436.00 868.00,436.00
             868.00,436.00 878.00,437.00 878.00,437.00
             878.00,437.00 880.00,423.00 880.00,423.00
             880.00,423.00 866.00,422.00 866.00,422.00
             866.00,422.00 867.00,407.00 867.00,407.00 Z
           M 506.00,421.00
           C 497.43,422.93 480.18,425.82 475.92,434.09
             473.47,438.85 474.00,444.78 474.00,450.00
             474.00,450.00 485.00,450.00 485.00,450.00
             485.00,450.00 485.00,437.00 485.00,437.00
             485.00,437.00 489.00,437.00 489.00,437.00
             489.00,437.00 489.00,457.00 489.00,457.00
             486.74,455.96 485.60,455.27 483.00,455.28
             467.07,455.31 471.50,466.45 471.96,477.00
             472.11,480.52 471.20,488.84 474.51,490.94
             477.88,493.07 482.51,488.33 491.00,487.00
             491.00,487.00 491.00,492.00 491.00,492.00
             491.00,492.00 505.01,487.26 505.01,487.26
             505.01,487.26 506.04,480.00 506.04,480.00
             506.04,480.00 506.92,467.00 506.92,467.00
             506.92,467.00 506.92,450.00 506.92,450.00
             506.92,450.00 505.18,435.00 505.18,435.00
             505.18,435.00 506.00,421.00 506.00,421.00 Z
           M 785.00,421.00
           C 776.43,422.93 759.18,425.82 754.92,434.09
             752.47,438.85 753.00,444.78 753.00,450.00
             753.00,450.00 764.00,450.00 764.00,450.00
             764.00,450.00 764.00,437.00 764.00,437.00
             764.00,437.00 768.00,437.00 768.00,437.00
             768.00,437.00 768.00,457.00 768.00,457.00
             765.74,455.96 764.60,455.27 762.00,455.28
             746.07,455.31 750.50,466.45 750.96,477.00
             751.11,480.52 750.20,488.84 753.51,490.94
             756.88,493.07 761.51,488.33 770.00,487.00
             770.00,487.00 770.00,492.00 770.00,492.00
             770.00,492.00 784.01,487.26 784.01,487.26
             784.01,487.26 785.04,480.00 785.04,480.00
             785.04,480.00 785.92,467.00 785.92,467.00
             785.92,467.00 785.92,450.00 785.92,450.00
             785.92,450.00 784.18,435.00 784.18,435.00
             784.18,435.00 785.00,421.00 785.00,421.00 Z
           M 392.00,422.00
           C 389.17,422.24 378.61,423.72 376.99,425.74
             375.39,427.75 377.04,439.46 376.99,443.00
             376.99,443.00 376.00,458.00 376.00,458.00
             376.00,458.00 376.00,492.00 376.00,492.00
             376.00,492.00 392.08,489.00 392.08,489.00
             392.08,489.00 392.08,477.00 392.08,477.00
             392.08,477.00 393.70,466.00 393.70,466.00
             393.70,466.00 393.70,459.00 393.70,459.00
             393.70,459.00 393.70,452.00 393.70,452.00
             394.23,445.93 392.87,441.37 399.00,438.00
             399.00,438.00 398.00,453.00 398.00,453.00
             398.00,453.00 412.00,454.00 412.00,454.00
             412.00,454.00 412.91,440.00 412.91,440.00
             412.91,440.00 411.00,424.00 411.00,424.00
             402.76,422.91 398.01,420.97 392.00,428.00
             392.00,428.00 392.00,422.00 392.00,422.00 Z
           M 674.00,492.00
           C 681.97,488.63 686.47,491.19 688.98,487.57
             690.57,485.28 691.00,475.09 691.10,472.00
             691.10,472.00 691.10,441.00 691.10,441.00
             691.14,437.83 692.49,427.54 691.10,425.31
             689.96,422.36 684.81,422.96 682.00,423.00
             679.96,423.04 677.60,422.86 676.14,424.57
             674.25,426.78 674.04,432.18 674.00,435.00
             674.00,435.00 673.00,456.00 673.00,456.00
             673.00,456.00 674.96,476.00 674.96,476.00
             674.96,476.00 674.00,492.00 674.00,492.00 Z
           M 596.00,444.00
           C 595.98,449.21 596.01,449.83 595.00,455.00
             595.00,455.00 593.61,462.00 593.61,462.00
             593.15,464.65 593.54,472.51 589.09,471.26
             585.36,470.21 585.94,464.00 586.01,461.00
             586.08,458.15 586.66,447.65 588.60,445.98
             590.16,444.64 593.98,444.27 596.00,444.00 Z
           M 484.00,466.00
           C 493.01,467.98 490.85,475.45 485.00,480.00
             485.00,480.00 484.00,466.00 484.00,466.00 Z
           M 763.00,466.00
           C 772.01,467.98 769.85,475.45 764.00,480.00
             764.00,480.00 763.00,466.00 763.00,466.00 Z" />
</svg>
